<?xml version="1.0" encoding="UTF-8"?>
<svg width="8px" height="9px" viewBox="0 0 8 9" version="1.1" xmlns="http://www.w3.org/2000/svg" xmlns:xlink="http://www.w3.org/1999/xlink">
    <g id="Page-1" stroke="none" stroke-width="1" fill="none" fill-rule="evenodd">
        <g id="Files-View" transform="translate(-12.000000, -468.000000)">
            <g id="powerpoint" transform="translate(12.000000, 457.000000)" fill="currentColor">
                <path d="M7.033,13.885 C7.033,14.677 6.835,15.33 6.437,15.849 C5.92,16.518 5.064,16.854 3.866,16.854 L2.344,16.854 L2.344,19.915 L-4.92939023e-14,19.915 L-4.92939023e-14,11 L3.824,11 C4.912,11 5.738,11.301 6.302,11.904 C6.789,12.421 7.033,13.082 7.033,13.885 M4.688,13.911 C4.688,13.552 4.579,13.265 4.358,13.051 C4.136,12.836 3.76,12.729 3.229,12.729 L2.344,12.729 L2.344,15.125 L3.223,15.125 C3.795,15.125 4.185,15.006 4.398,14.771 C4.592,14.56 4.688,14.272 4.688,13.911" id="Fill-5"></path>
            </g>
        </g>
    </g>
</svg>
