<svg width="7px" height="12px" viewBox="0 0 7 12" version="1.1" xmlns="http://www.w3.org/2000/svg" xmlns:xlink="http://www.w3.org/1999/xlink">
    <defs>
        <path d="M3.247,0 C1.517,0 0.116,1.4 0.116,3.13 L0.116,3.13 L0.116,7.109 L2.056,7.109 L2.055,3.892 C2.059,2.919 2.838,2.132 3.811,2.132 L3.811,2.132 L14.828,2.122 L14.828,7.34 C14.828,9.283 16.396,10.858 18.34,10.858 L18.34,10.858 L22.155,10.858 L21.966,25.908 C21.963,26.879 21.178,27.661 20.212,27.665 L20.212,27.665 L3.671,27.656 C2.787,27.656 2.075,26.79 2.068,25.718 L2.068,25.718 L2.068,24.445 L0.126,24.445 L0.126,26.344 C0.126,28.254 1.404,29.805 2.977,29.805 L2.977,29.805 L20.774,29.801 C22.478,29.801 23.866,28.433 23.905,26.741 L23.905,26.741 L23.905,9.031 L22.65,7.574 L17.202,1.252 L16.123,0 L3.247,0 Z" id="path-1"></path>
    </defs>
    <g id="Page-1" stroke="none" stroke-width="1" fill="none" fill-rule="evenodd">
        <g id="Files-View" transform="translate(-97.000000, -770.000000)">
            <g id="music-icon" transform="translate(91.000000, 760.000000)">
                <path d="M12.5115,10.0247 L10.0525,11.2547 L10.0525,17.5607 C9.6395,17.3117 9.1325,17.1577 8.5755,17.1577 C7.2175,17.1577 6.1165,18.0387 6.1165,19.1257 C6.1165,20.2127 7.2175,21.0927 8.5755,21.0927 C9.9345,21.0927 11.0355,20.2127 11.0355,19.1257 L11.0355,13.2217 L12.5115,12.4837 L12.5115,10.0247 Z" id="Fill-5" fill="currentColor"></path>
            </g>
        </g>
    </g>
</svg>
