<?xml version="1.0" encoding="UTF-8"?>
<svg width="8px" height="10px" viewBox="0 0 8 10" version="1.1" xmlns="http://www.w3.org/2000/svg" xmlns:xlink="http://www.w3.org/1999/xlink">
    <!-- Generator: Sketch 63.1 (92452) - https://sketch.com -->
    <title>Fill 5</title>
    <desc>Created with Sketch.</desc>
    <defs>
        <path d="M3.247,0 C1.517,0 0.116,1.4 0.116,3.13 L0.116,3.13 L0.116,7.109 L2.055,7.109 L2.054,3.892 C2.059,2.919 2.839,2.132 3.811,2.132 L3.811,2.132 L14.828,2.122 L14.828,7.34 C14.828,9.283 16.396,10.858 18.34,10.858 L18.34,10.858 L22.155,10.858 L21.966,25.908 C21.964,26.879 21.178,27.661 20.212,27.665 L20.212,27.665 L3.671,27.656 C2.787,27.656 2.074,26.79 2.068,25.718 L2.068,25.718 L2.068,24.446 L0.126,24.446 L0.126,26.344 C0.126,28.254 1.404,29.805 2.977,29.805 L2.977,29.805 L20.774,29.802 C22.504,29.802 23.905,28.393 23.905,26.667 L23.905,26.667 L23.905,9.031 L22.65,7.574 L17.201,1.253 L16.123,0 L3.247,0 Z" id="path-1"></path>
    </defs>
    <g id="Page-1" stroke="none" stroke-width="1" fill="none" fill-rule="evenodd">
        <g id="Files-View" transform="translate(-98.000000, -712.000000)">
            <g id="video-icon" transform="translate(91.000000, 701.000000)">
                <polygon id="Fill-5" fill="currentColor" points="14.9526 15.7764 7.1006 11.2434 7.1006 20.3094"></polygon>
            </g>
        </g>
    </g>
</svg>
