
<svg width="15px" height="15px" viewBox="0 0 15 15" version="1.1" xmlns="http://www.w3.org/2000/svg" xmlns:xlink="http://www.w3.org/1999/xlink">
    <g id="Page-1" stroke="none" stroke-width="1" fill="none" fill-rule="evenodd">
        <g id="Channel-View---Upload-files" transform="translate(-111.000000, -713.000000)" fill="currentColor">
            <g id="pdf-icon" transform="translate(108.000000, 705.000000)">
                <path d="M9.9019,9.2787 C9.8989,9.2787 9.7999,9.2987 9.7979,9.2997 C9.7559,9.3037 9.7349,9.3067 9.6939,9.3217 C9.6099,9.3537 9.5489,9.3977 9.5099,9.4557 C9.4439,9.5527 9.3929,9.7367 9.3579,10.0037 C9.3099,10.3547 9.3039,10.7127 9.3379,11.0667 C9.3759,11.4527 9.4679,11.9087 9.6129,12.4237 C9.6229,12.4597 9.6329,12.4957 9.6439,12.5327 C9.8829,11.6207 10.0289,10.7917 10.0889,10.2267 L10.1199,9.9497 C10.1449,9.7347 10.1699,9.5127 10.1639,9.4157 L10.1609,9.4217 C10.0889,9.3777 9.9569,9.2967 9.9019,9.2787 M9.7519,14.6487 C9.2929,15.8397 8.7059,16.9457 8.1939,17.8107 C8.3079,17.7747 8.4239,17.7387 8.5399,17.7057 C9.4389,17.4407 10.1499,17.2987 10.7249,17.1957 C10.9699,17.1517 11.2369,17.1047 11.5149,17.0637 C11.3139,16.8287 11.1199,16.5957 10.9429,16.3727 C10.4749,15.7787 10.0689,15.1897 9.7519,14.6487 M13.0979,17.6847 C13.1689,17.7567 13.2389,17.8277 13.3089,17.8977 C13.8079,18.3937 14.2189,18.7467 14.6399,19.0427 C15.0409,19.3257 15.3799,19.5097 15.6479,19.5897 C15.8719,19.6567 16.0719,19.6577 16.2749,19.5927 C16.4519,19.5367 16.5659,19.4547 16.6139,19.3507 C16.6669,19.2367 16.6789,19.0357 16.5899,18.8347 C16.4999,18.6377 16.3039,18.4327 16.0529,18.2747 C15.8139,18.1257 15.5269,18.0167 15.1219,17.9187 C14.7159,17.8197 14.2699,17.7477 13.8309,17.7127 C13.5899,17.6927 13.3399,17.6597 13.0979,17.6847 M6.3049,19.3127 C6.2149,19.3527 6.1289,19.3937 6.0469,19.4337 C5.1009,19.8937 4.5849,20.3307 4.3609,20.5517 C4.0319,20.8727 3.9529,21.0927 3.9219,21.2297 C3.9009,21.3257 3.8989,21.4007 3.9029,21.4497 C3.9109,21.4487 3.9199,21.4467 3.9289,21.4457 C4.2059,21.3987 4.5119,21.2297 4.8639,20.9297 C5.1819,20.6597 5.6679,20.1707 6.3049,19.3127 M3.8399,22.2057 C3.6539,22.2057 3.4109,22.1517 3.2599,21.8817 C3.1439,21.6627 3.1199,21.3757 3.1909,21.0647 C3.2729,20.6987 3.4779,20.3647 3.8369,20.0157 C4.2769,19.5817 4.9459,19.1347 5.7189,18.7587 C6.1089,18.5697 6.5739,18.3747 7.0779,18.1887 C7.6549,17.2917 8.4859,15.8687 9.0799,14.3067 C9.1519,14.1187 9.2189,13.9287 9.2839,13.7397 C9.0949,13.3107 8.9799,12.9427 8.8909,12.6267 C8.7339,12.0697 8.6329,11.5697 8.5919,11.1387 C8.5519,10.7277 8.5589,10.3117 8.6139,9.9037 C8.6679,9.5047 8.7519,9.2367 8.8889,9.0357 C9.0159,8.8477 9.1969,8.7077 9.4289,8.6207 C9.5559,8.5717 9.6509,8.5617 9.7129,8.5537 C9.8339,8.5357 9.9619,8.5147 10.1249,8.5627 C10.2369,8.5987 10.3459,8.6577 10.4689,8.7307 L10.4709,8.7257 C10.9869,8.9647 10.9419,9.3667 10.8649,10.0347 L10.8349,10.3067 C10.7469,11.1327 10.5079,12.3857 10.0889,13.6937 C10.1269,13.7707 10.1669,13.8487 10.2099,13.9307 C10.5269,14.5287 10.9829,15.2117 11.5309,15.9077 C11.7989,16.2447 12.1059,16.6077 12.4229,16.9607 C12.9199,16.9237 13.4149,16.9247 13.8929,16.9647 C14.3699,17.0037 14.8569,17.0817 15.2989,17.1907 C15.7839,17.3067 16.1389,17.4457 16.4499,17.6387 C16.8299,17.8767 17.1219,18.1927 17.2749,18.5277 C17.4439,18.9087 17.4499,19.3337 17.2939,19.6667 C17.1549,19.9657 16.8819,20.1877 16.5029,20.3067 C16.1579,20.4187 15.8059,20.4207 15.4329,20.3087 C15.0819,20.2037 14.6809,19.9897 14.2089,19.6557 C13.7519,19.3357 13.3109,18.9567 12.7799,18.4287 C12.5649,18.2147 12.3419,17.9827 12.1189,17.7407 C11.7689,17.7797 11.3729,17.8407 10.8589,17.9347 C10.2739,18.0387 9.6139,18.1707 8.7509,18.4247 C8.3489,18.5427 7.9499,18.6727 7.5699,18.8077 C7.5159,18.8917 7.4639,18.9687 7.4159,19.0397 C6.6809,20.1247 5.9669,20.9767 5.3499,21.5007 C4.8929,21.8907 4.4689,22.1137 4.0559,22.1847 C4.0089,22.1937 3.9319,22.2057 3.8399,22.2057" id="Fill-6"></path>
            </g>
        </g>
    </g>
</svg>
