<?xml version="1.0" encoding="utf-8"?>
<!-- Generator: Adobe Illustrator 22.1.0, SVG Export Plug-In . SVG Version: 6.00 Build 0)  -->
<svg version="1.1" id="Wind" xmlns="http://www.w3.org/2000/svg" xmlns:xlink="http://www.w3.org/1999/xlink" x="0px" y="0px"
	 viewBox="0 0 224.2 100.4" style="enable-background:new 0 0 224.2 100.4;" xml:space="preserve">
<style type="text/css">
	.st0{stroke:#000000;stroke-width:0.5;stroke-miterlimit:10;}
</style>
<g>
	<g>
		<path class="st0" d="M12.7,57L7.1,68.2H5.8l18.9-37.4h1.6L35,68.2h-1.5L31,57H12.7z M25.3,31.7l-12,24.1h17.5L25.3,31.7z"/>
	</g>
	<g>
		<path class="st0" d="M43.6,68.1l5.2-37.4h1.3l-5.2,37.4H43.6z"/>
	</g>
	<g>
		<path class="st0" d="M63,50.3l-2.5,17.8h-1.3l5.2-37.4h8.7c9.2,0,12.5,3.6,11.7,9.7s-5.2,8.8-10.6,9.7l8.6,18h-1.7l-8.3-17.8
			C72.8,50.3,63,50.3,63,50.3z M71.3,49.2c6.4,0,11.2-2.6,12-8.7c0.7-5.4-1.9-8.6-10.7-8.6h-7.1l-2.4,17.3H71.3z"/>
	</g>
	<g>
		<path class="st0" d="M115.8,33.9l-1,0.9c-2.4-2.4-5-3.6-9.1-3.6c-5.8,0-9.8,3.1-10.4,7.5c-0.6,4.6,1.7,6.4,8.7,8.6
			c7.4,2.3,10.5,4.7,9.7,10.8c-0.9,6.3-6.4,10.5-13.5,10.5c-5.2,0-8.5-1.8-11.2-4.5l1-0.8c2.5,2.5,5.4,4.1,10.4,4.1
			c6.5,0,11.4-3.6,12.1-9.3c0.8-5.5-1.9-7.5-9-9.7c-7.7-2.4-10.2-4.7-9.5-9.7c0.7-4.9,5.4-8.6,11.9-8.6
			C110.7,30.1,113.4,31.6,115.8,33.9z"/>
		<path class="st0" d="M100.2,69c-4.7,0-8.2-1.4-11.5-4.6l-0.3-0.3l1.6-1.3l0.3,0.3c2.1,2.1,4.8,4,10.1,4c6.4,0,11-3.5,11.8-8.9
			c0.7-4.9-1.3-7-8.7-9.3c-8-2.5-10.4-5-9.7-10.1c0.7-5.3,5.8-9,12.3-9c5,0,7.7,1.6,10.2,3.9l0.3,0.3l-1.6,1.5l-0.3-0.3
			c-2.4-2.5-5-3.5-8.8-3.5c-5.4,0-9.5,2.9-10,7.1c-0.6,4.1,1.3,6,8.5,8.1c7.2,2.2,10.9,4.6,9.9,11.2C113.2,64.6,107.5,69,100.2,69z
			 M89.5,64.2c3.1,2.9,6.3,4.1,10.6,4.1c6.9,0,12.3-4.2,13.1-10.2c0.8-5.4-1.5-7.9-9.4-10.3c-6.7-2-9.7-3.9-9-9
			c0.6-4.7,5-7.8,10.8-7.8c3.9,0,6.6,1,9.1,3.4l0.4-0.4c-2.3-2.1-4.8-3.4-9.3-3.4c-6.1,0-10.9,3.4-11.5,8.3
			c-0.7,4.7,1.5,6.9,9.2,9.2c6.9,2.2,10.1,4.2,9.3,10.2c-0.8,5.8-5.7,9.6-12.5,9.6c-5.4,0-8.2-1.9-10.4-4L89.5,64.2z"/>
	</g>
	<g>
		<path class="st0" d="M129.9,31.8l-2.2,16h14.8l-0.2,1.2h-14.8L125,67h17.7l-0.2,1.2h-19.1l5.2-37.4h18.6l-0.3,1.2h-17V31.8z"/>
		<path class="st0" d="M142.9,68.5h-19.8l5.3-38.2h19.5l-0.6,1.9h-17.1l-2.1,15.1h14.8l-0.3,1.9h-14.8l-2.4,17.2h17.7L142.9,68.5z
			 M124,67.7h18.3v-0.4h-17.7l2.6-18.8H142l0.1-0.4h-14.8l2.3-16.7h17.2l0.1-0.4h-17.8L124,67.7z"/>
	</g>
	<g>
		<path class="st0" d="M174.7,68.1l-16.4-36c-0.1,1.9-0.4,4.4-1.2,9.8l-3.6,26.2h-1.3l5.2-37.4h1.7l16.3,36c0.2-2.2,0.6-5.5,1.2-9.8
			l3.6-26.2h1.3l-5.2,37.4H174.7z"/>
		<path class="st0" d="M176.7,68.5h-2.2l-15.9-34.9c-0.2,1.9-0.5,4.4-1.1,8.4l-3.7,26.5h-2.1l5.3-38.2h2.3l15.9,34.9
			c0.2-2.1,0.6-5,1-8.4l3.7-26.5h2.1L176.7,68.5z M175.7,67.7h0.3l5.1-36.6h-0.5L177,56.9c-0.5,3.6-0.8,6.6-1.1,8.8L175.7,67.7z
			 M175,67.7h0.5l-16.6-36.6h-0.6L175,67.7z M152.7,67.7h0.5l3.6-25.9c0.8-5.8,1-8,1.2-9.8l0.1-0.9h-0.2L152.7,67.7z"/>
	</g>
	<g>
		<path class="st0" d="M202.9,30.7c8.4,0,16.8,3,14.7,18.3c-2.2,15.7-11.8,19.1-19.7,19.1h-7.3l5.2-37.4
			C195.8,30.7,202.9,30.7,202.9,30.7z M192.1,67h6c7.6,0,16-3.4,18-18c2.2-14.8-5.8-17.2-13.5-17.2H197L192.1,67z"/>
		<path class="st0" d="M198,68.5h-7.8l5.3-38.2h7.4c5.8,0,9.8,1.4,12.4,4.3c2.7,3.1,3.6,8,2.7,14.4C215.8,65.1,205.9,68.5,198,68.5z
			 M191.1,67.7h6.9c7.6,0,17.1-3.3,19.3-18.8c0.9-6.2,0-10.9-2.5-13.8c-2.4-2.7-6.2-4.1-11.8-4.1h-6.7L191.1,67.7z M198.2,67.3h-6.5
			l5-35.9h6c3.5,0,8.4,0.4,11.5,3.9c2.5,2.9,3.3,7.5,2.5,13.7C215.5,57.4,211.3,67.3,198.2,67.3z M192.6,66.6h5.6
			c10.1,0,16-5.9,17.7-17.6c0.8-6,0-10.3-2.3-13c-2.2-2.5-5.6-3.6-10.9-3.6h-5.4L192.6,66.6z"/>
	</g>
</g>
</svg>
