<?xml version="1.0" encoding="utf-8"?>
<!-- Generator: Adobe Illustrator 22.1.0, SVG Export Plug-In . SVG Version: 6.00 Build 0)  -->
<svg version="1.1" id="Wind" xmlns="http://www.w3.org/2000/svg" xmlns:xlink="http://www.w3.org/1999/xlink" x="0px" y="0px"
	 viewBox="0 0 100 100.4" style="enable-background:new 0 0 100 100.4;" xml:space="preserve">
<style type="text/css">
	.st0{fill:#0097C0;}
</style>
<path class="st0" d="M50,0.2c-19.3,0-35,15.7-35,35c0,11.4,5.5,21.5,13.9,27.9c3.5-9.3,8.3-18.5,14.8-24.8c-0.1-0.1-0.1-0.3-0.2-0.4
	c-4.2,1.9-9.1,4.9-12.1,6.8c0.3,0.6,0.5,1.3,0.4,2c-0.3,1.7-1.9,2.9-3.6,2.7c-1.7-0.3-2.9-1.9-2.7-3.6c0.3-1.7,1.9-2.9,3.6-2.7
	c0.9,0.1,1.6,0.6,2.1,1.2c3-1.9,8-5,12.2-6.8c-0.1-0.3-0.1-0.7-0.1-1s0-0.6,0-0.9c0-0.2,0.1-0.4,0.2-0.6c-4-0.7-8.6-1.4-11.6-1.8
	c-0.3,1.7-1.9,2.8-3.6,2.6c-1.8-0.3-3-1.9-2.7-3.7s1.9-3,3.7-2.7c1.7,0.3,2.8,1.8,2.7,3.4c3,0.4,7.6,1.1,11.7,1.8
	c0.4-0.9,1.1-1.7,1.9-2.2c-3.7-3.1-6.7-7.6-8.5-10.6c-0.6,0.3-1.3,0.4-2,0.3c-1.9-0.3-3.1-2-2.9-3.9c0.3-1.9,2-3.1,3.9-2.9
	c1.9,0.3,3.1,2,2.9,3.9c-0.2,1-0.7,1.8-1.5,2.3c1.8,3,4.9,7.6,8.6,10.6c0.8-0.4,1.6-0.5,2.5-0.4c1-6.4,2-10.2,2.9-12.4
	c-1-0.7-1.6-1.9-1.4-3.1c0.3-1.7,1.9-2.9,3.6-2.7c1.7,0.3,2.9,1.9,2.7,3.6c-0.3,1.7-1.9,2.9-3.6,2.7c-0.3,0-0.6-0.2-0.9-0.3
	c-0.8,2.1-1.9,5.8-2.8,12.2c0.1,0,0.1,0,0.2,0.1c0.2,0,0.3,0.1,0.4,0.1c0.1,0,0.2,0.1,0.3,0.1c0.2,0.1,0.4,0.2,0.6,0.3l0.1,0.1
	c0.3,0.2,0.6,0.4,0.8,0.6l0,0l0.1,0.1c4-5,9.9-12.3,11.4-14.1c-0.8-0.7-1.2-1.7-1.1-2.8c0.3-1.7,1.8-2.8,3.5-2.6
	c1.7,0.3,2.8,1.8,2.6,3.5c-0.3,1.7-1.8,2.8-3.5,2.6c-0.4-0.1-0.8-0.2-1.2-0.4c-1.4,1.8-7.4,9.1-11.4,14.2c0.1,0.2,0.3,0.4,0.4,0.6
	c2.3-1.4,8.2-4.8,14.5-6.9c-0.1-0.4-0.1-0.8-0.1-1.3c0.3-1.8,2-3.1,3.8-2.8c1.8,0.3,3.1,2,2.8,3.8s-2,3.1-3.8,2.8
	c-1.2-0.2-2.2-1-2.6-2.1c-6.3,2.2-12.2,5.5-14.5,6.9c0.1,0.3,0.2,0.7,0.3,1.1c1.9-0.2,12.1-0.9,20.1,0.4c0.5-1.6,2-2.7,3.8-2.4
	s3.1,2,2.8,3.9c-0.3,1.8-2,3.1-3.9,2.8c-1.8-0.3-3.1-2-2.8-3.9l0,0c-8-1.3-18.1-0.6-20-0.4c0,0.4,0,0.7,0,1.1
	c-0.1,0.7-0.4,1.3-0.7,1.9c3.1,1.5,6.2,3.7,8.5,5.6c1-1,2.4-1.6,4-1.4c2.5,0.4,4.2,2.7,3.8,5.2s-2.7,4.2-5.2,3.8
	c-2.5-0.4-4.2-2.7-3.8-5.2c0.1-0.8,0.5-1.5,0.9-2.1c-2.3-1.8-5.4-4.1-8.5-5.6c-0.8,1-2.1,1.7-3.4,1.8c0,3.3,0.3,7.3,0.5,10.1
	c0.2,0,0.4,0,0.6,0c1.8,0.3,3,2,2.8,3.8c-0.3,1.8-2,3-3.8,2.8c-1.8-0.3-3-2-2.8-3.8c0.2-1.4,1.4-2.5,2.7-2.7
	c-0.3-2.8-0.6-6.9-0.5-10.2c-0.2,0-0.3,0-0.5,0C46.4,41,45.6,40.6,45,40c-6.4,6.2-10.9,15.3-14.1,24.5c5.5,3.6,12,5.7,19.1,5.7
	c19.3,0,35-15.7,35-35S69.3,0.2,50,0.2z M23.9,38.8c-0.1,1-1,1.6-2,1.5s-1.6-1-1.5-2c0.1-1,1-1.6,2-1.5C23.4,37,24,37.9,23.9,38.8z
	 M29,15.7c-0.1,0.8-0.9,1.3-1.6,1.2c-0.8-0.1-1.3-0.9-1.2-1.6c0.1-0.8,0.9-1.3,1.6-1.2C28.6,14.2,29.1,15,29,15.7z M41.5,9.2
	c-0.6-0.1-1-0.7-0.9-1.3s0.7-1,1.3-0.9s1,0.7,0.9,1.3C42.7,8.9,42.1,9.3,41.5,9.2z M46.2,14.3c-0.1,0.7-0.8,1.2-1.5,1.1
	c-0.7-0.1-1.2-0.8-1.1-1.5c0.1-0.7,0.8-1.2,1.5-1.1S46.3,13.6,46.2,14.3z M57.6,7.3c-0.2,1.1-1.2,1.8-2.2,1.6
	c-1.1-0.2-1.8-1.2-1.6-2.2S55,4.9,56,5.1C57,5.2,57.8,6.2,57.6,7.3z M42.2,56.8c-0.1,0.9-1,1.5-1.9,1.4s-1.5-1-1.4-1.9
	c0.1-0.9,1-1.5,1.9-1.4C41.7,55.1,42.3,55.9,42.2,56.8z M49.8,66c-0.6-0.1-1-0.7-0.9-1.3c0.1-0.6,0.7-1,1.3-0.9s1,0.7,0.9,1.3
	C51,65.7,50.4,66.1,49.8,66z M53.9,45.2c-0.1,0.7-0.8,1.2-1.5,1.1c-0.7-0.1-1.2-0.8-1.1-1.5c0.1-0.7,0.8-1.2,1.5-1.1
	C53.5,43.8,54,44.5,53.9,45.2z M65.4,59.3c-0.2,1.3-1.4,2.2-2.7,2s-2.2-1.4-2-2.7s1.4-2.2,2.7-2S65.6,58,65.4,59.3z M73.1,51.6
	c-0.1,0.7-0.8,1.2-1.5,1.1c-0.7-0.1-1.2-0.8-1.1-1.5c0.1-0.7,0.8-1.2,1.5-1.1C72.7,50.2,73.2,50.9,73.1,51.6z M78.4,31.5
	c-0.6,0-1.2-0.5-1.2-1.2c0-0.6,0.5-1.2,1.2-1.2c0.6,0,1.2,0.5,1.2,1.2C79.5,31,79,31.5,78.4,31.5z"/>
<path class="st0" d="M28.9,63.1c-5.1,13.7-7.5,27.7-8.4,33.8c-0.4,2.5,2,3.2,2.9,3.3c0-0.1,1.4-18.1,7.5-35.7
	C30.2,64.1,29.5,63.6,28.9,63.1z"/>
</svg>
