<?xml version="1.0" encoding="utf-8"?>
<!-- Generator: Adobe Illustrator 22.1.0, SVG Export Plug-In . SVG Version: 6.00 Build 0)  -->
<svg version="1.1" id="Wind" xmlns="http://www.w3.org/2000/svg" xmlns:xlink="http://www.w3.org/1999/xlink" x="0px" y="0px"
	 viewBox="0 0 599.5 146.6" style="enable-background:new 0 0 599.5 146.6;" xml:space="preserve">
<style type="text/css">
	.st0{fill:url(#grad1);}
</style>

<defs>
<linearGradient id="grad1" x1="0%" y1="0%" x2="100%" y2="0%" gradientTransform="rotate(45)">
  <stop offset="0%" style="stop-color:#0081a2;stop-opacity:1" />
  <stop offset="100%" style="stop-color:#0098c1;stop-opacity:1" />
</linearGradient>
</defs>

<g>
	<path class="st0" d="M80.5,0H15.1C6.8,0,0,6.8,0,15.1v65.4c0,8.4,6.8,15.1,15.1,15.1h65.4c8.4,0,15.1-6.7,15.1-15.1V15.1
		C95.6,6.8,88.9,0,80.5,0z M35.4,21.3c1.5-3,4.3-4.6,7.9-4.6c3.6,0,6.4,1.6,7.9,4.6c1.1,2.1,1.1,4.2,1.1,4.4c0,1-0.8,1.8-1.8,1.8
		s-1.8-0.8-1.8-1.8c0,0-0.1-1.5-0.8-2.9c-0.9-1.7-2.4-2.5-4.6-2.5c-2.3,0-3.8,0.9-4.7,2.6c-0.7,1.4-0.7,2.8-0.7,2.8s0.1,1.5,0.8,2.9
		c0.9,1.7,2.4,2.5,4.6,2.5h25.1c1,0,1.8,0.8,1.8,1.8s-0.8,1.8-1.8,1.8H43.3c-3.6,0-6.4-1.6-7.9-4.6c-1.1-2.1-1.1-4.2-1.1-4.4
		S34.3,23.4,35.4,21.3z M27.1,34.7c1,0,1.8,0.8,1.8,1.8c0,2.5,1,5.4,5.4,5.4H81c1,0,1.8,0.8,1.8,1.8S82,45.5,81,45.5H34.3
		c-6.6,0-9-4.6-9-9C25.3,35.5,26.1,34.7,27.1,34.7z M73.8,63.5H30.7c-2.2,0-3.7,0.8-4.6,2.5c-0.7,1.4-0.8,2.9-0.8,2.9s0,1.5,0.8,2.9
		c0.9,1.7,2.4,2.5,4.6,2.5s3.7-0.8,4.6-2.5c0.7-1.4,0.8-2.9,0.8-2.9c0-1,0.8-1.8,1.8-1.8s1.8,0.8,1.8,1.8c0,0.2,0,2.3-1.1,4.4
		c-1.5,3-4.3,4.6-7.9,4.6s-6.4-1.6-7.9-4.6c-1.1-2.1-1.1-4.2-1.1-4.4c0-0.2,0-2.3,1.1-4.4c1.5-3,4.3-4.6,7.9-4.6h43.1
		c1,0,1.8,0.8,1.8,1.8S74.8,63.5,73.8,63.5z M88.1,54.5H19.9c-4.5,0-5.4,2.9-5.4,5.4c0,1-0.8,1.8-1.8,1.8c-0.9,0-1.7-0.8-1.8-1.8
		c0-4.4,2.4-9,9-9h68.2c1,0,1.8,0.8,1.8,1.8S89.1,54.5,88.1,54.5z"/>
	<g>
		<path d="M134.2,64.7l-9.3,26.9h-3l31.4-90.3h3.6l31.6,90.3h-3.3l-9.3-26.9H134.2z M155,3.7l-19.9,58.2H175L155,3.7z"/>
		<path d="M208.3,91.6V1.3h3v90.3C211.3,91.6,208.3,91.6,208.3,91.6z"/>
		<path d="M246.9,48.7v43h-3V1.3h19.8c21.1,0,29.7,8.6,29.7,23.5c0,14.7-9,21.2-21.1,23.5l25.3,43.4h-3.8l-24.7-43
			C269.1,48.7,246.9,48.7,246.9,48.7z M265.6,45.9c14.7,0,24.7-6.4,24.7-21.1c0-13-7-20.7-27.1-20.7h-16.3v41.8H265.6z"/>
		<path d="M362.4,9.1l-2,2.3c-6.2-5.8-12.5-8.6-21.9-8.6c-13.1,0-21.5,7.6-21.5,18c0,11,6,15.5,22.7,20.7
			c17.6,5.4,25.5,11.3,25.5,26c0,15.1-11.3,25.5-27.6,25.5c-11.9,0-19.9-4.4-27.1-10.9l2-2c6.5,6,13.5,9.9,24.9,9.9
			c14.9,0,24.8-8.8,24.8-22.4c0-13.3-6.8-18.2-23.6-23.5C320.4,38.5,314,32.9,314,20.8C314,9,323.7,0,338.5,0
			C349.5,0,356,3.6,362.4,9.1z"/>
		<path d="M393.8,4.1v38.5h33.7v2.8h-33.7v43.5h40.4v2.8h-43.5V1.3h42.6l-0.4,2.8H393.8z"/>
		<path d="M507.6,91.6l-48.8-87c0.3,4.6,0.4,10.6,0.4,23.7v63.3h-2.9V1.3h3.8l48.7,86.9c-0.1-5.3-0.4-13.4-0.4-23.7V1.3h2.9v90.3
			C511.3,91.6,507.6,91.6,507.6,91.6z"/>
		<path d="M560.1,1.3c19.2,0,39.4,7.2,39.4,44.2c0,37.8-21,46.1-38.9,46.1h-16.7V1.3H560.1z M547,88.8h13.8
			c17.2,0,35.5-8.1,35.5-43.4C596.3,9.7,577.5,4,559.8,4H547V88.8z"/>
	</g>
</g>
<g>
	<path d="M52.5,125.3c-0.7-0.5-2.2-1.5-4.6-1.5c-2.5,0-4.3,0.9-4.3,2.8c0,2.1,1.7,2.8,5.1,4c3.4,1.1,5.3,2.5,5.3,5.2
		c0,3-2.3,4.8-6.2,4.8c-3.3,0-5-1.2-5.9-1.8l0.6-1.4c0.7,0.5,2.4,1.7,5.3,1.7c2.8,0,4.6-1.1,4.6-3.2c0-2-1.5-3-4.8-4.1
		s-5.5-2.2-5.5-5.1c0-2.8,2.4-4.3,5.9-4.3c3,0,4.4,1,5.3,1.6L52.5,125.3z"/>
	<path d="M61.6,127.7c3.2,0,5,2,5,6v0.9h-9c0.2,3.1,1.6,4.7,4.5,4.7c2.2,0,3.4-1,3.8-1.4l0.6,1.1c-0.5,0.5-1.9,1.6-4.7,1.6
		c-3.6,0-5.8-2.1-5.8-6.6C56,130,58.5,127.7,61.6,127.7z M57.6,133.2h7.5c0-2.7-1.2-4.2-3.6-4.2C59.4,129.1,57.8,130.5,57.6,133.2z"
		/>
	<path d="M78.1,130c-0.6-0.5-1.5-1-3.1-1c-2.5,0-4.8,1.5-4.8,5.1s2,5.1,4.5,5.1c1.7,0,2.7-0.5,3.3-1l0.5,1.3c-0.7,0.5-1.8,1.1-4,1.1
		c-3.4,0-6-1.9-6-6.5c0-4.5,3.1-6.5,6.2-6.5c2.1,0,3.1,0.6,3.8,1.1L78.1,130z"/>
	<path d="M91.1,140.4h-1.5v-1.5l0,0c-0.5,0.5-1.6,1.8-4.2,1.8c-2.9,0-4.5-1.5-4.5-5.1V128h1.6v7.3c0,2.9,1,4,3.4,4
		c1.9,0,3.1-1.1,3.7-1.8V128h1.6L91.1,140.4L91.1,140.4z"/>
	<path d="M100.3,129.2h-0.4c-1.8,0-3,0.9-3.6,2.4v8.8h-1.6V128h1.5v2.1h0.1c0.5-1.1,1.5-2.3,4-2.3V129.2z"/>
	<path d="M106.8,127.7c3.2,0,5,2,5,6v0.9h-9c0.2,3.1,1.6,4.7,4.5,4.7c2.2,0,3.4-1,3.8-1.4l0.6,1.1c-0.5,0.5-1.9,1.6-4.7,1.6
		c-3.6,0-5.8-2.1-5.8-6.6C101.2,130,103.7,127.7,106.8,127.7z M102.8,133.2h7.5c0-2.7-1.2-4.2-3.6-4.2
		C104.6,129.1,103,130.5,102.8,133.2z"/>
	<path d="M125.5,131.2c-0.9-1.4-1.4-2.7-1.4-4.4c0-2.7,1.9-4.3,4.5-4.3c2.5,0,3.9,1.6,3.9,3.8c0,2.8-2.1,4.3-4.8,5.4
		c0.4,0.5,0.7,1,1.1,1.5l5.4,7.2h-2l-5-6.7c-0.4-0.5-0.7-0.9-1-1.4c-1.9,0.9-3.8,1.9-3.8,4c0,2,1.2,3,3.4,3c1.4,0,2.4-0.3,2.8-0.5
		l0.2,1.3c-0.5,0.3-1.6,0.6-3.1,0.6c-3,0-4.9-1.3-4.9-4.3C120.9,133.6,123.2,132.1,125.5,131.2z M126.9,130.6
		c2.5-1.1,4.1-2.1,4.1-4.2c0-1.4-0.8-2.5-2.5-2.5s-2.9,1.1-2.9,2.9C125.6,128.1,126,129.3,126.9,130.6z"/>
	<path d="M156.6,124.1h-6.9v16.2h-1.5v-16.2h-6.9v-1.4h15.3L156.6,124.1L156.6,124.1z"/>
	<path d="M160.9,129.2h-0.4c-1.8,0-3,0.9-3.6,2.4v8.8h-1.6V128h1.5v2.1h0.1c0.5-1.1,1.5-2.3,4-2.3V129.2z"/>
	<path d="M167.5,133.4c1.1,0,2,0.1,2.5,0.1v-0.6c0-2.6-0.9-3.8-3.2-3.8c-2,0-3.1,1-3.7,1.6l-0.7-1c0.7-0.8,2.1-2,4.6-2
		c3.2,0,4.6,1.8,4.6,5.2v7.5h-1.5v-1.5H170c-0.4,0.6-1.5,1.8-4,1.8c-2.6,0-3.9-1.5-3.9-3.6C162.1,134.6,164.1,133.4,167.5,133.4z
		 M166.3,139.3c2.2,0,3.2-1,3.7-1.7v-2.9c-0.5,0-1.3-0.1-2.4-0.1c-2.6,0-3.9,0.8-3.9,2.4C163.7,138.4,164.6,139.3,166.3,139.3z"/>
	<path d="M176.6,129.5L176.6,129.5c0.6-0.6,1.9-1.8,4.3-1.8c2.9,0,4.5,1.5,4.5,5.1v7.6h-1.5v-7.3c0-2.9-1.1-4-3.4-4
		c-1.8,0-3.1,1-3.8,1.8v9.6h-1.6V128h1.5V129.5z"/>
	<path d="M195.8,130.2c-0.6-0.5-1.7-1.1-3.3-1.1s-2.6,0.6-2.6,1.7c0,1.2,0.7,1.7,3.2,2.6c2.4,0.8,3.6,1.9,3.6,3.8
		c0,2.1-1.5,3.5-4.2,3.5c-2.3,0-3.6-0.9-4.2-1.4l0.6-1.3c0.6,0.5,1.7,1.4,3.6,1.4c1.8,0,2.7-0.8,2.7-2s-0.6-1.9-3-2.7
		c-2.4-0.9-3.7-1.7-3.7-3.7s1.6-3.2,4-3.2c2.1,0,3.3,0.7,3.9,1.2L195.8,130.2z"/>
	<path d="M204.6,133.4c1.1,0,2,0.1,2.5,0.1v-0.6c0-2.6-0.9-3.8-3.2-3.8c-2,0-3.1,1-3.7,1.6l-0.7-1c0.7-0.8,2.1-2,4.6-2
		c3.2,0,4.6,1.8,4.6,5.2v7.5h-1.5v-1.5h-0.1c-0.4,0.6-1.5,1.8-4,1.8c-2.6,0-3.9-1.5-3.9-3.6C199.2,134.6,201.2,133.4,204.6,133.4z
		 M203.3,139.3c2.2,0,3.2-1,3.7-1.7v-2.9c-0.5,0-1.3-0.1-2.4-0.1c-2.6,0-3.9,0.8-3.9,2.4C200.8,138.4,201.6,139.3,203.3,139.3z"/>
	<path d="M220.8,130c-0.6-0.5-1.5-1-3.1-1c-2.5,0-4.8,1.5-4.8,5.1s2,5.1,4.5,5.1c1.7,0,2.7-0.5,3.3-1l0.5,1.3
		c-0.7,0.5-1.8,1.1-4,1.1c-3.4,0-6-1.9-6-6.5c0-4.5,3.1-6.5,6.2-6.5c2.1,0,3.1,0.6,3.8,1.1L220.8,130z"/>
	<path d="M229.6,129.3h-3.4v7.1c0,2.3,0.9,2.7,2.2,2.7c0.6,0,1-0.1,1.2-0.2v1.3c-0.2,0.1-0.7,0.3-1.5,0.3c-1.9,0-3.5-0.8-3.5-4v-7.3
		h-1.8V128h1.8v-2.8h1.5v2.8h3.4v1.3H229.6z"/>
	<path d="M234,125.6h-1.6v-2h1.6V125.6z M234,140.4h-1.5V128h1.5V140.4z"/>
	<path d="M242.9,140.7c-3.2,0-5.8-2.1-5.8-6.5s2.7-6.5,5.8-6.5c3.2,0,5.9,2.1,5.9,6.5C248.7,138.6,246.1,140.7,242.9,140.7z
		 M242.9,129.1c-2.4,0-4.3,1.7-4.3,5.1c0,3.4,1.8,5.1,4.3,5.1s4.3-1.7,4.3-5.1C247.2,130.7,245.3,129.1,242.9,129.1z"/>
	<path d="M253.1,129.5L253.1,129.5c0.6-0.6,1.9-1.8,4.3-1.8c2.9,0,4.5,1.5,4.5,5.1v7.6h-1.5v-7.3c0-2.9-1.1-4-3.4-4
		c-1.8,0-3.1,1-3.8,1.8v9.6h-1.6V128h1.5L253.1,129.5L253.1,129.5z"/>
	<path d="M270.3,133.4c1.1,0,2,0.1,2.5,0.1v-0.6c0-2.6-0.9-3.8-3.2-3.8c-2,0-3.1,1-3.7,1.6l-0.7-1c0.7-0.8,2.1-2,4.6-2
		c3.2,0,4.6,1.8,4.6,5.2v7.5h-1.5v-1.5h-0.1c-0.4,0.6-1.5,1.8-4,1.8c-2.6,0-3.9-1.5-3.9-3.6C265,134.6,266.9,133.4,270.3,133.4z
		 M269.1,139.3c2.2,0,3.2-1,3.7-1.7v-2.9c-0.5,0-1.3-0.1-2.4-0.1c-2.6,0-3.9,0.8-3.9,2.4C266.5,138.4,267.4,139.3,269.1,139.3z"/>
	<path d="M279.7,140.4h-1.6v-18.1h1.6V140.4z"/>
	<path d="M308.8,140.4h-1.6v-14.6h-0.1l-6.8,14.6h-1.5l-6.8-14.6l0,0v14.6h-1.6v-17.6h1.8l7.3,15.5h0.1l7.3-15.5h1.8v17.6H308.8z"/>
	<path d="M317.4,127.7c3.2,0,5,2,5,6v0.9h-9c0.2,3.1,1.6,4.7,4.5,4.7c2.2,0,3.4-1,3.8-1.4l0.6,1.1c-0.5,0.5-1.9,1.6-4.7,1.6
		c-3.6,0-5.8-2.1-5.8-6.6C311.9,130,314.3,127.7,317.4,127.7z M313.5,133.2h7.5c0-2.7-1.2-4.2-3.6-4.2
		C315.2,129.1,313.6,130.5,313.5,133.2z"/>
	<path d="M332,130.2c-0.6-0.5-1.7-1.1-3.3-1.1c-1.6,0-2.6,0.6-2.6,1.7c0,1.2,0.7,1.7,3.2,2.6c2.4,0.8,3.6,1.9,3.6,3.8
		c0,2.1-1.5,3.5-4.2,3.5c-2.3,0-3.6-0.9-4.2-1.4l0.6-1.3c0.6,0.5,1.7,1.4,3.6,1.4c1.8,0,2.7-0.8,2.7-2s-0.6-1.9-3-2.7
		c-2.4-0.9-3.7-1.7-3.7-3.7s1.6-3.2,4-3.2c2.1,0,3.3,0.7,3.9,1.2L332,130.2z"/>
	<path d="M342.6,130.2c-0.6-0.5-1.7-1.1-3.3-1.1c-1.6,0-2.6,0.6-2.6,1.7c0,1.2,0.7,1.7,3.2,2.6c2.4,0.8,3.6,1.9,3.6,3.8
		c0,2.1-1.5,3.5-4.2,3.5c-2.3,0-3.6-0.9-4.2-1.4l0.6-1.3c0.6,0.5,1.7,1.4,3.6,1.4c1.8,0,2.7-0.8,2.7-2s-0.6-1.9-3-2.7
		c-2.4-0.9-3.7-1.7-3.7-3.7s1.6-3.2,4-3.2c2.1,0,3.3,0.7,3.9,1.2L342.6,130.2z"/>
	<path d="M351.3,133.4c1.1,0,2,0.1,2.5,0.1v-0.6c0-2.6-0.9-3.8-3.2-3.8c-2,0-3.1,1-3.7,1.6l-0.7-1c0.7-0.8,2.1-2,4.6-2
		c3.2,0,4.6,1.8,4.6,5.2v7.5h-1.5v-1.5h-0.1c-0.4,0.6-1.5,1.8-4,1.8c-2.6,0-3.9-1.5-3.9-3.6C346,134.6,347.9,133.4,351.3,133.4z
		 M350.1,139.3c2.2,0,3.2-1,3.7-1.7v-2.9c-0.5,0-1.3-0.1-2.4-0.1c-2.6,0-3.9,0.8-3.9,2.4C347.5,138.4,348.4,139.3,350.1,139.3z"/>
	<path d="M369.2,139.6c0,4.1-1.8,6.2-5.9,6.2c-2.8,0-4.1-1.3-4.8-1.9l0.7-1.3c0.5,0.6,1.7,1.8,4.1,1.8c3.2,0,4.3-1.5,4.3-4.5V139
		l0,0c-0.4,0.5-1.5,1.6-4.1,1.6c-3,0-5.3-2-5.3-6.4c0-4.5,2.7-6.6,5.5-6.6c2.5,0,3.4,1.2,3.9,1.8l0,0V128h1.5L369.2,139.6
		L369.2,139.6z M363.9,139.3c2.1,0,3.1-1.1,3.7-1.8v-6.6c-0.6-0.7-1.5-1.8-3.6-1.8c-2.2,0-4.2,1.6-4.2,5.1S361.6,139.3,363.9,139.3z
		"/>
	<path d="M374.6,125.6H373v-2h1.6V125.6z M374.5,140.4H373V128h1.5V140.4z"/>
	<path d="M379.9,129.5L379.9,129.5c0.6-0.6,1.9-1.8,4.3-1.8c2.9,0,4.5,1.5,4.5,5.1v7.6h-1.5v-7.3c0-2.9-1.1-4-3.4-4
		c-1.8,0-3.1,1-3.8,1.8v9.6h-1.6V128h1.5V129.5z"/>
	<path d="M402.5,139.6c0,4.1-1.8,6.2-5.9,6.2c-2.8,0-4.1-1.3-4.8-1.9l0.7-1.3c0.5,0.6,1.7,1.8,4.1,1.8c3.2,0,4.3-1.5,4.3-4.5V139
		l0,0c-0.4,0.5-1.5,1.6-4.1,1.6c-3,0-5.3-2-5.3-6.4c0-4.5,2.7-6.6,5.5-6.6c2.5,0,3.4,1.2,3.9,1.8l0,0V128h1.5L402.5,139.6
		L402.5,139.6z M397.2,139.3c2.1,0,3.1-1.1,3.7-1.8v-6.6c-0.6-0.7-1.5-1.8-3.6-1.8c-2.2,0-4.2,1.6-4.2,5.1S394.9,139.3,397.2,139.3z
		"/>
	<path d="M417,131.2c-0.9-1.4-1.4-2.7-1.4-4.4c0-2.7,1.9-4.3,4.5-4.3c2.5,0,3.9,1.6,3.9,3.8c0,2.8-2.1,4.3-4.8,5.4
		c0.4,0.5,0.7,1,1.1,1.5l5.4,7.2h-2l-5-6.7c-0.4-0.5-0.7-0.9-1-1.4c-1.9,0.9-3.8,1.9-3.8,4c0,2,1.2,3,3.4,3c1.4,0,2.4-0.3,2.8-0.5
		l0.2,1.3c-0.5,0.3-1.6,0.6-3.1,0.6c-3,0-4.9-1.3-4.9-4.3C412.4,133.6,414.7,132.1,417,131.2z M418.4,130.6c2.5-1.1,4.1-2.1,4.1-4.2
		c0-1.4-0.8-2.5-2.5-2.5s-2.9,1.1-2.9,2.9C417.1,128.1,417.5,129.3,418.4,130.6z"/>
	<path d="M446.2,124.1h-9.5v7.3h8.7v1.4h-8.7v7.5h-1.6v-17.6h11.1V124.1z"/>
	<path d="M450.2,125.6h-1.6v-2h1.6V125.6z M450.2,140.4h-1.5V128h1.5V140.4z"/>
	<path d="M455.7,140.4h-1.6v-18.1h1.6V140.4z"/>
	<path d="M464.3,127.7c3.2,0,5,2,5,6v0.9h-9c0.2,3.1,1.6,4.7,4.5,4.7c2.2,0,3.4-1,3.8-1.4l0.6,1.1c-0.5,0.5-1.9,1.6-4.7,1.6
		c-3.6,0-5.8-2.1-5.8-6.6C458.8,130,461.2,127.7,464.3,127.7z M460.3,133.2h7.5c0-2.7-1.2-4.2-3.6-4.2
		C462.1,129.1,460.5,130.5,460.3,133.2z"/>
	<path d="M488.8,125.3c-0.7-0.5-2.2-1.5-4.6-1.5c-2.5,0-4.3,0.9-4.3,2.8c0,2.1,1.7,2.8,5.1,4c3.4,1.1,5.3,2.5,5.3,5.2
		c0,3-2.3,4.8-6.2,4.8c-3.3,0-5-1.2-5.9-1.8l0.6-1.4c0.7,0.5,2.4,1.7,5.3,1.7c2.8,0,4.6-1.1,4.6-3.2c0-2-1.5-3-4.8-4.1
		s-5.5-2.2-5.5-5.1c0-2.8,2.4-4.3,5.9-4.3c3,0,4.4,1,5.3,1.6L488.8,125.3z"/>
	<path d="M494.7,129.4L494.7,129.4c0.6-0.6,1.9-1.7,4.2-1.7c2.8,0,4.5,1.6,4.5,5.2v7.5h-1.5v-7.3c0-2.9-1.1-4-3.4-4
		c-1.8,0-3.1,1-3.8,1.8v9.6h-1.6v-18.1h1.6L494.7,129.4L494.7,129.4z"/>
	<path d="M511.9,133.4c1.1,0,2,0.1,2.5,0.1v-0.6c0-2.6-0.9-3.8-3.2-3.8c-2,0-3.1,1-3.7,1.6l-0.7-1c0.7-0.8,2.1-2,4.6-2
		c3.2,0,4.6,1.8,4.6,5.2v7.5h-1.5v-1.5h-0.1c-0.4,0.6-1.5,1.8-4,1.8c-2.6,0-3.9-1.5-3.9-3.6C506.6,134.6,508.5,133.4,511.9,133.4z
		 M510.7,139.3c2.2,0,3.2-1,3.7-1.7v-2.9c-0.5,0-1.3-0.1-2.4-0.1c-2.6,0-3.9,0.8-3.9,2.4C508.1,138.4,509,139.3,510.7,139.3z"/>
	<path d="M525.1,129.2h-0.4c-1.8,0-3,0.9-3.5,2.4v8.8h-1.6V128h1.5v2.1h0.1c0.5-1.1,1.5-2.3,4-2.3L525.1,129.2L525.1,129.2z"/>
	<path d="M529.1,125.6h-1.6v-2h1.6V125.6z M529.1,140.4h-1.5V128h1.5V140.4z"/>
	<path d="M534.4,129.5L534.4,129.5c0.6-0.6,1.9-1.8,4.3-1.8c2.9,0,4.5,1.5,4.5,5.1v7.6h-1.5v-7.3c0-2.9-1.1-4-3.4-4
		c-1.8,0-3.1,1-3.8,1.8v9.6h-1.6V128h1.5V129.5z"/>
	<path d="M557,139.6c0,4.1-1.8,6.2-5.9,6.2c-2.8,0-4.1-1.3-4.8-1.9l0.7-1.3c0.5,0.6,1.7,1.8,4.1,1.8c3.2,0,4.3-1.5,4.3-4.5V139l0,0
		c-0.4,0.5-1.5,1.6-4.1,1.6c-3,0-5.3-2-5.3-6.4c0-4.5,2.7-6.6,5.5-6.6c2.5,0,3.4,1.2,3.9,1.8l0,0V128h1.5L557,139.6L557,139.6z
		 M551.8,139.3c2.1,0,3.1-1.1,3.7-1.8v-6.6c-0.6-0.7-1.5-1.8-3.6-1.8c-2.2,0-4.2,1.6-4.2,5.1S549.4,139.3,551.8,139.3z"/>
</g>
</svg>
