<?xml version="1.0" encoding="utf-8"?>
<!-- Generator: Adobe Illustrator 23.0.1, SVG Export Plug-In . SVG Version: 6.00 Build 0)  -->
<svg version="1.1" id="Wind" xmlns="http://www.w3.org/2000/svg" xmlns:xlink="http://www.w3.org/1999/xlink" x="0px" y="0px"
	 viewBox="0 0 83.2 100.4" style="enable-background:new 0 0 83.2 100.4;" xml:space="preserve">
<style type="text/css">
	.st0{fill-rule:evenodd;clip-rule:evenodd;fill:#FFFFFF;}
	.st1{fill:#0097C0;}
	.st2{fill-rule:evenodd;clip-rule:evenodd;fill:#0097C0;}
</style>
<path class="st0" d="M12.3,96.7c1.6-10.9,8-47.9,26.9-61.7l1.2,1.7C19,52.4,15.3,99.9,15.3,100C14.3,99.9,12,99.2,12.3,96.7
	L12.3,96.7z"/>
<path class="st1" d="M41.9,0c-19.3,0-35,15.7-35,35c0,11.4,5.5,21.5,13.9,27.9c3.5-9.3,8.3-18.5,14.8-24.8c-0.1-0.1-0.1-0.3-0.2-0.4
	c-4.2,1.9-9.1,4.9-12.1,6.8c0.3,0.6,0.5,1.3,0.4,2c-0.3,1.7-1.9,2.9-3.6,2.7c-1.7-0.3-2.9-1.9-2.7-3.6c0.3-1.7,1.9-2.9,3.6-2.7
	c0.9,0.1,1.6,0.6,2.1,1.2c3-1.9,8-5,12.2-6.8c-0.1-0.3-0.1-0.7-0.1-1c0-0.3,0-0.6,0-0.9c0-0.2,0.1-0.4,0.2-0.6
	c-4-0.7-8.6-1.4-11.6-1.8c-0.3,1.7-1.9,2.8-3.6,2.6c-1.8-0.3-3-1.9-2.7-3.7c0.3-1.8,1.9-3,3.7-2.7c1.7,0.3,2.8,1.8,2.7,3.4
	c3,0.4,7.6,1.1,11.7,1.8c0.4-0.9,1.1-1.7,1.9-2.2c-3.7-3.1-6.7-7.6-8.5-10.6c-0.6,0.3-1.3,0.4-2,0.3c-1.9-0.3-3.1-2-2.9-3.9
	c0.3-1.9,2-3.1,3.9-2.9c1.9,0.3,3.1,2,2.9,3.9c-0.2,1-0.7,1.8-1.5,2.3c1.8,3,4.9,7.6,8.6,10.6c0.8-0.4,1.6-0.5,2.5-0.4
	c1-6.4,2-10.2,2.9-12.4c-1-0.7-1.6-1.9-1.4-3.1c0.3-1.7,1.9-2.9,3.6-2.7c1.7,0.3,2.9,1.9,2.7,3.6c-0.3,1.7-1.9,2.9-3.6,2.7
	c-0.3,0-0.6-0.2-0.9-0.3c-0.8,2.1-1.9,5.8-2.8,12.2c0.1,0,0.1,0,0.2,0.1c0.2,0,0.3,0.1,0.4,0.1c0.1,0,0.2,0.1,0.3,0.1
	c0.2,0.1,0.4,0.2,0.6,0.3c0,0,0.1,0.1,0.1,0.1c0.3,0.2,0.6,0.4,0.8,0.6c0,0,0,0,0,0c0,0,0.1,0.1,0.1,0.1c4-5,9.9-12.3,11.4-14.1
	c-0.8-0.7-1.2-1.7-1.1-2.8c0.3-1.7,1.8-2.8,3.5-2.6c1.7,0.3,2.8,1.8,2.6,3.5c-0.3,1.7-1.8,2.8-3.5,2.6c-0.4-0.1-0.8-0.2-1.2-0.4
	c-1.4,1.8-7.4,9.1-11.4,14.2c0.1,0.2,0.3,0.4,0.4,0.6c2.3-1.4,8.2-4.8,14.5-6.9c-0.1-0.4-0.1-0.8-0.1-1.3c0.3-1.8,2-3.1,3.8-2.8
	c1.8,0.3,3.1,2,2.8,3.8c-0.3,1.8-2,3.1-3.8,2.8c-1.2-0.2-2.2-1-2.6-2.1c-6.3,2.2-12.2,5.5-14.5,6.9c0.1,0.3,0.2,0.7,0.3,1.1
	c1.9-0.2,12.1-0.9,20.1,0.4c0.5-1.6,2-2.7,3.8-2.4c1.8,0.3,3.1,2,2.8,3.9c-0.3,1.8-2,3.1-3.9,2.8c-1.8-0.3-3.1-2-2.8-3.9
	c0,0,0,0,0,0c-8-1.3-18.1-0.6-20-0.4c0,0.4,0,0.7,0,1.1c-0.1,0.7-0.4,1.3-0.7,1.9c3.1,1.5,6.2,3.7,8.5,5.6c1-1,2.4-1.6,4-1.4
	c2.5,0.4,4.2,2.7,3.8,5.2c-0.4,2.5-2.7,4.2-5.2,3.8c-2.5-0.4-4.2-2.7-3.8-5.2c0.1-0.8,0.5-1.5,0.9-2.1c-2.3-1.8-5.4-4.1-8.5-5.6
	c-0.8,1-2.1,1.7-3.4,1.8c0,3.3,0.3,7.3,0.5,10.1c0.2,0,0.4,0,0.6,0c1.8,0.3,3,2,2.8,3.8c-0.3,1.8-2,3-3.8,2.8c-1.8-0.3-3-2-2.8-3.8
	c0.2-1.4,1.4-2.5,2.7-2.7c-0.3-2.8-0.6-6.9-0.5-10.2c-0.2,0-0.3,0-0.5,0c-0.9-0.1-1.7-0.5-2.3-1.1C30.5,46,26,55.1,22.8,64.3
	c5.5,3.6,12,5.7,19.1,5.7c19.3,0,35-15.7,35-35S61.2,0,41.9,0z M15.8,38.6c-0.1,1-1,1.6-2,1.5c-1-0.1-1.6-1-1.5-2c0.1-1,1-1.6,2-1.5
	C15.3,36.8,15.9,37.7,15.8,38.6z M20.9,15.5c-0.1,0.8-0.9,1.3-1.6,1.2c-0.8-0.1-1.3-0.9-1.2-1.6c0.1-0.8,0.9-1.3,1.6-1.2
	C20.5,14,21,14.8,20.9,15.5z M33.4,9c-0.6-0.1-1-0.7-0.9-1.3c0.1-0.6,0.7-1,1.3-0.9c0.6,0.1,1,0.7,0.9,1.3C34.6,8.7,34,9.1,33.4,9z
	 M38.1,14.1c-0.1,0.7-0.8,1.2-1.5,1.1c-0.7-0.1-1.2-0.8-1.1-1.5c0.1-0.7,0.8-1.2,1.5-1.1C37.7,12.7,38.2,13.4,38.1,14.1z M49.5,7.1
	c-0.2,1.1-1.2,1.8-2.2,1.6c-1.1-0.2-1.8-1.2-1.6-2.2s1.2-1.8,2.2-1.6C48.9,5,49.7,6,49.5,7.1z M34.1,56.6c-0.1,0.9-1,1.5-1.9,1.4
	c-0.9-0.1-1.5-1-1.4-1.9c0.1-0.9,1-1.5,1.9-1.4C33.6,54.9,34.2,55.7,34.1,56.6z M41.7,65.8c-0.6-0.1-1-0.7-0.9-1.3
	c0.1-0.6,0.7-1,1.3-0.9c0.6,0.1,1,0.7,0.9,1.3C42.9,65.5,42.3,65.9,41.7,65.8z M45.8,45c-0.1,0.7-0.8,1.2-1.5,1.1
	c-0.7-0.1-1.2-0.8-1.1-1.5c0.1-0.7,0.8-1.2,1.5-1.1C45.4,43.6,45.9,44.3,45.8,45z M57.3,59.1c-0.2,1.3-1.4,2.2-2.7,2
	c-1.3-0.2-2.2-1.4-2-2.7c0.2-1.3,1.4-2.2,2.7-2C56.6,56.6,57.5,57.8,57.3,59.1z M65,51.4c-0.1,0.7-0.8,1.2-1.5,1.1
	c-0.7-0.1-1.2-0.8-1.1-1.5c0.1-0.7,0.8-1.2,1.5-1.1C64.6,50,65.1,50.7,65,51.4z M70.3,31.3c-0.6,0-1.2-0.5-1.2-1.2
	c0-0.6,0.5-1.2,1.2-1.2c0.6,0,1.2,0.5,1.2,1.2C71.4,30.8,70.9,31.3,70.3,31.3z"/>
<path class="st2" d="M20.8,62.9c-5.1,13.7-7.5,27.7-8.4,33.8c-0.4,2.5,2,3.2,2.9,3.3c0-0.1,1.4-18.1,7.5-35.7
	C22.1,63.9,21.4,63.4,20.8,62.9z"/>
</svg>
