<?xml version="1.0" encoding="utf-8"?>
<!-- Generator: Adobe Illustrator 23.0.1, SVG Export Plug-In . SVG Version: 6.00 Build 0)  -->
<svg version="1.1" id="Wind" xmlns="http://www.w3.org/2000/svg" xmlns:xlink="http://www.w3.org/1999/xlink" x="0px" y="0px"
	 viewBox="0 0 602.7 100.4" style="enable-background:new 0 0 602.7 100.4;" xml:space="preserve">
<style type="text/css">
	.st0{fill:#FFFFFF;}
</style>
<g>
	<path class="st0" d="M81.5,2H16.1C7.8,2,1,8.8,1,17.1v65.4c0,8.4,6.8,15.1,15.1,15.1h65.4c8.4,0,15.1-6.7,15.1-15.1V17.1
		C96.6,8.8,89.9,2,81.5,2z M36.4,23.3c1.5-3,4.3-4.6,7.9-4.6c3.6,0,6.4,1.6,7.9,4.6c1.1,2.1,1.1,4.2,1.1,4.4c0,1-0.8,1.8-1.8,1.8
		s-1.8-0.8-1.8-1.8c0,0-0.1-1.5-0.8-2.9c-0.9-1.7-2.4-2.5-4.6-2.5c-2.3,0-3.8,0.9-4.7,2.6c-0.7,1.4-0.7,2.8-0.7,2.8s0.1,1.5,0.8,2.9
		c0.9,1.7,2.4,2.5,4.6,2.5h25.1c1,0,1.8,0.8,1.8,1.8s-0.8,1.8-1.8,1.8H44.3c-3.6,0-6.4-1.6-7.9-4.6c-1.1-2.1-1.1-4.2-1.1-4.4
		S35.3,25.4,36.4,23.3z M28.1,36.7c1,0,1.8,0.8,1.8,1.8c0,2.5,1,5.4,5.4,5.4H82c1,0,1.8,0.8,1.8,1.8S83,47.5,82,47.5H35.3
		c-6.6,0-9-4.6-9-9C26.3,37.5,27.1,36.7,28.1,36.7z M74.8,65.5H31.7c-2.2,0-3.7,0.8-4.6,2.5c-0.7,1.4-0.8,2.9-0.8,2.9s0,1.5,0.8,2.9
		c0.9,1.7,2.4,2.5,4.6,2.5s3.7-0.8,4.6-2.5c0.7-1.4,0.8-2.9,0.8-2.9c0-1,0.8-1.8,1.8-1.8s1.8,0.8,1.8,1.8c0,0.2,0,2.3-1.1,4.4
		c-1.5,3-4.3,4.6-7.9,4.6c-3.6,0-6.4-1.6-7.9-4.6c-1.1-2.1-1.1-4.2-1.1-4.4c0-0.2,0-2.3,1.1-4.4c1.5-3,4.3-4.6,7.9-4.6h43.1
		c1,0,1.8,0.8,1.8,1.8S75.8,65.5,74.8,65.5z M89.1,56.5H20.9c-4.5,0-5.4,2.9-5.4,5.4c0,1-0.8,1.8-1.8,1.8c-0.9,0-1.7-0.8-1.8-1.8
		c0-4.4,2.4-9,9-9h68.2c1,0,1.8,0.8,1.8,1.8S90.1,56.5,89.1,56.5z"/>
	<g>
		<path class="st0" d="M135.2,66.7l-9.3,26.9h-3l31.4-90.3h3.6l31.6,90.3h-3.3l-9.3-26.9H135.2z M156,5.7l-19.9,58.2H176L156,5.7z"
			/>
		<path class="st0" d="M209.3,93.6V3.3h3v90.3C212.3,93.6,209.3,93.6,209.3,93.6z"/>
		<path class="st0" d="M247.9,50.7v43h-3V3.3h19.8c21.1,0,29.7,8.6,29.7,23.5c0,14.7-9,21.2-21.1,23.5l25.3,43.4h-3.8l-24.7-43
			C270.1,50.7,247.9,50.7,247.9,50.7z M266.6,47.9c14.7,0,24.7-6.4,24.7-21.1c0-13-7-20.7-27.1-20.7h-16.3v41.8H266.6z"/>
		<path class="st0" d="M363.4,11.1l-2,2.3c-6.2-5.8-12.5-8.6-21.9-8.6c-13.1,0-21.5,7.6-21.5,18c0,11,6,15.5,22.7,20.7
			c17.6,5.4,25.5,11.3,25.5,26c0,15.1-11.3,25.5-27.6,25.5c-11.9,0-19.9-4.4-27.1-10.9l2-2c6.5,6,13.5,9.9,24.9,9.9
			c14.9,0,24.8-8.8,24.8-22.4c0-13.3-6.8-18.2-23.6-23.5C321.4,40.5,315,34.9,315,22.8C315,11,324.7,2,339.5,2
			C350.5,2,357,5.6,363.4,11.1z"/>
		<path class="st0" d="M394.8,6.1v38.5h33.7v2.8h-33.7v43.5h40.4v2.8h-43.5V3.3h42.6l-0.4,2.8H394.8z"/>
		<path class="st0" d="M508.6,93.6l-48.8-87c0.3,4.6,0.4,10.6,0.4,23.7v63.3h-2.9V3.3h3.8l48.7,86.9c-0.1-5.3-0.4-13.4-0.4-23.7V3.3
			h2.9v90.3C512.3,93.6,508.6,93.6,508.6,93.6z"/>
		<path class="st0" d="M561.1,3.3c19.2,0,39.4,7.2,39.4,44.2c0,37.8-21,46.1-38.9,46.1h-16.7V3.3H561.1z M548,90.8h13.8
			c17.2,0,35.5-8.1,35.5-43.4c0-35.7-18.8-41.4-36.5-41.4H548V90.8z"/>
	</g>
</g>
</svg>
