
<svg width="2773px" height="800px" viewBox="0 0 2773 800" version="1.1" xmlns="http://www.w3.org/2000/svg" xmlns:xlink="http://www.w3.org/1999/xlink">
    <defs>
        <polygon id="path-1" points="0.116294389 0.0655357143 241.570293 0.0655357143 241.570293 253.795364 0.116294389 253.795364"></polygon>
    </defs>
    <g id="Page-1" stroke="none" stroke-width="1" fill="none" fill-rule="evenodd">
        <g id="Login" transform="translate(0.000000, -79.000000)">
            <g id="Group-324" transform="translate(0.000000, 79.000000)">
                <path d="M2772,800 L2772,721.277033 C2490.76095,733.247323 2421.34463,781.015227 2265.1971,736.268665 C1925.00613,638.780127 1545.27937,695.498805 1426.52808,712.839559 C1207.0548,744.886982 893.123195,765.068236 715.875583,748.779655 C524.899615,731.228832 341.920464,636.308618 0,690.559439 L0,800 L2772,800 Z" id="Fill-1" fill="#2793B1"></path>
                <path d="M2164.87986,12.2150815 C2096.21312,8.38281734 2037.69001,56.2205487 2034.1664,119.063124 C2030.6446,181.903879 2083.45324,235.954468 2152.1218,239.784911 C2220.78855,243.617175 2279.31165,195.781265 2282.83344,132.938689 C2286.35706,70.0961137 2233.5466,16.0473457 2164.87986,12.2150815" id="Fill-3" fill="#FEFEFE"></path>
                <path d="M2198.4377,18.0340786 C2200.02158,19.06521 2201.10787,19.702139 2203.16017,20.4266685 C2203.43721,20.5233941 2203.85641,20.669395 2204.37404,20.8500711 C2204.63104,20.9413217 2204.91719,21.0398723 2205.22157,21.1475479 L2206.10738,21.4614499 L2207.97194,22.2024045 C2209.22045,22.6969825 2210.47807,23.1970356 2211.74845,23.6989138 C2214.29285,24.6789448 2216.77711,25.9163025 2219.34886,27.0368594 C2221.8878,28.2267668 2224.40304,29.5626751 2226.97114,30.8657332 C2229.45176,32.3275672 2232.05084,33.6580005 2234.5187,35.2731355 C2239.55283,38.3482796 2244.41017,41.9362518 2249.16544,45.8089258 C2253.82958,49.7965755 2258.33332,54.1382774 2262.4853,58.9289321 C2270.66166,68.585067 2277.54031,79.8964871 2281.89642,92.3996396 C2286.33819,104.857167 2288.51625,118.2856 2288.56728,131.728633 C2288.58733,145.177142 2286.5642,158.6439 2282.877,171.426279 C2279.14059,184.177634 2272.46243,195.843106 2263.84681,205.311265 C2255.24759,214.823223 2244.87859,222.168894 2234.17604,227.581878 C2223.45162,233.013111 2212.39184,236.581008 2201.78772,238.924323 C2191.15625,241.212887 2180.95311,242.262269 2171.57927,242.51412 C2152.78785,243.003223 2137.42845,240.347832 2126.9993,237.884066 C2121.78837,236.581008 2117.74758,235.433076 2115.04096,234.518746 C2112.31429,233.662815 2110.89992,233.126262 2110.89992,233.126262 C2110.89992,233.126262 2109.4655,232.646284 2106.8008,231.620628 C2104.14703,230.569421 2100.22653,229.049187 2095.40747,226.678497 C2090.58294,224.329707 2084.81429,221.210763 2078.57539,216.974912 C2072.32191,212.770086 2065.67474,207.331552 2059.23535,200.52791 C2056.0676,197.080463 2052.95817,193.29904 2050.04195,189.143489 C2047.14759,184.973338 2044.50294,180.408985 2042.16632,175.514305 C2039.84792,170.610499 2037.79745,165.394617 2036.38672,159.806432 C2035.61757,157.03424 2034.8393,154.225548 2034.05374,151.38583 C2033.4869,148.496837 2032.91642,145.573169 2032.33682,142.622126 C2030.33738,130.777803 2029.65207,118.135949 2031.54579,105.44117 C2033.39212,92.7628169 2037.91592,80.1556387 2044.97318,68.8989689 C2051.94296,57.5656487 2061.5501,47.8237383 2072.32008,39.8301887 C2083.09918,31.8147391 2095.06846,25.4527496 2107.46424,20.8226959 C2119.85273,16.1871672 2132.58023,12.8857217 2145.18197,11.4330127 C2146.75855,11.2559866 2148.32602,11.0789605 2149.88985,10.9019344 C2151.45914,10.8052088 2153.02297,10.7066582 2154.58132,10.6099326 L2156.91066,10.4712318 L2159.23453,10.4566317 C2160.78195,10.4602817 2162.3239,10.4018813 2163.85127,10.4566317 C2166.90967,10.6099326 2169.94436,10.7322084 2172.91162,11.1738611 L2175.13889,11.4494378 L2177.32059,11.8892655 L2179.48953,12.3272683 C2179.85224,12.4002687 2180.21494,12.4586691 2180.56124,12.5791198 L2180.86562,12.6721954 C2182.22714,13.0809979 2183.34442,13.414975 2183.90214,13.582876 C2185.94715,14.2362301 2187.08447,14.6213075 2188.98367,14.9023592 C2187.50186,13.8128275 2186.46842,12.931347 2184.35963,12.2341927 C2183.7855,12.0608166 2182.63541,11.7104144 2181.2338,11.2851868 L2180.91848,11.1902862 C2180.55942,11.0680105 2180.1876,11.0077851 2179.81943,10.9311346 L2177.59763,10.4821818 L2175.3649,10.033229 L2173.09935,9.7521773 C2170.07195,9.30139951 2166.99533,9.17729874 2163.89137,9.02399779 C2162.34031,8.96924745 2160.78195,9.0258228 2159.21448,9.02217278 L2156.86145,9.03859788 L2154.50477,9.17729874 C2152.93183,9.27584935 2151.3516,9.37439996 2149.76408,9.47477558 C2148.18568,9.65180168 2146.6018,9.83065279 2145.01064,10.0095039 C2132.28496,11.476813 2119.45539,14.8056336 2106.95755,19.4813126 C2094.45059,24.1533416 2082.36648,30.5737314 2071.46527,38.6804316 C2060.57499,46.7634067 2050.83844,56.6330679 2043.76295,68.1361142 C2036.59815,79.55886 2032.0051,92.3704394 2030.13142,105.229469 C2028.21036,118.104924 2028.90843,130.901903 2030.92974,142.864852 C2031.51298,145.846921 2032.09076,148.797964 2032.66489,151.716157 C2033.45592,154.5796 2034.24148,157.412018 2035.0161,160.207935 C2036.43593,165.830795 2038.5265,171.158003 2040.87771,176.125684 C2043.24714,181.095189 2045.93554,185.728893 2048.86999,189.959269 C2051.82813,194.17322 2054.98313,198.009394 2058.19462,201.502466 C2064.72149,208.399184 2071.45068,213.901593 2077.77525,218.153869 C2084.08705,222.437171 2089.91586,225.588965 2094.78777,227.96148 C2099.65605,230.35407 2103.613,231.888904 2106.28864,232.949236 C2108.97885,233.985842 2110.42785,234.46947 2110.42785,234.46947 C2110.42785,234.46947 2111.85498,235.011499 2114.60535,235.874729 C2117.33566,236.79636 2121.41291,237.955242 2126.66758,239.26925 C2137.18786,241.754915 2152.6712,244.432207 2171.61572,243.941279 C2181.06976,243.687602 2191.35857,242.629096 2202.09028,240.320457 C2212.79647,237.955242 2223.96743,234.35267 2234.82126,228.85756 C2245.65321,223.378877 2256.16985,215.93648 2264.90576,206.27487 C2273.65991,196.657061 2280.45471,184.787187 2284.24945,171.833257 C2287.97675,158.903052 2290.01811,145.326793 2289.99988,131.724983 C2289.94885,118.134124 2287.74527,104.539615 2283.24517,91.9160116 C2278.83074,79.2486081 2271.85731,67.774762 2263.56977,57.9945263 C2259.36676,53.1399963 2254.80469,48.743544 2250.08405,44.708444 C2245.27228,40.7901447 2240.36026,37.1620222 2235.27509,34.055853 C2232.78172,32.4242928 2230.1553,31.0774345 2227.64917,29.6028254 C2225.05737,28.2888172 2222.52025,26.9419589 2219.95762,25.7392764 C2217.364,24.6095944 2214.8597,23.3612867 2212.29342,22.3739555 C2211.01392,21.8666024 2209.74537,21.3647243 2208.48774,20.8646712 L2206.60496,20.1200666 L2205.71186,19.8006896 C2205.40566,19.6948389 2205.1195,19.5962883 2204.85704,19.5068628 C2204.33577,19.3261866 2203.91474,19.1801857 2203.63405,19.0852852 C2201.55806,18.3753558 2200.30044,18.2001547 2198.4377,18.0340786" id="Fill-5" fill="#A1CB3A"></path>
                <g id="Group-9" transform="translate(2035.000000, 0.000000)">
                    <mask id="mask-2" fill="white">
                        <use xlink:href="#path-1"></use>
                    </mask>
                    <g id="Clip-8"></g>
                    <path d="M209.642337,60.0105714 C210.666958,61.6225357 211.465506,62.5132143 212.860231,64.1616071 C213.053487,64.3783571 213.347018,64.7043929 213.709828,65.1069286 C213.888499,65.3109286 214.098164,65.5222143 214.298712,65.77175 C214.904005,66.5458571 215.512943,67.32725 216.127352,68.1141071 C216.993357,69.1559643 217.70257,70.33625 218.501119,71.45825 C219.308783,72.5766071 220.010704,73.77875 220.741795,74.9754286 C221.483825,76.1648214 222.203977,77.3778929 222.860318,78.6419643 C225.633359,83.6108214 228.063645,88.9530714 230.19493,94.5485 C231.323473,97.3243571 232.225942,100.216786 233.219569,103.111036 C234.061874,106.052643 235.020861,108.99425 235.711842,112.036036 C237.277945,118.075893 238.382786,124.34525 239.166749,130.733 C240.0127,137.122571 240.191371,143.666964 240.125737,150.258714 C239.930657,156.852286 239.223268,163.493214 237.979866,170.088607 C235.297983,183.208357 230.297028,196.162357 222.406349,207.291286 C218.636033,212.972321 213.95778,217.983071 209.124556,222.753393 C204.063437,227.294214 198.774421,231.589143 193.018674,235.133643 C181.623862,242.381107 169.220837,247.850857 156.444063,250.395393 C143.689167,253.009143 130.782947,252.896214 118.773727,250.8125 C106.740806,248.743357 95.597592,244.779929 85.6795479,239.953143 C75.7560343,235.111786 66.9574165,229.485393 59.5170603,223.531143 C58.5763047,222.80075 57.6209637,222.108607 56.7239641,221.367286 C55.843373,220.604107 54.973721,219.850036 54.1131848,219.105071 C52.4103442,217.59875 50.6856255,216.19625 49.1176994,214.709964 C46.0693594,211.646321 43.0046109,208.925107 40.5105145,206.005357 C39.2233566,204.584643 37.9799547,203.211286 36.7803089,201.887107 C35.5879558,200.555643 34.5633344,199.167714 33.5150117,197.894536 C32.4794512,196.606786 31.4876468,195.371857 30.5432448,194.195214 C29.6134282,193.004 28.8239957,191.798214 28.0236241,190.694429 C26.477576,188.446786 24.9734609,186.528821 23.890498,184.714679 C22.7801875,182.920571 21.8357856,181.397857 21.0718774,180.162929 C19.5057745,177.720393 18.8184394,176.343393 18.8184394,176.343393 C18.8184394,176.343393 18.094641,174.98825 16.7272636,172.430964 C15.2577887,169.922857 13.5567712,166.010429 11.3015101,161.045214 C10.2841813,158.517071 9.27049885,155.666536 8.09820063,152.582857 C7.06628648,149.451821 6.08542109,146.011143 5.04621427,142.330036 C4.64329373,140.459429 4.22578783,138.526893 3.79551974,136.53425 C3.58767838,135.536107 3.34155045,134.530679 3.15923346,133.49975 C3.02067255,132.459714 2.8784653,131.405107 2.73443488,130.33775 C2.47736793,128.197571 2.07262422,126.011857 1.91400844,123.751464 C1.79732557,121.483786 1.67699636,119.163286 1.55119764,116.789964 C1.42175258,107.294857 2.46642891,96.8999643 5.56034817,86.3211071 C6.45734775,83.7201071 7.17749984,81.008 8.25134689,78.3869643 C9.39265123,75.7914286 10.5485409,73.1612857 11.719016,70.4965357 C14.5467524,65.3874286 17.1593549,59.9796071 20.5996764,54.9215 C27.1357404,44.6267857 35.1485719,34.5797857 45.0629696,26.1101429 C54.9354345,17.6241071 66.7112886,10.8520357 79.5500508,6.68096429 C92.366935,2.38057143 106.192032,1.00539286 119.811111,1.64471429 C133.468476,2.21846429 146.943525,5.03439286 159.787757,9.03242857 C172.661159,12.9995 184.88369,18.3399286 196.300379,24.3615714 C199.180988,25.8187143 201.928505,27.4762143 204.708839,29.0153214 C207.419892,30.6782857 210.160117,32.2410714 212.76178,33.9768929 C215.4072,35.6416786 217.948698,37.4102857 220.464673,39.1588571 C221.72266,40.0349643 222.927775,40.9657143 224.152945,41.8600357 L225.968823,43.217 L227.108304,44.12225 C228.2332,45.01475 229.157547,45.7451429 229.620632,46.11125 C231.292479,47.4955357 232.373618,48.1239286 234.06552,48.9690714 C232.978911,47.4463571 232.200417,46.43 230.523101,45.0129286 C230.058193,44.6413571 229.128376,43.9018571 227.992541,42.9984286 L226.843944,42.0840714 L225.011658,40.7143571 C223.777372,39.8145714 222.561318,38.8747143 221.294215,37.9931429 C218.760009,36.23 216.200279,34.4504643 213.536627,32.7729286 C210.918555,31.0261786 208.161923,29.4524643 205.432637,27.7803929 C202.634072,26.2303571 199.870146,24.56375 196.971306,23.0956786 C185.481689,17.0357857 173.184409,11.6643929 160.216201,7.66635714 C147.275342,3.63917857 133.68361,0.79775 119.878568,0.214892857 C106.113636,-0.431714286 92.109868,0.961678571 79.1070205,5.32035714 C66.0841182,9.55153571 54.1314165,16.4274286 44.133153,25.0245714 C34.0893102,33.6071429 25.9926129,43.7670714 19.3945611,54.1546786 C15.9232457,59.2637857 13.2905884,64.7080357 10.4409739,69.8608571 C9.25409032,72.5638571 8.07996893,75.23225 6.92407923,77.8660357 C5.83382365,80.5253214 5.10090937,83.2775 4.19297077,85.9185714 C1.0516491,96.6540714 -0.00578942431,107.200143 0.127301976,116.820929 C0.251277527,119.225214 0.375253077,121.576679 0.495582289,123.8735 C0.656021237,126.163036 1.06258812,128.376071 1.32330141,130.54175 C1.469155,131.621857 1.61318542,132.689214 1.75721584,133.742 C1.93953282,134.7875 2.18930709,135.803857 2.39897163,136.81475 C2.83288606,138.82925 3.25586146,140.783643 3.66425151,142.676107 C4.71439736,146.399107 5.70802493,149.879857 6.75270127,153.041857 C7.93229217,156.160143 8.96238314,159.039821 9.98700461,161.593464 C12.2641438,166.607857 13.9870393,170.558536 15.46563,173.090321 C16.8475928,175.671286 17.5786839,177.039179 17.5786839,177.039179 C17.5786839,177.039179 18.2733116,178.43075 19.8539999,180.896964 C20.6233776,182.141 21.5768954,183.678286 22.6981449,185.490607 C23.7902237,187.321143 25.307101,189.2555 26.8659112,191.523179 C27.6735755,192.637893 28.4721239,193.852786 29.4092332,195.054929 C30.362751,196.2425 31.3636713,197.488357 32.4047013,198.787036 C33.463963,200.072964 34.4995234,201.471821 35.7009924,202.814214 C36.9115772,204.151143 38.165918,205.535429 39.464015,206.970714 C41.9781662,209.915964 45.0702623,212.662679 48.147773,215.75 C49.7284613,217.249036 51.4677654,218.666107 53.1870146,220.185179 C54.0530202,220.937429 54.9317881,221.698786 55.8196718,222.46925 C56.7257873,223.216036 57.688421,223.915464 58.6382925,224.653143 C66.1479291,230.660214 75.0285895,236.343071 85.0542006,241.235429 C95.0743422,246.111393 106.343355,250.122179 118.531246,252.220464 C130.693612,254.329679 143.785795,254.448071 156.730301,251.79425 C169.700331,249.211464 182.280203,243.65975 193.789875,236.337607 C199.613079,232.749393 204.976845,228.401643 210.105422,223.79525 C215.007925,218.959357 219.753637,213.873929 223.582293,208.105464 C231.595125,196.807143 236.67083,183.654607 239.383707,170.363643 C240.64534,163.684464 241.360023,156.963393 241.556925,150.295143 C241.626205,143.630536 241.443888,137.016929 240.590645,130.563607 C239.797566,124.112107 238.681786,117.784464 237.102921,111.689964 C236.402824,108.619036 235.434721,105.648286 234.586947,102.679357 C233.584203,99.7577857 232.670795,96.8380357 231.531314,94.0348571 C229.379973,88.3829643 226.924164,82.9860714 224.112836,77.9516429 C223.447379,76.673 222.718111,75.4417143 221.965142,74.2341071 C221.226758,73.0192143 220.510252,71.8006786 219.689826,70.6586429 C218.874869,69.5147857 218.15654,68.3199286 217.268656,67.25075 C216.639662,66.4456786 216.016138,65.6478929 215.396261,64.8555714 C215.192066,64.6005714 214.975108,64.382 214.790968,64.1725357 C214.413572,63.7590714 214.110926,63.42575 213.910377,63.2035357 C212.46278,61.5278214 211.248549,60.9231071 209.642337,60.0105714" id="Fill-7" fill="#0097C0" mask="url(#mask-2)"></path>
                </g>
                <path d="M2151,115.890799 C2150.99073,115.792518 2139.82066,67.8496766 2122.15648,42 L2121,42.7589464 C2138.46772,68.3137805 2149.61185,115.901719 2149.61926,116 L2151,115.890799 Z" id="Fill-10" fill="#A1CB3A"></path>
                <path d="M2153.26928,118 C2153.27903,117.932643 2157.29966,94.7542358 2146.37594,64 L2145,64.452791 C2155.80288,94.8777243 2151.84072,117.709989 2151.83098,117.779218 L2153.26928,118 Z" id="Fill-12" fill="#0097C0"></path>
                <path d="M2143,130.66607 C2142.88959,130.658908 2104.25823,127.443151 2089.49315,122 L2089,123.249776 C2103.93621,128.753805 2142.77735,131.991047 2142.88591,132 L2143,130.66607 Z" id="Fill-14" fill="#0097C0"></path>
                <path d="M2095.27073,148 C2095.35475,147.981218 2125.06068,141.903408 2143,135.324121 L2142.51828,134 C2124.66672,140.549235 2095.08402,146.602629 2095,146.619533 L2095.27073,148 Z" id="Fill-16" fill="#0097C0"></path>
                <path d="M2154.02105,120.135347 C2153.92947,120.504157 2154.14495,120.885939 2154.50767,120.978605 C2154.86681,121.073124 2155.22953,120.845167 2155.32111,120.47821 C2155.34804,120.370718 2164.48259,83.6176548 2162.79107,51.6572604 C2162.77132,51.2717712 2162.4499,50.9789476 2162.08179,51.0011874 C2161.71008,51.0252804 2161.42637,51.3514636 2161.44792,51.731393 C2163.12866,83.4934827 2154.04798,120.027855 2154.02105,120.135347" id="Fill-18" fill="#0097C0"></path>
                <path d="M2097.63709,168 C2097.73816,167.94827 2134.23808,148.899037 2145,138.973956 L2144.07956,138 C2133.45661,147.796646 2097.10829,166.772743 2097,166.824474 L2097.63709,168 Z" id="Fill-20" fill="#A1CB3A"></path>
                <path d="M2142.35787,202 C2142.39753,201.865823 2156.43898,153.383783 2154.87903,132 L2153.47394,132.095578 C2155.01689,153.251444 2141.03966,201.500053 2141,201.63423 L2142.35787,202 Z" id="Fill-22" fill="#0097C0"></path>
                <path d="M2155.22959,193 C2155.23452,192.900546 2156.32932,156.693827 2157,135.044202 L2155.77041,135 C2155.09315,156.808015 2154.00493,192.843452 2154,192.94659 L2155.22959,193 Z" id="Fill-24" fill="#A1CB3A"></path>
                <path d="M2176,202.724037 C2175.96994,202.574177 2164.96759,150.844904 2157.33208,129 L2156,129.440444 C2163.60357,151.204934 2174.59089,202.85745 2174.62471,203 L2176,202.724037 Z" id="Fill-26" fill="#0097C0"></path>
                <path d="M2186,186.403649 C2185.94188,186.284016 2165.54756,143.910469 2154.14795,126 L2153,126.726859 C2164.35964,144.573886 2184.72127,186.88218 2184.78484,187 L2186,186.403649 Z" id="Fill-28" fill="#0097C0"></path>
                <path d="M2205,179.095346 C2204.94383,179.020889 2184.3013,154.183868 2151.87702,126 L2151,127.062875 C2183.3518,155.17787 2203.9146,179.925543 2203.9744,180 L2205,179.095346 Z" id="Fill-30" fill="#A1CB3A"></path>
                <path d="M2151,118.323469 C2150.93922,118.210104 2128.92731,79.139505 2119.09041,65 L2118,65.789896 C2127.81187,79.9019741 2149.77553,118.886635 2149.83809,119 L2151,118.323469 Z" id="Fill-32" fill="#0097C0"></path>
                <path d="M2100,92.2102764 C2100.07447,92.2487269 2126.7243,106.744579 2140.98101,123 L2142,122.093666 C2127.57073,105.645992 2100.71747,91.0421125 2100.64118,91 L2100,92.2102764 Z" id="Fill-34" fill="#0097C0"></path>
                <path d="M2113,110.279976 C2113.05625,110.306098 2133.75391,119.58686 2144.1599,128 L2145,126.906609 C2134.4543,118.383384 2113.60059,109.026122 2113.54616,109 L2113,110.279976 Z" id="Fill-36" fill="#A1CB3A"></path>
                <path d="M2221,149.636765 C2220.8877,149.620208 2180.89602,143.642947 2160.88931,126 L2160,127.041283 C2180.30375,144.945471 2220.69028,150.985282 2220.80982,151 L2221,149.636765 Z" id="Fill-38" fill="#0097C0"></path>
                <path d="M2202,135.572519 C2201.9165,135.572519 2173.43222,135.196565 2159.75856,125 L2159,126.171756 C2173.00942,136.618321 2201.88986,137 2201.97335,137 L2202,135.572519 Z" id="Fill-40" fill="#0097C0"></path>
                <path d="M2225.47396,111 C2225.36475,111.045403 2186.7981,127.238074 2151.02366,126.622404 L2151,127.98269 C2187.06567,128.603808 2225.89079,112.303986 2226,112.256766 L2225.47396,111 Z" id="Fill-42" fill="#A1CB3A"></path>
                <path d="M2209.70066,93 C2209.69156,93.0311704 2206.44321,103.915147 2156,127.764185 L2156.58416,129 C2207.56421,104.905266 2210.98726,93.4602221 2211,93.4272181 L2209.70066,93 Z" id="Fill-44" fill="#0097C0"></path>
                <path d="M2191.01683,87 C2190.94249,87.0738916 2165.31688,112.714286 2156,128.294335 L2157.19876,129 C2166.43015,113.565887 2191.92566,88.054803 2192,87.9827586 L2191.01683,87 Z" id="Fill-46" fill="#0097C0"></path>
                <path d="M2188.81367,66 C2188.73471,66.1261151 2162.38212,110.44117 2151,127.254119 L2152.14409,128 C2163.54824,111.151019 2189.92103,66.8089385 2190,66.6792201 L2188.81367,66 Z" id="Fill-48" fill="#A1CB3A"></path>
                <path d="M2169.07782,39.6537704 C2166.95387,35.4716986 2161.84003,33.7971273 2157.6566,35.9212713 C2153.46795,38.0419302 2151.79877,43.1579982 2153.92097,47.3452976 C2156.04491,51.529112 2161.15876,53.2019408 2165.34218,51.0795393 C2169.52909,48.9519102 2171.20351,43.8410699 2169.07782,39.6537704" id="Fill-50" fill="#0097C0"></path>
                <path d="M2195.24297,61.8320104 C2193.49252,58.3860324 2189.28199,57.0087328 2185.83204,58.7608325 C2182.38755,60.5056546 2181.0083,64.7212465 2182.76057,68.1654051 C2184.50738,71.6150219 2188.71973,72.9886826 2192.16604,71.2420412 C2195.61053,69.4917609 2196.98978,65.2816273 2195.24297,61.8320104" id="Fill-52" fill="#A1CB3A"></path>
                <path d="M2197.29532,84.5598804 C2195.67304,81.3601935 2191.76425,80.0803187 2188.559,81.7044873 C2185.35936,83.3267847 2184.08138,87.2412554 2185.70365,90.4409424 C2187.3278,93.6406293 2191.24033,94.9186329 2194.43997,93.2963355 C2197.64522,91.6721669 2198.91759,87.7595673 2197.29532,84.5598804" id="Fill-54" fill="#0097C0"></path>
                <path d="M2218.08133,88.6576832 C2215.95503,84.4697752 2210.83866,82.7980947 2206.65397,84.9207807 C2202.46928,87.045208 2200.7975,92.1577643 2202.92206,96.3421896 C2205.04488,100.526615 2210.1595,102.203519 2214.34419,100.079092 C2218.52888,97.9546647 2220.20067,92.8438498 2218.08133,88.6576832" id="Fill-56" fill="#0097C0"></path>
                <path d="M2235.75169,106.300179 C2232.87989,100.636606 2225.96306,98.3737761 2220.29928,101.245473 C2214.63365,104.11717 2212.37444,111.039314 2215.24625,116.704743 C2218.11619,122.364603 2225.03859,124.627434 2230.6968,121.752024 C2236.36244,118.882184 2238.62906,111.961895 2235.75169,106.300179" id="Fill-58" fill="#A1CB3A"></path>
                <path d="M2207.51276,132.465029 C2206.38914,130.248947 2203.6814,129.362882 2201.46732,130.488424 C2199.24587,131.613965 2198.36356,134.318212 2199.48902,136.534294 C2200.61448,138.754061 2203.32037,139.636441 2205.5363,138.5109 C2207.75038,137.3872 2208.63638,134.681111 2207.51276,132.465029" id="Fill-60" fill="#0097C0"></path>
                <path d="M2230.13403,146.381281 C2228.13337,142.442455 2223.31971,140.867634 2219.38223,142.868082 C2215.44297,144.86321 2213.86975,149.679893 2215.8651,153.618719 C2217.86576,157.557545 2222.67942,159.132366 2226.62045,157.131918 C2230.55616,155.13679 2232.13115,150.323654 2230.13403,146.381281" id="Fill-62" fill="#0097C0"></path>
                <path d="M2211.24153,176.833877 C2209.49087,173.386613 2205.27948,172.009887 2201.83083,173.758947 C2198.38581,175.509823 2197.01107,179.719916 2198.7581,183.168996 C2200.50694,186.616259 2204.71833,187.989353 2208.16516,186.240293 C2211.612,184.494866 2212.99037,180.281141 2211.24153,176.833877" id="Fill-64" fill="#A1CB3A"></path>
                <path d="M2191.29412,183.559541 C2189.6723,180.357924 2185.759,179.078774 2182.55652,180.707634 C2179.35778,182.329013 2178.08203,186.241269 2179.70385,189.439146 C2181.32753,192.640763 2185.23897,193.919913 2188.44331,192.294794 C2191.64205,190.673414 2192.91967,186.763028 2191.29412,183.559541" id="Fill-66" fill="#0097C0"></path>
                <path d="M2179.24271,198.835242 C2177.49419,195.387619 2173.28285,194.009924 2169.83321,195.758277 C2166.38695,197.506629 2165.01082,201.719262 2166.75765,205.165192 C2168.50616,208.614507 2172.7192,209.988817 2176.16545,208.242157 C2179.61171,206.493805 2180.98953,202.281172 2179.24271,198.835242" id="Fill-68" fill="#0097C0"></path>
                <path d="M2160.34907,190.287036 C2158.8517,187.328291 2155.23889,186.15197 2152.28604,187.651281 C2149.33318,189.146604 2148.15085,192.761297 2149.6502,195.714061 C2151.14956,198.666825 2154.75838,199.849127 2157.71323,198.349817 C2160.67007,196.848513 2161.84842,193.239801 2160.34907,190.287036" id="Fill-70" fill="#A1CB3A"></path>
                <path d="M2150.0805,197.653381 C2147.95802,193.46809 2142.84007,191.798033 2138.65601,193.92205 C2134.4701,196.040531 2132.7998,201.157732 2134.91859,205.343023 C2137.04477,209.532004 2142.16087,211.202061 2146.34678,209.078044 C2150.52899,206.954027 2152.20114,201.842363 2150.0805,197.653381" id="Fill-72" fill="#0097C0"></path>
                <path d="M2106.80873,164.024358 C2104.0607,158.606333 2097.44052,156.445441 2092.02436,159.191614 C2086.60633,161.939645 2084.44544,168.559817 2087.19161,173.975983 C2089.93964,179.39215 2096.55982,181.5549 2101.97598,178.808727 C2107.39215,176.062554 2109.5549,169.440524 2106.80873,164.024358" id="Fill-74" fill="#A1CB3A"></path>
                <path d="M2102.07856,142.653862 C2099.95587,138.466412 2094.83872,136.798875 2090.65888,138.921839 C2086.47196,141.044804 2084.79755,146.159058 2086.92024,150.344736 C2089.04471,154.532187 2094.15477,156.201496 2098.34347,154.078531 C2102.52862,151.955567 2104.20303,146.839541 2102.07856,142.653862" id="Fill-76" fill="#0097C0"></path>
                <path d="M2094.35042,119.286036 C2092.85358,116.33167 2089.2395,115.150672 2086.28694,116.651213 C2083.33064,118.149885 2082.15336,121.758285 2083.64832,124.71265 C2085.14516,127.667016 2088.76111,128.848015 2091.71554,127.351211 C2094.66997,125.85067 2095.84725,122.24227 2094.35042,119.286036" id="Fill-78" fill="#0097C0"></path>
                <path d="M2117.51368,106.462488 C2116.38825,104.248557 2113.67938,103.362985 2111.46597,104.488684 C2109.24916,105.610976 2108.36209,108.320487 2109.48923,110.537824 C2110.61296,112.750052 2113.31843,113.637328 2115.53524,112.511629 C2117.75035,111.391039 2118.63571,108.681528 2117.51368,106.462488" id="Fill-80" fill="#A1CB3A"></path>
                <path d="M2108.0811,88.6562684 C2105.95724,84.4689911 2100.84366,82.799403 2096.6545,84.9196557 C2092.47065,87.0434569 2090.79747,92.1586775 2092.92133,96.3459548 C2095.04519,100.527909 2100.16055,102.20282 2104.34439,100.079019 C2108.53178,97.9534434 2110.19963,92.8399972 2108.0811,88.6562684" id="Fill-82" fill="#0097C0"></path>
                <path d="M2122.24122,61.8328808 C2120.4903,58.3886898 2116.27848,57.0100203 2112.83291,58.7577693 C2109.38402,60.5071734 2108.01043,64.7176597 2109.75969,68.1668158 C2111.50731,71.6126619 2115.71912,72.9896763 2119.168,71.2419273 C2122.61192,69.4941782 2123.99048,65.2820369 2122.24122,61.8328808" id="Fill-84" fill="#0097C0"></path>
                <path d="M2153.71598,63.0310716 C2152.63028,59.3239849 2148.74095,57.1990299 2145.03534,58.2830217 C2141.3231,59.3703235 2139.19804,63.2577997 2140.28374,66.9698512 C2141.37441,70.6769379 2145.26208,72.8018929 2148.96935,71.7162461 C2152.67993,70.6305993 2154.80168,66.7431231 2153.71598,63.0310716" id="Fill-86" fill="#0097C0"></path>
                <path d="M2128.13221,39.3836598 C2126.13764,35.4423403 2121.31921,33.8686415 2117.38312,35.8667084 C2113.44173,37.8647753 2111.868,42.6795861 2113.86787,46.6191375 C2115.86598,50.560457 2120.67734,52.1306193 2124.61873,50.1325524 C2128.56189,48.1362537 2130.13032,43.321443 2128.13221,39.3836598" id="Fill-88" fill="#A1CB3A"></path>
                <path d="M2102.45836,52.2880485 C2101.21065,49.331516 2098.20048,48.1521014 2095.74004,49.6493582 C2093.27626,51.1506131 2092.29342,54.7568232 2093.54113,57.7133557 C2094.79217,60.6698883 2097.79901,61.8493029 2100.26278,60.348048 C2102.72156,58.8527902 2103.70773,55.2385841 2102.45836,52.2880485" id="Fill-90" fill="#0097C0"></path>
                <path d="M2079.1331,88.3816376 C2077.13665,84.4424053 2072.31884,82.8685662 2068.38154,84.8669155 C2064.4424,86.8652649 2062.86859,91.6813239 2064.8669,95.6187024 C2066.86891,99.5560808 2071.67931,101.131774 2075.61846,99.1334244 C2079.5576,97.1369288 2081.13141,92.3208698 2079.1331,88.3816376" id="Fill-92" fill="#A1CB3A"></path>
                <path d="M2078.5132,130.464249 C2077.38399,128.248083 2074.67868,127.365539 2072.46168,128.485607 C2070.25122,129.612213 2069.3618,132.318682 2070.48883,134.532669 C2071.6115,136.751014 2074.31681,137.635737 2076.53599,136.51349 C2078.75081,135.384705 2079.63587,132.680416 2078.5132,130.464249" id="Fill-94" fill="#0097C0"></path>
                <path d="M2213.34997,206.285845 C2211.84872,203.332428 2208.23671,202.151061 2205.28501,203.650343 C2202.33332,205.149626 2201.15001,208.757685 2202.65125,211.712983 C2204.14497,214.668281 2207.75699,215.849648 2210.71432,214.348484 C2213.66602,212.849202 2214.84933,209.23738 2213.34997,206.285845" id="Fill-96" fill="#0097C0"></path>
                <path d="M2246.5122,138.463456 C2245.38709,136.24991 2242.68313,135.364492 2240.46241,136.486022 C2238.24908,137.611241 2237.36559,140.32099 2238.48517,142.536381 C2239.61028,144.749927 2242.32161,145.63719 2244.53495,144.511971 C2246.75382,143.386752 2247.63547,140.682536 2246.5122,138.463456" id="Fill-98" fill="#A1CB3A"></path>
                <path d="M2229.51303,177.466219 C2228.38931,175.247827 2225.67936,174.363896 2223.46447,175.487653 C2221.24786,176.609697 2220.36396,179.319732 2221.48768,181.534697 C2222.61311,183.751376 2225.31792,184.63702 2227.53282,183.51155 C2229.74943,182.387793 2230.63675,179.681184 2229.51303,177.466219" id="Fill-100" fill="#0097C0"></path>
                <path d="M2236.45635,65.2850549 C2235.21055,62.333289 2232.19932,61.1501845 2229.73771,62.6510485 C2227.27776,64.1479156 2226.29178,67.7591823 2227.54257,70.7149451 C2228.78837,73.666711 2231.7996,74.8498155 2234.26288,73.3489515 C2236.72283,71.8520844 2237.70881,68.2408177 2236.45635,65.2850549" id="Fill-102" fill="#0097C0"></path>
                <path d="M2204.24248,40.8340123 C2202.49444,37.3861649 2198.28423,36.0112892 2194.83257,37.7574169 C2191.38624,39.5070973 2190.01126,43.7187645 2191.75752,47.1666119 C2193.50733,50.6144592 2197.71754,51.9893349 2201.16743,50.2414309 C2204.61376,48.4917505 2205.98874,44.2818596 2204.24248,40.8340123" id="Fill-104" fill="#A1CB3A"></path>
                <path d="M2166.37498,123.214878 C2162.62748,115.828477 2153.60221,112.878485 2146.2179,116.626152 C2138.83184,120.372062 2135.87846,129.399495 2139.62421,136.785895 C2143.3717,144.172296 2152.39697,147.120531 2159.78304,143.374621 C2167.16735,139.626953 2170.12248,130.601278 2166.37498,123.214878" id="Fill-106" fill="#0097C0"></path>
                <path d="M2154,132 C2146.37154,158.033712 2112.19561,184.507066 2065.83272,279.236141 C1982.19113,450.138132 1976.65791,470.472922 1938,690" id="Stroke-108" stroke="#0097C0"></path>
                <path d="M1927.25415,193.511834 C1879.14757,198.481774 1843.84198,238.321458 1848.39531,282.497086 C1852.94864,326.674536 1895.63746,358.458107 1943.74586,353.488166 C1991.85063,348.518226 2027.15804,308.678542 2022.60471,264.502914 C2018.05138,220.325464 1975.36256,188.541893 1927.25415,193.511834" id="Fill-110" fill="#FEFEFE"></path>
                <path d="M1952.00176,193.189725 C1953.72588,193.990519 1954.89113,194.471722 1957.02437,194.903896 C1957.31295,194.962004 1957.74763,195.049165 1958.28459,195.156301 C1958.55308,195.210777 1958.84895,195.268884 1959.16492,195.332439 C1959.83704,195.464997 1960.51281,195.599371 1961.19588,195.733744 C1962.11639,195.922593 1963.05517,196.06423 1963.96106,196.369295 C1965.7893,196.904973 1967.6431,197.449731 1969.52612,198.001752 C1973.34879,198.938735 1977.0016,200.671065 1980.84071,202.149174 C1988.26323,205.617465 1995.90674,209.792125 2002.40509,215.800803 C2008.99111,221.644238 2014.77351,228.78238 2019.08566,236.901086 C2027.68438,253.220212 2030.13359,272.855096 2027.6442,291.100849 C2026.32371,300.214645 2022.86997,308.867214 2017.88388,316.226891 C2012.91241,323.615622 2006.52546,329.718724 1999.71297,334.563436 C1992.88769,339.420859 1985.64416,343.061657 1978.58145,345.832658 C1971.48768,348.569158 1964.53273,350.294224 1958.10561,351.568957 C1945.17282,353.884177 1934.28196,353.820622 1926.81013,353.246811 C1923.05504,353.04525 1920.15836,352.544073 1918.17854,352.288037 C1916.19689,352.044712 1915.16314,351.812282 1915.16314,351.812282 C1915.16314,351.812282 1914.12939,351.601642 1912.17149,351.203969 C1911.19801,350.987882 1909.97615,350.800848 1908.57347,350.430413 C1907.17261,350.049083 1905.56172,349.609645 1903.75175,349.113915 C1900.16469,348.031663 1895.83063,346.55537 1891.04727,344.359996 C1889.82175,343.873346 1888.63276,343.216005 1887.39811,342.556848 C1886.16164,341.899507 1884.88863,341.222192 1883.58092,340.524902 C1882.33531,339.725924 1881.05683,338.905155 1879.74547,338.062597 C1879.0971,337.632238 1878.41219,337.236381 1877.76747,336.764258 C1877.13919,336.277607 1876.50177,335.783694 1875.85705,335.284332 C1874.59318,334.256556 1873.18685,333.339547 1871.96315,332.157423 C1870.71937,330.998905 1869.45367,329.814965 1868.1624,328.61105 C1865.79173,326.003476 1863.26033,323.339611 1861.17274,320.189096 C1860.62482,319.424619 1860.0696,318.652879 1859.51071,317.875691 C1859.03402,317.047659 1858.55185,316.21418 1858.06603,315.375253 C1857.13456,313.673793 1856.03689,312.035888 1855.27163,310.178264 C1854.43513,308.362405 1853.58585,306.52294 1852.72927,304.6635 C1851.8873,302.796797 1851.26632,300.817511 1850.51201,298.869094 C1847.72492,291.006424 1845.71952,282.450096 1845.46565,273.546939 C1845.18256,264.66194 1846.72952,255.499115 1850.19239,246.951866 C1853.64978,238.413697 1858.83312,230.436627 1865.32417,223.69979 C1871.76773,216.913925 1879.24869,211.150388 1887.16799,206.4001 C1895.12016,201.69521 1903.52893,198.019911 1911.98154,195.361493 C1916.22611,194.103103 1920.45972,192.989981 1924.69881,192.35443 C1926.80465,191.945862 1928.91963,191.807857 1931.00539,191.571795 C1932.05009,191.531846 1933.09114,191.491897 1934.12489,191.451948 C1934.64359,191.422895 1935.15681,191.413815 1935.67186,191.450132 L1936.66725,191.490081 C1937.37955,191.517319 1938.02609,191.542741 1938.56854,191.562716 C1939.10367,191.631718 1939.53471,191.686194 1939.82328,191.722511 C1941.96748,191.927703 1943.14003,192.054814 1945.05411,192.067525 C1943.42313,191.19228 1942.22135,190.549466 1939.99679,190.317036 C1939.69726,190.277087 1939.24613,190.21898 1938.68725,190.14453 C1938.12655,190.122739 1937.45808,190.093686 1936.72387,190.064632 L1935.69195,190.022867 C1935.16229,189.988366 1934.63263,189.995629 1934.10115,190.026499 C1933.04001,190.066448 1931.97338,190.108213 1930.90128,190.149977 C1928.77352,190.387855 1926.60923,190.533124 1924.46868,190.945324 C1920.15471,191.595401 1915.859,192.72305 1911.55416,193.997783 C1902.99014,196.690702 1894.4864,200.411397 1886.43194,205.176211 C1878.41037,209.986422 1870.82713,215.826225 1864.27764,222.724674 C1857.68248,229.572279 1852.39138,237.700064 1848.85911,246.423451 C1845.32502,255.154102 1843.74335,264.523935 1844.03375,273.586887 C1844.2931,282.669815 1846.33502,291.371412 1849.16047,299.343033 C1849.92573,301.318688 1850.5595,303.327028 1851.41243,305.215521 C1852.27815,307.098567 1853.13656,308.959823 1853.98401,310.797472 C1854.75658,312.669623 1855.87799,314.356556 1856.83138,316.090702 C1857.32633,316.947787 1857.82129,317.799425 1858.30894,318.6438 C1858.87878,319.43733 1859.44314,320.225413 1860.00567,321.008048 C1862.13891,324.223935 1864.71963,326.945907 1867.14144,329.606141 C1868.46011,330.835478 1869.7532,332.041208 1871.02073,333.223332 C1872.26999,334.429063 1873.70189,335.36423 1874.98951,336.413797 C1875.64519,336.920421 1876.29722,337.423414 1876.93828,337.92096 C1877.59396,338.400347 1878.29165,338.805283 1878.95098,339.242905 C1880.28609,340.098175 1881.58831,340.935286 1882.85767,341.748791 C1884.18729,342.456976 1885.48039,343.147002 1886.73878,343.815238 C1887.99352,344.48529 1889.2026,345.153527 1890.44821,345.645624 C1895.3101,347.877315 1899.70626,349.375399 1903.34447,350.472178 C1905.18,350.973355 1906.81464,351.420056 1908.23376,351.80865 C1909.65653,352.182717 1910.893,352.371567 1911.88109,352.591286 C1913.86274,352.99259 1914.9111,353.206862 1914.9111,353.206862 C1914.9111,353.206862 1915.95945,353.441108 1917.96485,353.688064 C1919.97024,353.947732 1922.90345,354.456173 1926.70238,354.659549 C1934.26552,355.24244 1945.28058,355.305995 1958.36496,352.965353 C1964.87061,351.676093 1971.90776,349.931052 1979.09649,347.158235 C1986.25601,344.350917 1993.60364,340.659275 2000.54581,335.720139 C2007.47337,330.793713 2013.98999,324.57258 2019.0747,317.018606 C2024.17403,309.495501 2027.7136,300.628661 2029.06149,291.307857 C2031.58924,272.777014 2029.11628,252.880646 2020.35866,236.240113 C2015.96433,227.967059 2010.07052,220.68728 2003.35665,214.733078 C1996.73227,208.611817 1988.96091,204.364522 1981.42333,200.845387 C1977.53126,199.343672 1973.82001,197.589552 1969.95168,196.639858 C1968.04491,196.080573 1966.16554,195.530368 1964.31356,194.987426 C1963.3967,194.680546 1962.4488,194.535277 1961.51916,194.344612 C1960.82878,194.208422 1960.14387,194.072233 1959.46445,193.937859 C1959.14483,193.874304 1958.84713,193.816197 1958.57499,193.763537 C1958.03072,193.656401 1957.59239,193.571056 1957.29833,193.514764 C1955.1377,193.098933 1953.86652,193.097117 1952.00176,193.189725" id="Fill-112" fill="#A1CB3A"></path>
                <path d="M1988.77919,216.536076 C1989.42179,217.238298 1989.95335,217.796428 1990.53769,218.339966 C1991.08563,218.940047 1991.70093,219.505472 1992.52557,220.189455 C1992.73673,220.39009 1993.0553,220.687394 1993.44851,221.057656 C1993.64875,221.2437 1993.86538,221.446159 1994.09657,221.665033 L1994.58626,222.121021 L1995.56017,223.146083 C1996.21005,223.833713 1996.87814,224.512224 1997.48615,225.261869 C1998.76043,226.704616 1999.95279,228.260448 2001.15425,229.841816 C2003.48982,233.055622 2005.68704,236.508366 2007.73317,240.158096 C2011.7435,247.497685 2015.16767,255.617925 2017.45227,264.327303 C2018.09487,266.485039 2018.48262,268.721206 2018.99051,270.942782 C2019.34184,273.191716 2019.81151,275.442475 2020.00629,277.740656 C2020.59246,282.313307 2020.67619,286.984452 2020.45593,291.659244 C2020.25568,296.34498 2019.4183,301.001533 2018.34973,305.607016 C2017.62521,307.85595 2017.11186,310.183315 2016.17435,312.368411 C2015.73928,313.470079 2015.33697,314.588162 2014.87641,315.68071 L2013.33089,318.889044 C2012.84849,319.97612 2012.2605,321.008478 2011.6452,322.02442 L2009.84301,325.099605 L2007.79506,328.014283 C2007.11969,328.990098 2006.44979,329.967737 2005.65974,330.857826 C2004.1397,332.679956 2002.6761,334.544036 2000.96311,336.18377 L1998.48737,338.722713 L1995.82959,341.057374 C1988.72822,347.249695 1980.74213,352.278335 1972.20447,355.348048 C1963.69047,358.463361 1954.79419,359.72736 1946.30567,359.555909 C1937.80442,359.393577 1929.71093,357.848688 1922.3638,355.585162 C1915.01668,353.301573 1908.33946,350.401487 1902.5688,347.098307 C1901.087,346.341367 1899.70532,345.482285 1898.3655,344.632322 C1897.02933,343.778712 1895.68406,343.005356 1894.44619,342.148098 C1892.0105,340.369743 1889.60029,338.830327 1887.56144,337.090275 C1886.51836,336.251256 1885.50986,335.441421 1884.53958,334.658945 C1883.56749,333.878293 1882.71191,333.030155 1881.84904,332.267742 C1880.13058,330.728326 1878.56686,329.307466 1877.27074,327.910318 C1875.95641,326.533233 1874.72218,325.364079 1873.75919,324.245995 C1872.79802,323.129736 1871.98066,322.183104 1871.31986,321.41522 C1870.65723,320.649159 1870.15298,320.061846 1869.81075,319.666048 C1869.49764,319.250187 1869.33562,319.036784 1869.33562,319.036784 C1869.33562,319.036784 1868.68574,318.183174 1867.46244,316.568975 C1866.17905,314.996728 1864.54616,312.508855 1862.45998,309.322409 C1861.44056,307.715506 1860.45937,305.842306 1859.30341,303.848725 C1858.18569,301.83508 1857.20449,299.533251 1856.02306,297.134752 C1855.53701,295.890816 1855.03458,294.604929 1854.51577,293.280739 C1853.98785,291.958372 1853.45448,290.592231 1853.06309,289.136717 C1852.62984,287.693969 1852.18566,286.212919 1851.72874,284.69539 C1851.39743,283.146854 1851.05883,281.55819 1850.71296,279.934872 C1849.50967,273.417886 1848.99268,266.142136 1849.84645,258.490652 C1850.58553,250.815456 1853.29428,243.007111 1856.5091,235.111217 C1859.77672,227.240858 1864.07468,219.36138 1869.85808,212.337335 C1875.57049,205.27134 1882.83387,199.188455 1891.11486,194.741657 C1899.38857,190.283915 1908.62344,187.403893 1918.06585,186.25845 C1927.50279,185.067408 1937.09446,185.189613 1946.39487,186.462733 C1955.6971,187.713965 1964.76086,189.807863 1973.31127,192.636815 C1977.59831,194.017548 1981.75063,195.604387 1985.78099,197.269656 C1987.77615,198.145154 1989.77313,198.980525 1991.69365,199.919861 C1992.65482,200.384969 1993.61234,200.846429 1994.56623,201.306065 C1995.3399,201.709159 1996.10993,202.110429 1996.87632,202.509874 C1998.15788,203.15373 1999.16456,203.761106 1999.68337,204.038347 C2001.59115,205.072529 2002.7289,205.548581 2004.53473,206.108535 C2003.2204,204.784344 2002.30292,203.865072 2000.3824,202.799883 C1999.85995,202.513522 1998.84053,201.893378 1997.5444,201.242227 C1996.77073,200.839133 1995.98978,200.432392 1995.20701,200.02565 C1994.24402,199.560542 1993.27739,199.09361 1992.3053,198.62303 C1990.36293,197.674574 1988.3514,196.831908 1986.33439,195.949114 C1982.26763,194.267429 1978.08071,192.667822 1973.75363,191.274322 C1965.12676,188.419835 1955.98109,186.304049 1946.57873,185.040049 C1937.18002,183.755986 1927.46274,183.628309 1917.88017,184.839414 C1908.29213,186.003096 1898.87886,188.932365 1890.43767,193.481305 C1881.98557,198.017477 1874.57109,204.23351 1868.7531,211.43083 C1862.86593,218.5862 1858.50244,226.586059 1855.19478,234.554911 C1851.95083,242.523764 1849.19293,250.468905 1848.43018,258.326496 C1847.56003,266.138488 1848.08794,273.561979 1849.31489,280.202993 C1849.66805,281.855495 1850.0121,283.473341 1850.3507,285.051061 C1850.8149,286.595949 1851.26818,288.102535 1851.70871,289.570817 C1852.1092,291.051868 1852.64986,292.439896 1853.18688,293.78415 C1853.71297,295.132051 1854.2245,296.439826 1854.71965,297.703826 C1855.91747,300.140627 1856.91505,302.478936 1858.04916,304.521763 C1859.2215,306.544528 1860.22089,308.445087 1861.25306,310.075701 C1863.36836,313.307747 1865.02674,315.830274 1866.32833,317.42441 C1867.56802,319.058672 1868.22518,319.92505 1868.22518,319.92505 C1868.22518,319.92505 1868.38902,320.1421 1868.70941,320.563433 C1869.05346,320.962879 1869.56681,321.557488 1870.2349,322.334492 C1870.90481,323.11332 1871.73309,324.07272 1872.707,325.203571 C1873.68091,326.334422 1874.93153,327.518168 1876.26224,328.913492 C1877.57656,330.32888 1879.16031,331.767979 1880.89879,333.325635 C1881.7744,334.098991 1882.63727,334.95625 1883.6221,335.747845 C1884.60512,336.539441 1885.62636,337.36022 1886.68219,338.208358 C1888.74652,339.972121 1891.18586,341.531601 1893.65067,343.33002 C1894.90675,344.198221 1896.26659,344.984345 1897.62278,345.847075 C1898.97898,346.709805 1900.37704,347.576183 1901.87887,348.344067 C1907.72417,351.691022 1914.49059,354.631235 1921.94511,356.949479 C1929.40146,359.245837 1937.62238,360.818085 1946.28019,360.984064 C1954.91979,361.160988 1963.99812,359.873277 1972.69052,356.692302 C1981.4084,353.560574 1989.56924,348.417026 1996.76891,342.13533 L1999.47038,339.762367 L2001.99163,337.179649 C2003.73375,335.508907 2005.23012,333.608348 2006.77746,331.749739 C2007.58025,330.843235 2008.26654,329.845532 2008.9583,328.849654 L2011.04447,325.872962 L2012.88489,322.735762 C2013.51657,321.697932 2014.11366,320.643687 2014.60699,319.5329 L2016.18709,316.253432 C2016.65676,315.138996 2017.06817,313.997201 2017.51234,312.869998 C2018.47169,310.639303 2018.99779,308.264516 2019.73505,305.96451 C2020.82729,301.266007 2021.67741,296.512784 2021.88494,291.737674 C2022.11249,286.975332 2022.02329,282.222109 2021.42984,277.5765 C2021.22595,275.240016 2020.75265,272.956426 2020.39403,270.671012 C2019.88068,268.41843 2019.48383,266.147608 2018.83577,263.958864 C2016.51477,255.125458 2013.04873,246.903076 2008.9856,239.46317 C2006.90853,235.764193 2004.68036,232.260378 2002.30474,228.99003 C2001.08144,227.381303 1999.86905,225.798111 1998.56565,224.322533 C1997.94489,223.558297 1997.25678,222.859722 1996.59234,222.155676 L1995.59294,221.103255 L1995.08687,220.632675 C1994.84657,220.408329 1994.62266,220.198574 1994.41878,220.008883 C1994.00737,219.627677 1993.67606,219.321253 1993.45579,219.118794 C1992.59474,218.412924 1991.86476,217.922281 1991.15663,217.499123 C1990.40298,217.128861 1989.65116,216.847972 1988.77919,216.536076" id="Fill-114" fill="#0097C0"></path>
                <path d="M1929,266.775037 C1928.98159,266.708447 1915.8483,234.893217 1900.71419,219 L1900,219.647895 C1914.96477,235.359342 1928.041,266.931611 1928.05757,267 L1929,266.775037 Z" id="Fill-116" fill="#A1CB3A"></path>
                <path d="M1932,267 C1931.99996,266.954338 1932.11125,250.771689 1920.9079,231 L1920,231.452968 C1931.07839,251.012785 1930.971,266.952511 1930.971,267 L1932,267 Z" id="Fill-118" fill="#0097C0"></path>
                <path d="M1924.92561,277.352852 C1924.84941,277.363709 1897.9533,280.31952 1887.19595,277 L1887,278.40055 C1897.87892,281.758069 1924.9238,278.788687 1925,278.77783 L1924.92561,277.352852 Z" id="Fill-120" fill="#0097C0"></path>
                <path d="M1895.31676,294 C1895.36897,293.980781 1914.03173,286.94147 1925,280.807188 L1924.54923,280 C1913.63491,286.106327 1895.05221,293.114189 1895,293.133408 L1895.31676,294 Z" id="Fill-122" fill="#0097C0"></path>
                <path d="M1930.76057,267.483674 C1930.7421,267.743575 1930.89409,267.974797 1931.10006,267.998098 C1931.30603,268.0214 1931.48786,267.827818 1931.50632,267.56971 C1931.512,267.494429 1933.40409,241.717668 1929.74208,220.373557 C1929.69946,220.117242 1929.49633,219.954132 1929.29604,220.011489 C1929.09291,220.068846 1928.96365,220.321577 1929.0091,220.574308 C1932.64839,241.78578 1930.76625,267.408393 1930.76057,267.483674" id="Fill-124" fill="#0097C0"></path>
                <path d="M1898.57012,309 C1898.63446,308.951865 1921.68402,291.671421 1928,283.575837 L1927.25474,283 C1921.02276,290.988618 1898.06791,308.203099 1898,308.251234 L1898.57012,309 Z" id="Fill-126" fill="#A1CB3A"></path>
                <path d="M1932.95401,328 C1932.9668,327.90476 1937.05699,293.397389 1933.63571,279 L1932.69815,279.21384 C1936.0847,293.458486 1932.01097,327.798738 1932,327.893978 L1932.95401,328 Z" id="Fill-128" fill="#0097C0"></path>
                <path d="M1941,320.883143 C1940.99451,320.812658 1937.8345,295.274837 1935.95642,280 L1935,280.126131 C1936.88906,295.510405 1940.03627,320.92766 1940.04358,321 L1941,320.883143 Z" id="Fill-130" fill="#A1CB3A"></path>
                <path d="M1956,324.662865 C1955.96113,324.561904 1942.56975,290.193936 1934.86438,276 L1934,276.443504 C1941.67575,290.586961 1955.04493,324.904448 1955.08565,325 L1956,324.662865 Z" id="Fill-132" fill="#0097C0"></path>
                <path d="M1962,312.450144 C1961.94487,312.374177 1942.78464,285.183425 1932.72584,274 L1932,274.633058 C1942.02205,285.77669 1961.15288,312.924033 1961.20985,313 L1962,312.450144 Z" id="Fill-134" fill="#0097C0"></path>
                <path d="M1974,303.292436 C1973.95317,303.250088 1956.98191,289.089989 1931.48988,274 L1931,274.797553 C1956.43079,289.850488 1973.33902,303.957652 1973.38584,304 L1974,303.292436 Z" id="Fill-136" fill="#A1CB3A"></path>
                <path d="M1929,270.378987 C1928.94403,270.30394 1909.15875,244.954972 1900.68063,236 L1900,236.690432 C1908.45645,245.630394 1928.20202,270.924953 1928.25618,271 L1929,270.378987 Z" id="Fill-138" fill="#0097C0"></path>
                <path d="M1892,255.876469 C1892.05533,255.893999 1911.87506,262.695401 1923.39848,272 L1924,271.286554 C1912.33556,261.869767 1892.36591,255.021035 1892.30879,255 L1892,255.876469 Z" id="Fill-140" fill="#0097C0"></path>
                <path d="M1902,265.882387 C1902.04331,265.892748 1918.04655,269.681312 1926.51796,274 L1927,273.205679 C1918.42125,268.830008 1902.29186,265.010361 1902.25043,265 L1902,265.882387 Z" id="Fill-142" fill="#A1CB3A"></path>
                <path d="M1982.98369,283.085426 C1982.90398,283.085426 1954.38175,283.429806 1938.50366,274 L1938,274.77702 C1954.10999,284.347002 1982.91485,284.002621 1983,283.997429 L1982.98369,283.085426 Z" id="Fill-144" fill="#0097C0"></path>
                <path d="M1966.86638,272.639583 C1966.80598,272.64637 1946.32254,274.887224 1935.41915,271 L1935,271.644704 C1946.17062,275.626937 1966.9396,273.356222 1967,273.348079 L1966.86638,272.639583 Z" id="Fill-146" fill="#0097C0"></path>
                <path d="M1981.48839,255 C1981.41687,255.043341 1956.17543,270.525056 1931,274.05553 L1931.13753,275 C1956.51834,271.440632 1981.92665,255.857788 1982,255.812641 L1981.48839,255 Z" id="Fill-148" fill="#A1CB3A"></path>
                <path d="M1968.03475,245 C1968.0329,245.023035 1966.95876,252.702439 1934,274.230996 L1934.54814,275 C1967.86126,253.246412 1968.99631,245.170102 1969,245.147068 L1968.03475,245 Z" id="Fill-150" fill="#0097C0"></path>
                <path d="M1953.22604,244 C1953.18445,244.057316 1938.61483,264.128512 1934,275.652524 L1934.88788,276 C1939.46112,264.583455 1953.9566,244.614351 1954,244.557036 L1953.22604,244 Z" id="Fill-152" fill="#0097C0"></path>
                <path d="M1950.11083,228 C1950.07099,228.098943 1936.93444,262.424705 1931,275.600565 L1931.86925,276 C1937.81456,262.796656 1950.96197,228.450739 1951,228.349964 L1950.11083,228 Z" id="Fill-154" fill="#A1CB3A"></path>
                <path d="M1933.75962,211.678942 C1931.64969,208.777221 1927.58285,208.131134 1924.68147,210.241305 C1921.77443,212.347698 1921.1322,216.41313 1923.24212,219.320519 C1925.35015,222.22413 1929.4151,222.868327 1932.31837,220.758156 C1935.22164,218.646096 1935.86954,214.584441 1933.75962,211.678942" id="Fill-156" fill="#0097C0"></path>
                <path d="M1954.04578,224.060269 C1952.42236,221.828991 1949.29714,221.331514 1947.06194,222.954764 C1944.82674,224.576172 1944.3329,227.704752 1945.95448,229.937872 C1947.57605,232.172835 1950.70496,232.666628 1952.93831,231.047062 C1955.16982,229.42197 1955.6692,226.297075 1954.04578,224.060269" id="Fill-158" fill="#A1CB3A"></path>
                <path d="M1958.14011,239.8562 C1956.68021,237.845157 1953.86875,237.39887 1951.85426,238.858943 C1949.84529,240.319016 1949.39906,243.134477 1950.85896,245.145521 C1952.31886,247.154728 1955.13216,247.601015 1957.14297,246.140942 C1959.15745,244.679032 1959.60001,241.865408 1958.14011,239.8562" id="Fill-160" fill="#0097C0"></path>
                <path d="M1972.76114,240.681735 C1970.65034,237.774437 1966.58355,237.132566 1963.67789,239.241301 C1960.776,241.350036 1960.13219,245.414589 1962.24111,248.318111 C1964.35191,251.221632 1968.41493,251.869167 1971.3187,249.760432 C1974.22247,247.64981 1974.86817,243.587144 1972.76114,240.681735" id="Fill-162" fill="#0097C0"></path>
                <path d="M1987.47221,251.299773 C1984.87594,247.72418 1979.87565,246.931435 1976.298,249.527538 C1972.72218,252.121811 1971.93304,257.125444 1974.52748,260.702867 C1977.12192,264.274798 1982.1277,265.069374 1985.69803,262.47144 C1989.27385,259.877167 1990.07031,254.873534 1987.47221,251.299773" id="Fill-164" fill="#A1CB3A"></path>
                <path d="M1969.42693,272.23755 C1968.45218,270.896933 1966.57753,270.599211 1965.23899,271.572464 C1963.89522,272.547458 1963.59932,274.42084 1964.57407,275.761457 C1965.54708,277.105556 1967.42347,277.399795 1968.76201,276.426542 C1970.10229,275.453289 1970.40167,273.578166 1969.42693,272.23755" id="Fill-166" fill="#0097C0"></path>
                <path d="M1987.85539,279.473722 C1985.90542,276.793927 1982.15446,276.197998 1979.47467,278.146083 C1976.79299,280.090396 1976.19895,283.845127 1978.14515,286.524923 C1980.09323,289.206605 1983.84419,289.802534 1986.52587,287.852563 C1989.20566,285.908249 1989.80159,282.15729 1987.85539,279.473722" id="Fill-168" fill="#0097C0"></path>
                <path d="M1978.0447,301.061404 C1976.42077,298.828544 1973.29428,298.331945 1971.05977,299.95417 C1968.82525,301.578235 1968.33421,304.703135 1969.95446,306.939673 C1971.57656,309.174371 1974.70304,309.667293 1976.93572,308.043228 C1979.17208,306.424681 1979.66863,303.296102 1978.0447,301.061404" id="Fill-170" fill="#A1CB3A"></path>
                <path d="M1965.1401,310.855946 C1963.679,308.844335 1960.8651,308.39833 1958.85517,309.861153 C1956.84524,311.320305 1956.3992,314.133991 1957.85847,316.141931 C1959.31957,318.155378 1962.13163,318.601383 1964.14523,317.140395 C1966.15516,315.681243 1966.6012,312.867557 1965.1401,310.855946" id="Fill-172" fill="#0097C0"></path>
                <path d="M1959.04644,321.062817 C1957.42485,318.827761 1954.29653,318.332415 1952.063,319.953859 C1949.82775,321.577017 1949.33236,324.703353 1950.95394,326.936695 C1952.57895,329.173465 1955.70385,329.667097 1957.9391,328.045653 C1960.17092,326.422495 1960.66803,323.296159 1959.04644,321.062817" id="Fill-174" fill="#0097C0"></path>
                <path d="M1944.14026,317.858414 C1942.68171,315.842642 1939.86635,315.399638 1937.8566,316.860066 C1935.84473,318.318375 1935.39953,321.135369 1936.85808,323.144782 C1938.32088,325.154195 1941.13411,325.601438 1943.14386,324.14101 C1945.15574,322.678463 1945.60094,319.867827 1944.14026,317.858414" id="Fill-176" fill="#A1CB3A"></path>
                <path d="M1938.85531,324.472636 C1936.90691,321.793058 1933.15415,321.198417 1930.4744,323.146697 C1927.79465,325.089438 1927.19813,328.843803 1929.14469,331.525228 C1931.09309,334.206654 1934.84585,334.801295 1937.5256,332.854861 C1940.20535,330.90658 1940.80187,327.155908 1938.85531,324.472636" id="Fill-178" fill="#0097C0"></path>
                <path d="M1902.66418,304.885982 C1900.39415,301.757859 1896.01336,301.065514 1892.88662,303.337008 C1889.7582,305.606825 1889.06579,309.985527 1891.33582,313.113651 C1893.60753,316.241774 1897.98664,316.934119 1901.11338,314.664301 C1904.2418,312.392808 1904.93421,308.014106 1902.66418,304.885982" id="Fill-180" fill="#A1CB3A"></path>
                <path d="M1898.75795,289.679455 C1896.64862,286.774735 1892.58365,286.133084 1889.68092,288.240543 C1886.7782,290.349922 1886.1308,294.414994 1888.24013,297.319713 C1890.34945,300.224433 1894.4125,300.868006 1897.31715,298.758626 C1900.22372,296.649246 1900.86919,292.584175 1898.75795,289.679455" id="Fill-182" fill="#0097C0"></path>
                <path d="M1889.14118,275.855949 C1887.68468,273.845172 1884.86707,273.398111 1882.85619,274.860495 C1880.84332,276.318904 1880.40021,279.132403 1881.85869,281.14318 C1883.31718,283.153957 1886.1348,283.601017 1888.14568,282.142608 C1890.15656,280.680224 1890.59967,277.866726 1889.14118,275.855949" id="Fill-184" fill="#0097C0"></path>
                <path d="M1905.33264,265.441859 C1904.19683,263.879783 1902.0078,263.532446 1900.44582,264.668331 C1898.87821,265.804215 1898.53278,267.993375 1899.66859,269.557328 C1900.80628,271.119404 1902.99343,271.468618 1904.55728,270.330856 C1906.12114,269.196849 1906.46658,267.00769 1905.33264,265.441859" id="Fill-186" fill="#A1CB3A"></path>
                <path d="M1897.76071,252.681506 C1895.64856,249.774988 1891.58585,249.132515 1888.67924,251.24075 C1885.77648,253.350909 1885.13206,257.413495 1887.24036,260.320013 C1889.35059,263.222684 1893.41522,263.869004 1896.31799,261.758845 C1899.2246,259.648686 1899.86709,255.584177 1897.76071,252.681506" id="Fill-188" fill="#0097C0"></path>
                <path d="M1904.04568,234.060867 C1902.42006,231.828193 1899.2945,231.332043 1897.0622,232.954587 C1894.82655,234.577131 1894.33216,237.701535 1895.95611,239.937562 C1897.5767,242.171912 1900.70226,242.668062 1902.93791,241.045518 C1905.17188,239.422974 1905.66795,236.296894 1904.04568,234.060867" id="Fill-190" fill="#0097C0"></path>
                <path d="M1925.51372,228.852929 C1924.32899,226.360971 1921.34787,225.300171 1918.85439,226.484982 C1916.36091,227.669793 1915.30018,230.65277 1916.48492,233.14808 C1917.67133,235.638362 1920.6558,236.699162 1923.1476,235.516027 C1925.64108,234.331215 1926.70014,231.348239 1925.51372,228.852929" id="Fill-192" fill="#0097C0"></path>
                <path d="M1904.8541,215.475805 C1902.90838,212.793035 1899.15417,212.198953 1896.47528,214.14476 C1893.79263,216.092448 1893.19858,219.844942 1895.14618,222.525832 C1897.09378,225.208602 1900.84234,225.800805 1903.52499,223.853117 C1906.20952,221.90731 1906.79982,218.154816 1904.8541,215.475805" id="Fill-194" fill="#A1CB3A"></path>
                <path d="M1889.14087,227.856873 C1887.68051,225.844145 1884.86396,225.399943 1882.85517,226.857948 C1880.84425,228.320204 1880.39998,231.132071 1881.85821,233.142673 C1883.3207,235.1554 1886.133,235.601728 1888.14391,234.139472 C1890.15483,232.681467 1890.60122,229.865349 1889.14087,227.856873" id="Fill-196" fill="#0097C0"></path>
                <path d="M1875.85518,256.474421 C1873.90767,253.79357 1870.15261,253.198263 1867.4738,255.145823 C1864.79498,257.091411 1864.19772,260.846575 1866.14523,263.527426 C1868.09274,266.206307 1871.84584,266.801613 1874.52465,264.854054 C1877.2074,262.908465 1877.80072,259.155273 1875.85518,256.474421" id="Fill-198" fill="#A1CB3A"></path>
                <path d="M1879.42841,284.235618 C1878.4518,282.896526 1876.57688,282.599866 1875.2356,283.572252 C1873.89843,284.544639 1873.59762,286.421428 1874.57422,287.76052 C1875.54671,289.103732 1877.41957,289.400392 1878.76291,288.428005 C1880.10214,287.451498 1880.40089,285.57677 1879.42841,284.235618" id="Fill-200" fill="#0097C0"></path>
                <path d="M1982.14215,321.855951 C1980.68175,319.845914 1977.86497,319.397906 1975.85442,320.859933 C1973.84787,322.31996 1973.39775,325.132012 1974.85815,327.144049 C1976.31655,329.154086 1979.13332,329.602094 1981.14588,328.140067 C1983.15443,326.68004 1983.60055,323.863988 1982.14215,321.855951" id="Fill-202" fill="#0097C0"></path>
                <path d="M1999.42548,272.236419 C1998.45105,270.897387 1996.57889,270.599243 1995.23666,271.572133 C1993.89616,272.545024 1993.59982,274.422806 1994.57251,275.763581 C1995.54345,277.102613 1997.42259,277.400757 1998.76134,276.427867 C2000.10357,275.453233 2000.40165,273.578937 1999.42548,272.236419" id="Fill-204" fill="#A1CB3A"></path>
                <path d="M1991.33304,300.445169 C1990.19404,298.877238 1988.00482,298.533427 1986.44272,299.66876 C1984.87872,300.804093 1984.53305,302.993528 1985.66827,304.55768 C1986.80538,306.119943 1988.99082,306.467533 1990.55482,305.3322 C1992.11882,304.196867 1992.46826,302.009321 1991.33304,300.445169" id="Fill-206" fill="#0097C0"></path>
                <path d="M1984.14028,221.855186 C1982.6802,219.844746 1979.86629,219.398453 1977.85575,220.860592 C1975.8452,222.31848 1975.39889,225.134373 1976.85898,227.144814 C1978.31906,229.155254 1981.1351,229.601547 1983.14564,228.139408 C1985.15618,226.68152 1985.60037,223.865627 1984.14028,221.855186" id="Fill-208" fill="#0097C0"></path>
                <path d="M1957.0462,208.061734 C1955.4235,205.827531 1952.29685,205.33284 1950.0607,206.953627 C1947.82635,208.578011 1947.33342,211.702658 1948.95432,213.93866 C1950.57701,216.172863 1953.70366,216.667554 1955.93982,215.044969 C1958.17237,213.420584 1958.66709,210.297736 1957.0462,208.061734" id="Fill-210" fill="#A1CB3A"></path>
                <path d="M1941.89966,269.535096 C1938.33022,264.621309 1931.45256,263.530778 1926.53864,267.100123 C1921.62107,270.671295 1920.53051,277.54877 1924.09995,282.464383 C1927.66939,287.379996 1934.54888,288.468701 1939.4628,284.899356 C1944.37672,281.330011 1945.47093,274.450709 1941.89966,269.535096" id="Fill-212" fill="#0097C0"></path>
                <path d="M1933,279 C1930.59498,297.995638 1909.81383,320.261855 1888.1469,391.457172 C1849.05858,519.902218 1847.47581,534.692826 1845,692" id="Stroke-214" stroke="#0097C0"></path>
                <path d="M2130.47661,344.126932 C2095.73675,342.026867 2066.01671,366.235541 2064.09795,398.198159 C2062.17558,430.158967 2088.78011,457.773004 2123.51997,459.873068 C2158.26163,461.973133 2187.97986,437.764459 2189.90223,405.801841 C2191.8228,373.841033 2165.21646,346.226996 2130.47661,344.126932" id="Fill-216" fill="#FEFEFE"></path>
                <path d="M2147.81166,349.017268 C2149.38554,350.083529 2150.45373,350.740664 2152.49117,351.508227 C2152.766,351.611413 2153.18192,351.767098 2153.69494,351.958989 C2153.95145,352.053124 2154.23362,352.158121 2154.53593,352.270359 L2154.99399,352.440526 C2155.3128,352.545523 2155.60779,352.704828 2155.91194,352.846031 C2156.5184,353.135677 2157.13037,353.428944 2157.746,353.722211 C2158.97909,354.308745 2160.22866,354.906141 2161.4984,355.510777 C2162.77363,356.100932 2163.93709,356.930044 2165.18667,357.641488 C2166.40144,358.409051 2167.70965,359.075238 2168.89144,359.949608 C2173.70104,363.34028 2178.30909,367.453258 2182.22822,372.389918 C2186.0191,377.413472 2189.06793,383.191917 2190.99177,389.446468 C2194.94755,401.966432 2194.11205,416.083071 2190.01702,428.550536 C2187.88981,434.758019 2184.33529,440.369917 2179.87931,444.904693 C2175.42883,449.459382 2170.15567,452.956862 2164.74511,455.534714 C2159.32171,458.119808 2153.75907,459.814239 2148.42729,460.927567 C2143.08451,462.048136 2137.94877,462.417436 2133.24728,462.574931 C2123.81497,462.708892 2116.10862,461.412725 2110.88127,460.160004 C2108.2447,459.582522 2106.24574,458.916335 2104.87523,458.499969 C2104.19181,458.289975 2103.66779,458.13067 2103.31601,458.022052 C2102.96971,457.897142 2102.79199,457.831972 2102.79199,457.831972 C2102.79199,457.831972 2102.08292,457.564049 2100.74539,457.060788 C2100.07479,456.805537 2099.25029,456.490547 2098.27921,456.119438 C2097.33195,455.688589 2096.24177,455.192569 2095.01968,454.63681 C2093.77376,454.122688 2092.49487,453.356936 2091.0584,452.598424 C2089.59995,451.870688 2088.1415,450.891321 2086.55479,449.875748 C2084.92594,448.923536 2083.41252,447.598404 2081.69572,446.354735 C2080.85839,445.704841 2080.08519,444.939088 2079.24603,444.209542 C2078.41237,443.470944 2077.54939,442.723294 2076.78352,441.845303 C2073.45253,438.579541 2070.47882,434.410444 2068.00165,429.654813 C2066.70809,427.292384 2065.79198,424.678326 2064.85571,421.999097 C2064.12832,419.242026 2063.20304,416.45418 2062.73766,413.507028 C2061.58335,407.674275 2061.02452,401.425155 2061.7849,395.121726 C2062.49764,388.83097 2064.40865,382.487714 2067.73781,376.797974 C2071.02116,371.09013 2075.54493,366.030371 2080.75762,361.83955 C2085.95931,357.612524 2091.90672,354.348571 2098.00987,351.785201 C2104.12951,349.239934 2110.46353,347.416972 2116.7499,346.414072 C2119.88484,345.865554 2123.01429,345.599441 2126.0851,345.452808 C2127.61867,345.434705 2129.14492,345.382206 2130.64552,345.476341 C2131.3949,345.517978 2132.14245,345.561425 2132.88633,345.603062 C2133.49646,345.679094 2134.10293,345.755126 2134.70573,345.829348 C2136.12937,345.957879 2137.24337,346.296403 2137.82235,346.376055 C2138.87588,346.582428 2139.66557,346.832248 2140.47542,346.928194 C2141.26511,347.078448 2142.00166,347.254046 2142.95442,347.40611 C2142.2142,346.853972 2141.57292,346.338039 2140.82537,345.952448 C2140.065,345.621165 2139.24782,345.230142 2138.15032,345.000235 C2137.54935,344.909721 2136.36939,344.554904 2134.89995,344.419132 C2134.27333,344.3431 2133.6467,344.265258 2133.01459,344.187415 C2132.25055,344.143968 2131.48284,344.098711 2130.70964,344.055264 C2129.16507,343.959319 2127.60585,344.013627 2126.0338,344.03173 C2122.89519,344.180174 2119.70345,344.453528 2116.51354,345.011097 C2110.1154,346.033911 2103.67879,347.884027 2097.45104,350.474551 C2091.23979,353.083179 2085.17695,356.408681 2079.8525,360.735273 C2074.51705,365.02385 2069.86686,370.219381 2066.48456,376.099202 C2063.06013,381.95911 2061.08682,388.501497 2060.35759,394.962421 C2059.57706,401.439637 2060.15238,407.83177 2061.32867,413.774951 C2061.80689,416.781842 2062.74132,419.613136 2063.48337,422.415464 C2064.44346,425.163484 2065.39256,427.862626 2066.72092,430.293845 C2069.26955,435.190678 2072.3367,439.475634 2075.75014,442.82648 C2076.53983,443.726194 2077.42296,444.493757 2078.27678,445.252269 C2079.13793,445.999918 2079.93128,446.783774 2080.78877,447.44815 C2082.54221,448.722594 2084.09594,450.076691 2085.7596,451.052437 C2087.37929,452.089733 2088.87439,453.089013 2090.36032,453.831231 C2091.82244,454.606035 2093.13065,455.38627 2094.40039,455.911254 C2095.6463,456.477875 2096.75846,456.982946 2097.72221,457.421036 C2098.71162,457.797576 2099.55261,458.119808 2100.23237,458.378679 C2101.59554,458.892801 2102.31744,459.164345 2102.31744,459.164345 C2102.31744,459.164345 2102.50066,459.229515 2102.85245,459.358046 C2103.20974,459.468474 2103.74291,459.6314 2104.43916,459.845014 C2105.83165,460.270432 2107.86543,460.94567 2110.54414,461.532204 C2115.8631,462.806648 2123.69038,464.124539 2133.27476,463.990577 C2138.05504,463.831272 2143.27323,463.456542 2148.71495,462.316059 C2154.14567,461.181008 2159.82191,459.455802 2165.3699,456.810968 C2170.90689,454.173376 2176.32479,450.587192 2180.91085,445.893111 C2185.50425,441.220753 2189.18336,435.415154 2191.37654,429.010349 C2195.56501,416.249617 2196.417,401.897641 2192.3696,389.033722 C2190.3963,382.619866 2187.26319,376.680305 2183.37153,371.52641 C2179.35163,366.457599 2174.62998,362.245055 2169.71411,358.783781 C2168.50667,357.889498 2167.17464,357.208829 2165.93605,356.426784 C2164.65899,355.699047 2163.46988,354.855452 2162.17266,354.254436 C2160.88094,353.638938 2159.60754,353.032491 2158.3543,352.433285 C2157.72767,352.134587 2157.10472,351.83951 2156.48726,351.544433 C2156.17761,351.399609 2155.87712,351.238494 2155.55465,351.131687 L2155.08927,350.959709 C2154.78328,350.845661 2154.49562,350.740664 2154.23545,350.642908 C2153.71326,350.451018 2153.29002,350.297143 2153.01152,350.192146 C2150.93561,349.433635 2149.67137,349.225451 2147.81166,349.017268" id="Fill-218" fill="#A1CB3A"></path>
                <path d="M2171.3807,367.583672 C2172.4284,369.17902 2173.08711,370.172662 2174.36599,371.920736 C2174.54581,372.150745 2174.8137,372.49484 2175.11094,372.954859 C2175.26323,373.181189 2175.4302,373.4296 2175.61002,373.694571 L2175.88708,374.103068 C2176.08341,374.37724 2176.24854,374.677172 2176.42652,374.967905 C2176.77331,375.55673 2177.14395,376.138194 2177.47972,376.74542 C2178.14577,377.969072 2178.81182,379.212965 2179.40998,380.51942 C2180.62648,383.11577 2181.74023,385.855646 2182.66315,388.733528 C2186.39155,400.154892 2188.09245,413.764108 2184.81542,426.942747 C2183.27232,433.524705 2180.20997,439.792011 2176.13662,445.279123 C2171.94033,450.692633 2166.63764,455.211864 2160.81017,458.691451 C2154.98455,462.19864 2148.68553,464.726907 2142.23973,465.818073 C2135.80493,466.946041 2129.33895,466.725232 2123.33167,465.551262 C2117.31339,464.380972 2111.75381,462.294324 2106.80157,459.795498 C2101.85851,457.274591 2097.4402,454.435351 2093.72832,451.390022 C2086.18161,445.42817 2081.17249,439.188465 2077.96151,434.750197 C2077.1817,433.618549 2076.45327,432.632268 2075.8808,431.734309 C2075.32484,430.827151 2074.85696,430.056158 2074.47531,429.432372 C2073.70651,428.188479 2073.32853,427.511331 2073.32853,427.511331 C2073.32853,427.511331 2072.96523,426.826822 2072.28451,425.533247 C2071.95423,424.881859 2071.49919,424.099826 2071.04599,423.137465 C2070.61296,422.165904 2070.11572,421.048977 2069.55426,419.794044 C2067.46621,414.74671 2064.79651,407.139828 2064.46441,397.5291 C2064.31945,392.757778 2064.67174,387.502516 2066.13411,382.146049 C2067.54327,376.773021 2070.20746,371.477277 2073.3744,366.183373 C2076.51015,360.878428 2080.53763,355.818214 2085.33391,351.367065 C2090.1467,346.945358 2095.8549,343.21368 2102.20896,340.8547 C2108.56119,338.49388 2115.43084,337.417434 2122.28214,337.445035 C2129.14262,337.502078 2135.9609,338.681568 2142.48376,340.479324 C2149.01947,342.27156 2155.23042,344.832948 2161.06522,347.69795 C2163.98262,349.136891 2166.7936,350.686236 2169.48898,352.314705 C2170.83759,353.12802 2172.16418,353.952375 2173.4449,354.813531 C2174.09444,355.231229 2174.73296,355.658127 2175.35497,356.103426 L2176.90175,357.187232 C2178.06137,358.048388 2179.00998,358.754978 2179.48521,359.108273 C2181.20445,360.45337 2182.30169,361.051395 2183.98424,361.929112 C2182.91086,360.366886 2182.09802,359.356683 2180.36226,357.972945 C2179.8797,357.61229 2178.9164,356.890979 2177.74394,356.013262 L2176.17331,354.914735 C2175.5458,354.462076 2174.89626,354.029658 2174.23939,353.60644 C2172.94032,352.734243 2171.59722,351.898848 2170.23209,351.074493 C2167.50185,349.427623 2164.65784,347.858036 2161.70558,346.402535 C2155.79922,343.502572 2149.50938,340.906222 2142.87275,339.086385 C2136.24897,337.261027 2129.30776,336.059457 2122.29315,336.000574 C2115.29139,335.971133 2108.23642,337.073339 2101.70254,339.502242 C2095.16683,341.929305 2089.2935,345.769548 2084.36144,350.3035 C2079.44773,354.865053 2075.33585,360.037512 2072.14873,365.430781 C2068.94326,370.783568 2066.202,376.230198 2064.74697,381.768833 C2063.2424,387.283546 2062.88094,392.686015 2063.03139,397.582463 C2063.37634,407.4416 2066.10476,415.204889 2068.23317,420.351587 C2068.80564,421.630441 2069.31573,422.77129 2069.75793,423.761252 C2070.21847,424.740173 2070.67902,425.538767 2071.01846,426.203035 C2071.71387,427.520531 2072.08084,428.217921 2072.08084,428.217921 C2072.08084,428.217921 2072.46616,428.90611 2073.24963,430.172083 C2073.63679,430.80691 2074.11568,431.592623 2074.68081,432.518183 C2075.26062,433.430861 2076.00373,434.433704 2076.79639,435.587433 C2080.06241,440.102984 2085.15776,446.445733 2092.83475,452.51799 C2096.61452,455.614841 2101.11539,458.511124 2106.15571,461.083553 C2111.20886,463.632061 2116.89137,465.768391 2123.06012,466.966282 C2129.21601,468.171533 2135.86365,468.399703 2142.48376,467.240454 C2149.11122,466.123526 2155.61757,463.505095 2161.54962,459.931664 C2167.50735,456.372953 2172.9605,451.732277 2177.28156,446.15684 C2181.47968,440.509641 2184.63011,434.047287 2186.21358,427.292361 C2189.57317,413.758588 2187.82457,399.910161 2184.03195,388.279029 C2183.09067,385.349625 2181.95674,382.554546 2180.71088,379.901154 C2180.10171,378.567097 2179.41732,377.291923 2178.73659,376.03699 C2178.3898,375.413204 2178.00816,374.813338 2177.6522,374.207953 C2177.46688,373.90802 2177.29807,373.602567 2177.09441,373.315515 L2176.80817,372.892297 C2176.62102,372.618125 2176.44854,372.362354 2176.28891,372.128664 C2175.98066,371.653924 2175.69809,371.295109 2175.50727,371.055899 C2174.16783,369.256303 2173.02656,368.48163 2171.3807,367.583672" id="Fill-220" fill="#0097C0"></path>
                <path d="M2123,398.947129 C2122.99658,398.89608 2117.82601,374.290793 2109.54661,361 L2109,361.384686 C2117.18716,374.52598 2122.34407,398.948952 2122.34749,399 L2123,398.947129 Z" id="Fill-222" fill="#A1CB3A"></path>
                <path d="M2124.64479,399 C2124.64825,398.968336 2126.52252,387.822463 2121.62591,373 L2121,373.216373 C2125.84128,387.878755 2123.99641,398.85751 2123.99122,398.890934 L2124.64479,399 Z" id="Fill-224" fill="#0097C0"></path>
                <path d="M2119,405.217927 C2118.94404,405.213821 2098.90887,403.230927 2091.25928,400 L2091,400.732809 C2098.73726,403.998632 2118.88249,405.993842 2118.93845,406 L2119,405.217927 Z" id="Fill-226" fill="#0097C0"></path>
                <path d="M2094.13477,413 C2094.17842,412.990689 2109.64991,409.972067 2119,406.674115 L2118.75135,406 C2109.44681,409.283054 2094.04176,412.290503 2094,412.299814 L2094.13477,413 Z" id="Fill-228" fill="#0097C0"></path>
                <path d="M2125.00917,399.554112 C2124.96974,399.744148 2125.06074,399.941637 2125.21848,399.988214 C2125.37167,400.038518 2125.53093,399.923006 2125.57037,399.732969 C2125.5825,399.677076 2129.59729,380.78897 2128.92386,364.339661 C2128.91779,364.142172 2128.77825,363.989398 2128.62051,364.000576 C2128.45822,364.011755 2128.33385,364.179434 2128.34295,364.37506 C2129.01335,380.721898 2125.02131,399.498219 2125.00917,399.554112" id="Fill-230" fill="#0097C0"></path>
                <path d="M2096.32789,425 C2096.38101,424.971933 2115.38562,414.828558 2121,409.523915 L2120.52374,409 C2114.98263,414.235411 2096.05678,424.339492 2096,424.367559 L2096.32789,425 Z" id="Fill-232" fill="#A1CB3A"></path>
                <path d="M2118.6632,442 C2118.68308,441.929771 2125.66569,417.009395 2124.94828,406 L2124.25977,406.046204 C2124.96816,416.939165 2118.01988,441.739412 2118,441.807793 L2118.6632,442 Z" id="Fill-234" fill="#0097C0"></path>
                <path d="M2125.14257,438 C2125.14855,437.949746 2126.3001,419.223477 2127,408.026058 L2125.85743,408 C2125.14855,419.279315 2124.00299,437.916243 2124,437.97022 L2125.14257,438 Z" id="Fill-236" fill="#A1CB3A"></path>
                <path d="M2135,441.860786 C2134.98656,441.783852 2130.05915,415.223235 2126.60963,404 L2126,404.223476 C2129.43441,415.404579 2134.3551,441.926729 2134.37022,442 L2135,441.860786 Z" id="Fill-238" fill="#0097C0"></path>
                <path d="M2141,432.709767 C2140.97052,432.650678 2130.4768,411.814738 2124.59885,403 L2124,403.354536 C2129.85768,412.136253 2140.33666,432.942649 2140.36798,433 L2141,432.709767 Z" id="Fill-240" fill="#0097C0"></path>
                <path d="M2151,430.536212 C2150.97051,430.496781 2140.27813,417.627146 2123.45896,403 L2123,403.548283 C2139.78231,418.137876 2150.43414,430.962446 2150.46363,431 L2151,430.536212 Z" id="Fill-242" fill="#A1CB3A"></path>
                <path d="M2123,398.652633 C2122.96921,398.593507 2111.6407,378.335357 2106.56878,371 L2106,371.404646 C2111.05924,378.727069 2122.3642,398.940874 2122.3968,399 L2123,398.652633 Z" id="Fill-244" fill="#0097C0"></path>
                <path d="M2097,386.599511 C2097.03916,386.619079 2111.00848,393.886146 2118.46114,402 L2119,401.551701 C2111.45597,393.340004 2097.37851,386.019569 2097.33935,386 L2097,386.599511 Z" id="Fill-246" fill="#0097C0"></path>
                <path d="M2103,394.601829 C2103.0302,394.613831 2113.37948,399.022099 2118.57722,403 L2119,402.489046 C2113.73476,398.457992 2103.30376,394.013717 2103.27534,394 L2103,394.601829 Z" id="Fill-248" fill="#A1CB3A"></path>
                <path d="M2158,417.298947 C2157.94596,417.289698 2138.25797,414.122937 2128.43925,405 L2128,405.532726 C2137.9634,414.792544 2157.84312,417.992601 2157.90239,418 L2158,417.298947 Z" id="Fill-250" fill="#0097C0"></path>
                <path d="M2150,407.297463 C2149.9554,407.297463 2134.70755,407.047998 2127.40879,402 L2127,402.574136 C2134.47714,407.746866 2149.93682,408 2149.98142,408 L2150,407.297463 Z" id="Fill-252" fill="#0097C0"></path>
                <path d="M2160.73716,396 C2160.68315,396.024874 2141.12147,404.665797 2123.0144,404.250589 L2123,404.985335 C2141.25649,405.40437 2160.94419,396.704132 2161,396.679258 L2160.73716,396 Z" id="Fill-254" fill="#A1CB3A"></path>
                <path d="M2153.31941,387 C2153.3138,387.017127 2151.58053,392.790966 2125,405.34345 L2125.30477,406 C2152.1695,393.320012 2153.99252,387.247396 2154,387.230268 L2153.31941,387 Z" id="Fill-256" fill="#0097C0"></path>
                <path d="M2143.48504,384 C2143.44499,384.034492 2129.92833,396.234198 2125,403.658532 L2125.62748,404 C2130.51004,396.642925 2143.95995,384.505303 2144,384.470811 L2143.48504,384 Z" id="Fill-258" fill="#0097C0"></path>
                <path d="M2143.3987,373 C2143.35849,373.06557 2129.83387,395.936764 2124,404.612044 L2124.57937,405 C2130.42603,396.306506 2143.96162,373.420741 2144,373.35335 L2143.3987,373 Z" id="Fill-260" fill="#A1CB3A"></path>
                <path d="M2133.52168,357.480177 C2132.40614,355.261493 2129.70291,354.363926 2127.48265,355.479576 C2125.26059,356.591622 2124.36491,359.295136 2125.47865,361.517425 C2126.59238,363.737911 2129.29742,364.635477 2131.51768,363.52163 C2133.73794,362.404177 2134.63541,359.702465 2133.52168,357.480177" id="Fill-262" fill="#0097C0"></path>
                <path d="M2146.6281,369.928956 C2145.76063,368.203189 2143.65773,367.504707 2141.9299,368.373811 C2140.20385,369.237583 2139.50526,371.341916 2140.37273,373.06946 C2141.24019,374.797003 2143.34309,375.493708 2145.06914,374.628159 C2146.79697,373.759055 2147.49379,371.658277 2146.6281,369.928956" id="Fill-264" fill="#A1CB3A"></path>
                <path d="M2147.62836,381.930888 C2146.76228,380.204496 2144.66007,379.505672 2142.92987,380.37182 C2141.20362,381.237969 2140.50681,383.342316 2141.37093,385.070676 C2142.23898,386.797068 2144.34316,387.493924 2146.06942,386.627775 C2147.79961,385.759658 2148.49247,383.657279 2147.62836,381.930888" id="Fill-266" fill="#0097C0"></path>
                <path d="M2156.52306,385.483027 C2155.40805,383.260397 2152.70249,382.36522 2150.48148,383.478337 C2148.26046,384.593254 2147.36521,387.296794 2148.47842,389.517623 C2149.59343,391.736651 2152.29719,392.63543 2154.51821,391.522313 C2156.73742,390.405595 2157.63447,387.703856 2156.52306,385.483027" id="Fill-268" fill="#0097C0"></path>
                <path d="M2166.36136,393.309848 C2164.87597,390.348636 2161.27131,389.152798 2158.30811,390.638134 C2155.34869,392.125363 2154.15282,395.729907 2155.6382,398.693011 C2157.12359,401.65044 2160.73014,402.84817 2163.68956,401.360941 C2166.64897,399.875604 2167.84863,396.271061 2166.36136,393.309848" id="Fill-270" fill="#A1CB3A"></path>
                <path d="M2151.78612,407.103252 C2151.29037,406.116268 2150.08937,405.717955 2149.10266,406.212247 C2148.11436,406.708138 2147.71776,407.909475 2148.21351,408.896459 C2148.70926,409.885043 2149.91026,410.281756 2150.89537,409.787464 C2151.88367,409.291573 2152.28347,408.090236 2151.78612,407.103252" id="Fill-272" fill="#0097C0"></path>
                <path d="M2163.52189,414.481764 C2162.40685,412.261801 2159.70308,411.363291 2157.4808,412.480094 C2155.26242,413.59105 2154.36571,416.298274 2155.47685,418.518236 C2156.59189,420.738199 2159.29761,421.636709 2161.51989,420.519906 C2163.73827,419.407001 2164.63498,416.703675 2163.52189,414.481764" id="Fill-274" fill="#0097C0"></path>
                <path d="M2153.62816,427.930411 C2152.76066,426.204151 2150.65668,425.505131 2148.93057,426.372696 C2147.20268,427.240262 2146.50549,429.342644 2147.37299,431.070678 C2148.2387,432.798712 2150.34091,433.494183 2152.0688,432.626618 C2153.79669,431.760827 2154.49388,429.658445 2153.62816,427.930411" id="Fill-276" fill="#A1CB3A"></path>
                <path d="M2143.62756,432.931163 C2142.76174,431.201999 2140.6582,430.505612 2138.9305,431.373145 C2137.20281,432.240677 2136.50622,434.343608 2137.37203,436.068837 C2138.23982,437.798001 2140.34336,438.494388 2142.07106,437.626855 C2143.79876,436.76129 2144.49338,434.658359 2143.62756,432.931163" id="Fill-278" fill="#0097C0"></path>
                <path d="M2137.52104,440.483308 C2136.40704,438.261679 2133.70284,437.364523 2131.48122,438.478527 C2129.26173,439.594656 2128.36458,442.296752 2129.47858,444.518381 C2130.59257,446.74001 2133.29678,447.63504 2135.5184,446.521036 C2137.74001,445.407033 2138.63504,442.702811 2137.52104,440.483308" id="Fill-280" fill="#0097C0"></path>
                <path d="M2127.6801,434.654996 C2126.93801,433.172945 2125.13439,432.577008 2123.65606,433.319008 C2122.17382,434.061007 2121.57586,435.866344 2122.3199,437.344501 C2123.06199,438.824605 2124.86561,439.424436 2126.34394,438.680489 C2127.82618,437.936542 2128.42414,436.1351 2127.6801,434.654996" id="Fill-282" fill="#A1CB3A"></path>
                <path d="M2121.52131,440.48041 C2120.40659,438.260735 2117.70189,437.363704 2115.482,438.480221 C2113.26212,439.591013 2112.365,442.297375 2113.47781,444.517051 C2114.59443,446.738634 2117.29914,447.635665 2119.51902,446.521056 C2121.737,445.404539 2122.63602,442.703902 2121.52131,440.48041" id="Fill-284" fill="#0097C0"></path>
                <path d="M2101.3608,422.30943 C2099.87569,419.347239 2096.26985,418.153254 2093.30954,419.63831 C2090.34725,421.123366 2089.15323,424.731062 2090.63833,427.691273 C2092.12344,430.653465 2095.72928,431.84745 2098.68959,430.360414 C2101.65188,428.875358 2102.84789,425.269642 2101.3608,422.30943" id="Fill-286" fill="#A1CB3A"></path>
                <path d="M2098.52141,411.480975 C2097.40883,409.259406 2094.70162,408.364913 2092.4838,409.479364 C2090.26231,410.593814 2089.36418,413.297456 2090.47859,415.519025 C2091.593,417.740594 2094.29471,418.635087 2096.5162,417.520636 C2098.73769,416.406186 2099.63582,413.702544 2098.52141,411.480975" id="Fill-288" fill="#0097C0"></path>
                <path d="M2094.68167,400.654476 C2093.94056,399.174208 2092.1334,398.57553 2090.65481,399.320227 C2089.17258,400.063099 2088.57749,401.864608 2089.31861,403.344876 C2090.06155,404.825143 2091.86506,405.423821 2093.3473,404.680949 C2094.82588,403.936252 2095.42279,402.134743 2094.68167,400.654476" id="Fill-290" fill="#0097C0"></path>
                <path d="M2105.78823,393.102803 C2105.29147,392.116633 2104.09097,391.717433 2103.10484,392.212736 C2102.11724,392.708039 2101.71658,393.910073 2102.21334,394.897722 C2102.70862,395.883893 2103.90912,396.283092 2104.89672,395.786311 C2105.88285,395.292486 2106.28203,394.090452 2105.78823,393.102803" id="Fill-292" fill="#A1CB3A"></path>
                <path d="M2101.52237,383.483073 C2100.40838,381.260442 2097.70324,380.364783 2095.48077,381.478851 C2093.26197,382.59292 2092.36454,385.296417 2093.47853,387.519048 C2094.59435,389.738008 2097.29765,390.635504 2099.51645,389.521435 C2101.73892,388.407366 2102.63452,385.702034 2101.52237,383.483073" id="Fill-294" fill="#0097C0"></path>
                <path d="M2110.52151,370.481586 C2109.40528,368.263322 2106.70096,367.363127 2104.48306,368.479535 C2102.25891,369.591786 2101.36509,372.296529 2102.47925,374.518951 C2103.5934,376.739294 2106.29771,377.635331 2108.5177,376.521002 C2110.73768,375.408751 2111.63566,372.704008 2110.52151,370.481586" id="Fill-296" fill="#0097C0"></path>
                <path d="M2126.82276,370.252144 C2126.1347,367.867927 2123.64227,366.4877 2121.25378,367.177813 C2118.86529,367.865848 2117.48916,370.358155 2118.17723,372.74653 C2118.86737,375.132826 2121.3598,376.510974 2123.74829,375.822939 C2126.1347,375.134904 2127.51083,372.640518 2126.82276,370.252144" id="Fill-298" fill="#0097C0"></path>
                <path d="M2113.51995,357.483511 C2112.40848,355.260745 2109.70169,354.365032 2107.48457,355.478358 C2105.26162,356.593627 2104.36389,359.298252 2105.47925,361.519074 C2106.59461,363.739897 2109.29751,364.63561 2111.51852,363.520341 C2113.74147,362.408958 2114.63531,359.702391 2113.51995,357.483511" id="Fill-300" fill="#A1CB3A"></path>
                <path d="M2098.68032,365.655464 C2097.93811,364.173343 2096.13532,363.57776 2094.6548,364.317845 C2093.17429,365.061835 2092.57661,366.864204 2093.31882,368.344373 C2094.06299,369.826494 2095.86578,370.42403 2097.34434,369.68004 C2098.82485,368.938002 2099.42448,367.133681 2098.68032,365.655464" id="Fill-302" fill="#0097C0"></path>
                <path d="M2087.52143,383.481964 C2086.40708,381.261005 2083.70168,380.364472 2081.48114,381.479026 C2079.26263,382.591543 2078.36422,385.297445 2079.47857,387.518404 C2080.59699,389.737325 2083.29832,390.635896 2085.51886,389.521342 C2087.73737,388.406787 2088.63578,385.702923 2087.52143,383.481964" id="Fill-304" fill="#A1CB3A"></path>
                <path d="M2084.84019,405.826413 C2084.46679,405.086797 2083.56806,404.78868 2082.8255,405.159197 C2082.08863,405.531135 2081.78763,406.432586 2082.15962,407.172202 C2082.53019,407.913238 2083.43176,408.211355 2084.17147,407.840838 C2084.9126,407.467481 2085.21218,406.567449 2084.84019,405.826413" id="Fill-306" fill="#0097C0"></path>
                <path d="M2153.68093,445.654629 C2152.93844,444.175355 2151.13365,443.576296 2149.656,444.318689 C2148.17468,445.06292 2147.57554,446.863774 2148.31987,448.344885 C2149.06053,449.825996 2150.86532,450.425056 2152.3448,449.678988 C2153.82613,448.936595 2154.42343,447.133902 2153.68093,445.654629" id="Fill-308" fill="#0097C0"></path>
                <path d="M2172.78617,410.102553 C2172.28965,409.115769 2171.09002,408.718493 2170.1018,409.211884 C2169.11518,409.70848 2168.71797,410.909921 2169.21288,411.898306 C2169.70619,412.883488 2170.90903,413.282366 2171.89565,412.787373 C2172.88547,412.292379 2173.28268,411.090938 2172.78617,410.102553" id="Fill-310" fill="#A1CB3A"></path>
                <path d="M2162.78737,429.104005 C2162.29187,428.114916 2161.0881,427.717793 2160.10157,428.213081 C2159.11504,428.706882 2158.71775,429.91015 2159.21324,430.896264 C2159.70874,431.883866 2160.90805,432.282476 2161.89607,431.787188 C2162.8826,431.2919 2163.28286,430.090119 2162.78737,429.104005" id="Fill-312" fill="#0097C0"></path>
                <path d="M2166.67955,372.654251 C2165.93756,371.174231 2164.13335,370.576755 2162.65327,371.318718 C2161.17514,372.060681 2160.57569,373.864822 2161.31964,375.346796 C2162.06163,376.824864 2163.86584,377.424292 2165.34397,376.680376 C2166.82405,375.938413 2167.42545,374.134272 2166.67955,372.654251" id="Fill-314" fill="#0097C0"></path>
                <path d="M2150.6288,358.93009 C2149.76105,357.202125 2147.65762,356.506429 2145.92906,357.372146 C2144.20224,358.239598 2143.5063,360.340567 2144.37232,362.068532 C2145.24007,363.796496 2147.34003,364.493928 2149.07032,363.62821 C2150.79714,362.759023 2151.49308,360.658054 2150.6288,358.93009" id="Fill-316" fill="#A1CB3A"></path>
                <path d="M2131.14933,401.411832 C2129.16681,397.464822 2124.36152,395.870274 2120.41477,397.851102 C2116.4662,399.83376 2114.86993,404.639373 2116.85062,408.586383 C2118.83132,412.535223 2123.63844,414.129772 2127.58701,412.148944 C2131.53375,410.166285 2133.13003,405.360672 2131.14933,401.411832" id="Fill-318" fill="#0097C0"></path>
                <path d="M2125,406 C2121.02986,419.255405 2103.44623,432.676161 2079.46292,480.868052 C2036.19293,567.812242 2033.3107,578.16763 2013,690" id="Stroke-320" stroke="#0097C0"></path>
                <path d="M0,774.299649 C705.062227,563.966174 1066.5121,800.199965 1465.71881,772.743266 C1910.99498,742.11562 2344.72461,607.917619 2773,714.408009" id="Stroke-322" stroke="#A1CB3A"></path>
            </g>
        </g>
    </g>
</svg>
