<svg width="24" height="11" viewBox="0 0 24 11" fill="none" xmlns="http://www.w3.org/2000/svg">
<path d="M9.84778 5.81551L6.00859 10.1405C5.83724 10.3149 5.56016 10.3149 5.3888 10.1405L4.66693 9.40569C4.49557 9.23129 4.49557 8.94919 4.66693 8.77479L7.47435 5.50008L4.4957 2.39975C4.32435 2.22534 4.32435 1.94331 4.4957 1.76889L5.21758 1.03413C5.38893 0.859718 5.66601 0.859718 5.83737 1.03413L9.84778 5.18465C10.0191 5.35906 10.0191 5.64109 9.84778 5.81551Z" fill="currentColor"/>
<path d="M10.4688 2.75H22.6562C22.9152 2.75 23.125 2.54023 23.125 2.28125V1.34375C23.125 1.08477 22.9152 0.875 22.6562 0.875H10.4688C10.2098 0.875 10 1.08477 10 1.34375V2.28125C10 2.54023 10.2098 2.75 10.4688 2.75ZM22.5312 4.5625H12.3438C12.0848 4.5625 11.875 4.77227 11.875 5.03125V5.96875C11.875 6.2277 12.0848 6.4375 12.3438 6.4375H22.5312C22.7902 6.4375 23 6.2277 23 5.96875V5.03125C23 4.77227 22.7902 4.5625 22.5312 4.5625ZM22.6562 8.25H10.4688C10.2098 8.25 10 8.4598 10 8.7188V9.6562C10 9.9152 10.2098 10.125 10.4688 10.125H22.6562C22.9152 10.125 23.125 9.9152 23.125 9.6562V8.7188C23.125 8.4598 22.9152 8.25 22.6562 8.25Z" fill="currentColor"/>
</svg>
