<svg width="29" height="20" viewBox="0 0 29 20" fill="none" xmlns="http://www.w3.org/2000/svg">
<g clip-path="url(#clip0)">
<path d="M12.25 11.25C11.1289 11.25 10.5898 11.875 8.75 11.875C6.91016 11.875 6.375 11.25 5.25 11.25C2.35156 11.25 0 13.6016 0 16.5V18.125C0 19.1602 0.839844 20 1.875 20H15.625C16.6602 20 17.5 19.1602 17.5 18.125V16.5C17.5 13.6016 15.1484 11.25 12.25 11.25ZM16.25 18.125C16.25 18.4688 15.9688 18.75 15.625 18.75H1.875C1.53125 18.75 1.25 18.4688 1.25 18.125V16.5C1.25 14.293 3.04297 12.5 5.25 12.5C6.01562 12.5 6.77734 13.125 8.75 13.125C10.7188 13.125 11.4844 12.5 12.25 12.5C14.457 12.5 16.25 14.293 16.25 16.5V18.125ZM8.75 10C11.5117 10 13.75 7.76172 13.75 5C13.75 2.23828 11.5117 0 8.75 0C5.98828 0 3.75 2.23828 3.75 5C3.75 7.76172 5.98828 10 8.75 10ZM8.75 1.25C10.8164 1.25 12.5 2.93359 12.5 5C12.5 7.06641 10.8164 8.75 8.75 8.75C6.68359 8.75 5 7.06641 5 5C5 2.93359 6.68359 1.25 8.75 1.25Z" fill="#4E5D78"/>
</g>
<path d="M27.5 0H18.5C17.6727 0 17 0.672656 17 1.5V8.25C17 9.07734 17.6727 9.75 18.5 9.75H20.75V11.7188C20.75 11.8852 20.8859 12 21.0312 12C21.0875 12 21.1461 11.9836 21.1977 11.9438L24.125 9.75H27.5C28.3273 9.75 29 9.07734 29 8.25V1.5C29 0.672656 28.3273 0 27.5 0ZM27.875 8.25C27.875 8.45625 27.7063 8.625 27.5 8.625H23.75L23.45 8.85L21.875 10.0312V8.625H18.5C18.2938 8.625 18.125 8.45625 18.125 8.25V1.5C18.125 1.29375 18.2938 1.125 18.5 1.125H27.5C27.7063 1.125 27.875 1.29375 27.875 1.5V8.25Z" fill="#4E5D78"/>
<defs>
<clipPath id="clip0">
<rect width="17.5" height="20" fill="white"/>
</clipPath>
</defs>
</svg>
