<svg width="29" height="15" viewBox="0 0 29 15" fill="none" xmlns="http://www.w3.org/2000/svg">
<g clip-path="url(#clip0)">
<path d="M9.18449 10.8476L4.85956 7.00843C4.68514 6.83707 4.68514 6.55999 4.85956 6.38863L5.59432 5.66676C5.76873 5.4954 6.05077 5.4954 6.22518 5.66676L9.49992 8.47418L12.6002 5.49554C12.7747 5.32418 13.0567 5.32418 13.2311 5.49554L13.9659 6.21741C14.1403 6.38876 14.1403 6.66585 13.9659 6.8372L9.81535 10.8476C9.64094 11.019 9.35891 11.019 9.18449 10.8476Z" fill="currentColor"/>
</g>
<path d="M14.4688 4.75H26.6562C26.9152 4.75 27.125 4.54023 27.125 4.28125V3.34375C27.125 3.08477 26.9152 2.875 26.6562 2.875H14.4688C14.2098 2.875 14 3.08477 14 3.34375V4.28125C14 4.54023 14.2098 4.75 14.4688 4.75ZM26.5312 6.5625H16.3438C16.0848 6.5625 15.875 6.77227 15.875 7.03125V7.96875C15.875 8.22773 16.0848 8.4375 16.3438 8.4375H26.5312C26.7902 8.4375 27 8.22773 27 7.96875V7.03125C27 6.77227 26.7902 6.5625 26.5312 6.5625ZM26.6562 10.25H14.4688C14.2098 10.25 14 10.4598 14 10.7188V11.6562C14 11.9152 14.2098 12.125 14.4688 12.125H26.6562C26.9152 12.125 27.125 11.9152 27.125 11.6562V10.7188C27.125 10.4598 26.9152 10.25 26.6562 10.25Z" fill="currentColor"/>
<defs>
<clipPath id="clip0">
<rect width="7" height="19" fill="white" transform="translate(19 4) rotate(90)"/>
</clipPath>
</defs>
</svg>
