
<svg width="20px" height="21px" viewBox="0 0 20 21" version="1.1" xmlns="http://www.w3.org/2000/svg" xmlns:xlink="http://www.w3.org/1999/xlink">
    <g id="Page-1" stroke="none" stroke-width="1" fill="none" fill-rule="evenodd">
        <g id="Sign-up-email" transform="translate(-259.000000, -333.000000)">
            <g id="Group-9" transform="translate(259.000000, 333.000000)">
                <path d="M4.356,10.1064 C4.356,9.4504 4.465,8.8204 4.66,8.2304 L1.253,5.6294 C0.59,6.9774 0.216,8.4964 0.216,10.1064 C0.216,11.7154 0.589,13.2334 1.252,14.5804 L4.656,11.9744 C4.463,11.3864 4.356,10.7594 4.356,10.1064" id="Fill-1" fill="#FBBC05"></path>
                <path d="M10.3364,4.1342 C11.7624,4.1342 13.0504,4.6392 14.0634,5.4672 L17.0064,2.5272 C15.2124,0.9652 12.9124,0.0002 10.3364,0.0002 C6.3364,0.0002 2.8994,2.2872 1.2534,5.6292 L4.6594,8.2302 C5.4444,5.8482 7.6814,4.1342 10.3364,4.1342" id="Fill-3" fill="#EA4335"></path>
                <path d="M10.3364,16.0786 C7.6814,16.0786 5.4444,14.3646 4.6594,11.9826 L1.2534,14.5826 C2.8994,17.9256 6.3364,20.2126 10.3364,20.2126 C12.8054,20.2126 15.1624,19.3366 16.9304,17.6936 L13.6974,15.1946 C12.7854,15.7686 11.6364,16.0786 10.3364,16.0786" id="Fill-5" fill="#34A853"></path>
                <path d="M19.9971,10.1064 C19.9971,9.5094 19.9051,8.8664 19.7671,8.2694 L10.3361,8.2694 L10.3361,12.1734 L15.7651,12.1734 C15.4941,13.5044 14.7551,14.5284 13.6981,15.1944 L16.9311,17.6934 C18.7891,15.9694 19.9971,13.4004 19.9971,10.1064" id="Fill-7" fill="#4285F4"></path>
            </g>
        </g>
    </g>
</svg>
