<svg width="24" height="11" viewBox="0 0 24 11" fill="none" xmlns="http://www.w3.org/2000/svg">
<path d="M5.18426 8.84777L0.859331 5.0086C0.684911 4.83724 0.684911 4.56016 0.859331 4.3888L1.59409 3.66693C1.7685 3.49557 2.05054 3.49557 2.22495 3.66693L5.49969 6.47435L8.59997 3.49571C8.77447 3.32435 9.05647 3.32435 9.23087 3.49571L9.96567 4.21758C10.1401 4.38893 10.1401 4.66602 9.96567 4.83737L5.81512 8.84777C5.64071 9.01917 5.35868 9.01917 5.18426 8.84777Z" fill="currentColor"/>
<path d="M10.4688 2.75H22.6562C22.9152 2.75 23.125 2.54023 23.125 2.28125V1.34375C23.125 1.08477 22.9152 0.875 22.6562 0.875H10.4688C10.2098 0.875 10 1.08477 10 1.34375V2.28125C10 2.54023 10.2098 2.75 10.4688 2.75ZM22.5312 4.5625H12.3438C12.0848 4.5625 11.875 4.77227 11.875 5.03125V5.96875C11.875 6.22773 12.0848 6.4375 12.3438 6.4375H22.5312C22.7902 6.4375 23 6.22773 23 5.96875V5.03125C23 4.77227 22.7902 4.5625 22.5312 4.5625ZM22.6562 8.25H10.4688C10.2098 8.25 10 8.4598 10 8.7188V9.6562C10 9.9152 10.2098 10.125 10.4688 10.125H22.6562C22.9152 10.125 23.125 9.9152 23.125 9.6562V8.7188C23.125 8.4598 22.9152 8.25 22.6562 8.25Z" fill="currentColor"/>
</svg>
