<svg width="299" height="153" viewBox="0 0 299 153" fill="none" xmlns="http://www.w3.org/2000/svg">
<path fill-rule="evenodd" clip-rule="evenodd" d="M46.7907 23.5487C43.4751 24.6089 41.7669 29.1054 38.4747 30.1487C34.282 31.4785 33.3896 29.561 29.5975 31.273C24.7964 33.4396 26.5442 38.8471 26.1965 41.9499C25.7705 45.7452 18.6869 48.3737 21.7124 54.158C25.5639 61.5225 37.136 52.6859 40.2391 53.318C45.3015 54.3508 49.8883 57.0986 54.0038 50.5129L46.7907 23.5487Z" fill="#202836"/>
<path d="M27.2749 57.1163C24.6316 57.2614 22.8013 56.2944 21.6896 54.1696C20.8394 52.5429 20.7131 51.0189 21.3049 49.5105C21.8267 48.1816 22.8213 47.0347 23.7839 45.9258C24.9297 44.6053 26.0125 43.3579 26.1699 41.9472C26.2526 41.2109 26.2168 40.3419 26.1789 39.4221C26.1187 37.9651 26.051 36.3131 26.4575 34.8492C26.9249 33.1658 27.9487 31.9891 29.5858 31.2497C31.5779 30.3505 32.7835 30.4506 34.0598 30.5562C35.2463 30.6543 36.472 30.7564 38.4651 30.1242C40.1024 29.6051 41.3708 28.201 42.5981 26.8417C43.8355 25.4725 45.114 24.0564 46.7801 23.5232L46.806 23.5145L46.8134 23.5411L54.0302 50.5156L54.0243 50.5253C52.4548 53.0373 50.736 54.3664 48.6156 54.7073C46.7312 55.0102 44.7839 54.4956 42.7216 53.9498C41.9118 53.7354 41.0744 53.5143 40.2317 53.3423C39.2606 53.144 37.421 53.8946 35.2898 54.763C32.9106 55.7334 30.2131 56.8335 27.732 57.0798C27.578 57.0955 27.425 57.1081 27.2749 57.1163ZM32.427 30.5512C31.639 30.5945 30.755 30.7791 29.6089 31.2962C27.9872 32.0286 26.9735 33.1943 26.5096 34.8619C26.1049 36.3185 26.1723 37.9653 26.2324 39.4191C26.2705 40.3421 26.3063 41.2132 26.2228 41.9526C26.0629 43.3791 24.9751 44.633 23.8232 45.9601C22.8636 47.0656 21.8721 48.2093 21.3531 49.5297C20.767 51.0232 20.8916 52.5328 21.7349 54.1464C22.8983 56.3712 24.86 57.3143 27.7287 57.0301C30.2026 56.7842 32.8959 55.6864 35.272 54.7172C37.4104 53.8453 39.2573 53.0922 40.2443 53.2927C41.089 53.4646 41.9265 53.6868 42.7374 53.9011C44.7943 54.4451 46.7363 54.959 48.6092 54.6577C50.7098 54.32 52.4154 53.001 53.9752 50.5103L46.7721 23.5818C45.1324 24.1167 43.8649 25.5197 42.6396 26.8768C41.4073 28.2405 40.1338 29.6502 38.4831 30.1742C36.4806 30.8089 35.2486 30.7071 34.0578 30.6083C33.5225 30.5628 33 30.5198 32.427 30.5512Z" fill="#231F20"/>
<path fill-rule="evenodd" clip-rule="evenodd" d="M231.413 20.2488L232.356 14.413C231.467 14.0043 228.862 9.52694 229.491 8.81518C229.862 8.4666 230.542 9.06179 230.827 9.38693C231.299 9.9258 231.687 11.2518 232.436 11.1315C233.383 10.9796 233.237 5.32127 233.294 4.37723C233.314 4.03956 233.411 3.73626 233.656 3.68844C234.115 4.19469 234.442 4.97179 234.514 5.90873C234.586 6.84677 234.566 8.49942 234.703 8.54712C234.762 8.53349 235.185 7.51415 235.428 6.27026C235.743 4.65245 235.929 2.71353 236.409 2.72371C236.889 2.73388 237.151 3.997 236.731 6.15085C236.505 7.43239 236.283 8.6366 236.442 8.68731C236.553 8.71665 237.845 4.12146 238.498 4.2826C239.151 4.44477 237.539 9.10336 237.827 9.2001C238.111 9.32519 239.511 6.136 240.076 6.39993C240.642 6.6638 237.941 14.1704 236.984 15.1377L236.023 20.764L231.413 20.2488Z" fill="#FDDBCA"/>
<path fill-rule="evenodd" clip-rule="evenodd" d="M46.9424 133.881C44.5884 144.377 34.097 151.105 23.5097 148.908C12.9225 146.712 6.24854 136.422 8.60355 125.926C10.9575 115.43 21.4489 108.702 32.0362 110.899C42.6234 113.095 49.2974 123.385 46.9424 133.881ZM49.1884 134.346C46.5576 146.072 34.8383 153.587 23.0112 151.134C11.1841 148.68 3.72877 137.185 6.35849 125.46C8.98927 113.734 20.7086 106.219 32.5357 108.672C44.3628 111.127 51.8181 122.621 49.1884 134.346Z" fill="#EFEFFF"/>
<path fill-rule="evenodd" clip-rule="evenodd" d="M69.7673 110.125C68.7934 111.734 67.8822 112.68 66.6194 115.34C65.0233 115.732 63.0417 114.184 63.1926 113.225C63.3434 112.266 65.6916 108.286 65.6916 108.286L69.7673 110.125Z" fill="#FDDBCA"/>
<path fill-rule="evenodd" clip-rule="evenodd" d="M61.3082 115.002C61.9524 115.452 64.4448 117.004 64.6863 117.165C64.9278 117.326 65.2359 117.955 65.3874 118.052C66.1619 118.55 67.4638 118.794 67.7769 118.884C68.09 118.974 72.3876 121.269 72.4656 121.201C72.5436 121.133 72.7964 120.585 72.5018 120.196C72.3534 120 71.6566 119.236 70.8644 118.283C70.0832 117.344 69.2791 116.287 68.9295 115.769C68.7114 115.445 68.6549 115.137 68.478 114.843L68.478 114.842C68.3538 114.598 67.9078 113.217 67.7604 113.164C67.613 113.11 66.7636 113.094 66.6962 113.212C66.6287 113.329 66.435 113.565 66.2107 114.064C65.5636 114.151 65.0743 113.999 64.7496 113.81C63.5747 113.126 64.2974 111.515 64.0957 111.422C63.8102 111.29 62.7504 111.993 61.3082 115.002Z" fill="#2C3442"/>
<path fill-rule="evenodd" clip-rule="evenodd" d="M61.3483 115.035L61.3183 115.044C61.2078 115.135 60.7834 115.536 60.7659 115.665C60.7474 115.793 62.2546 117.164 65.4849 118.835C68.7151 120.505 71.4406 121.867 72.4634 121.202C72.2843 121.212 68.0965 118.981 67.7882 118.892C67.4757 118.802 66.1761 118.56 65.403 118.064C65.2518 117.966 64.9442 117.34 64.7031 117.179C64.4631 117.018 62.0183 115.499 61.3483 115.035Z" fill="#EDEAFD"/>
<path fill-rule="evenodd" clip-rule="evenodd" d="M23.8147 129.082C23.3284 131.25 24.7062 133.375 26.8929 133.829C29.0796 134.282 31.246 132.893 31.7323 130.725C32.2187 128.558 30.8408 126.433 28.6541 125.979C26.4674 125.525 24.301 126.914 23.8147 129.082Z" fill="#E3E3E3"/>
<path fill-rule="evenodd" clip-rule="evenodd" d="M82.5251 83.2936C82.134 81.7053 81.5697 81.0239 81.0375 80.112C78.9322 76.4974 60.7312 74.0843 56.2455 73.7377C54.7521 73.9299 54.8469 73.255 52.7871 73.6842L45.7182 74.484C45.7759 86.7653 53.5108 87.6303 72.7954 85.8742L62.1462 109.844L69.3119 111.971C74.9806 102.284 83.7193 88.149 82.5251 83.2936Z" fill="#74991C"/>
<path fill-rule="evenodd" clip-rule="evenodd" d="M274.333 98.4273C285.169 97.8326 294.33 106.031 294.796 116.737C295.262 127.444 286.855 136.605 276.02 137.2C265.184 137.795 256.023 129.597 255.557 118.89C255.091 108.184 263.497 99.022 274.333 98.4273ZM274.234 96.1564C286.339 95.4921 296.574 104.65 297.094 116.611C297.615 128.572 288.224 138.807 276.119 139.471C264.014 140.135 253.779 130.977 253.259 119.016C252.738 107.056 262.129 96.8207 274.234 96.1564Z" fill="#EFEFFF"/>
<path fill-rule="evenodd" clip-rule="evenodd" d="M275.44 123.877C278.829 123.691 281.458 120.825 281.312 117.477C281.167 114.129 278.301 111.565 274.913 111.751C271.524 111.937 268.895 114.802 269.041 118.15C269.186 121.499 272.052 124.063 275.44 123.877Z" fill="#FFDFE5"/>
<path fill-rule="evenodd" clip-rule="evenodd" d="M119.48 26.5256L119.471 24.9444C120.882 23.394 120.187 22.1507 120.343 21.2762C120.5 20.4016 121.023 18.5889 120.465 18.2834C119.905 17.9791 119.293 21.1249 118.933 20.9558C118.572 20.7866 118.137 19.5197 118.643 18.0345C118.879 17.3413 119.017 17.0771 119.017 17.0771C119.246 16.8455 120.232 15.6011 119.845 15.109C119.151 15.7479 117.461 16.6081 117.107 17.242C116.753 17.8759 116.21 19.985 116.31 20.616C116.409 21.247 116.881 23.115 117.152 23.7356C117.211 24.4074 116.973 26.4414 116.973 26.4414L119.48 26.5256Z" fill="#FDDBCA"/>
<path fill-rule="evenodd" clip-rule="evenodd" d="M119.55 15.3545C118.753 15.9554 117.422 16.6825 117.111 17.2359C116.756 17.8702 116.212 19.9803 116.312 20.6116C116.411 21.2429 116.885 23.1118 117.156 23.7327C117.216 24.4048 116.977 26.4398 116.977 26.4398L117.194 26.4468C117.327 25.6128 117.646 23.659 117.816 23.0902C117.598 22.7023 116.82 20.4221 116.861 19.9501C116.902 19.4781 117.693 17.4944 117.815 17.2352C117.938 16.9779 119.396 15.5466 119.55 15.3545Z" fill="#E3BCA9"/>
<path fill-rule="evenodd" clip-rule="evenodd" d="M131.439 135.735C131.439 135.735 128.108 130.919 125.148 125.969C125.14 125.956 125.132 125.943 125.125 125.93C124.735 125.253 124.98 124.385 125.67 123.993C126.36 123.6 127.236 123.831 127.624 124.508C127.632 124.521 127.639 124.534 127.646 124.547C130.432 129.598 132.911 134.896 132.911 134.896L131.439 135.735Z" fill="#E3E3E3"/>
<path fill-rule="evenodd" clip-rule="evenodd" d="M128.577 125.307C129.036 127.11 129.064 128.406 130.071 131.142C129.214 132.534 126.688 132.847 126.108 132.074C125.528 131.301 124.348 126.885 124.348 126.885L128.577 125.307Z" fill="#FBCA63"/>
<path fill-rule="evenodd" clip-rule="evenodd" d="M126.007 134.646C126.786 134.508 129.666 133.846 129.953 133.789C130.24 133.732 130.908 133.952 131.085 133.914C131.992 133.719 133.092 132.982 133.378 132.826C133.665 132.67 138.36 131.266 138.366 131.165C138.374 131.065 138.162 130.51 137.674 130.446C137.429 130.414 136.388 130.37 135.142 130.264C133.916 130.16 132.589 129.989 131.97 129.874C131.584 129.804 131.324 129.63 130.988 129.549L130.987 129.55C130.724 129.467 129.42 128.825 129.277 128.891C129.134 128.956 128.519 129.536 128.555 129.664C128.591 129.792 128.622 130.089 128.819 130.589C128.421 131.099 127.964 131.334 127.598 131.43C126.275 131.774 125.636 130.16 125.427 130.236C125.133 130.343 124.882 131.566 126.007 134.646Z" fill="#2C3442"/>
<path fill-rule="evenodd" clip-rule="evenodd" d="M126.043 134.662L126.027 134.69C126.015 134.829 125.999 135.399 126.078 135.5C126.156 135.6 128.212 135.502 131.707 134.414C135.202 133.325 138.117 132.374 138.369 131.208C138.248 131.339 133.67 132.704 133.388 132.857C133.101 133.012 132.003 133.745 131.096 133.939C130.919 133.977 130.251 133.758 129.964 133.815C129.681 133.87 126.852 134.518 126.043 134.662Z" fill="#EDEAFD"/>
<path fill-rule="evenodd" clip-rule="evenodd" d="M131.294 128.016L111.793 76.8016C111.793 76.8016 102.976 71.0795 99.8829 79.9623L123.217 130.042L131.294 128.016Z" fill="#1A578D"/>
<path fill-rule="evenodd" clip-rule="evenodd" d="M232.599 98.8212C232.242 100.788 231.693 102.072 231.453 105.194C230.002 106.186 227.415 105.394 227.196 104.385C226.978 103.375 227.797 98.532 227.797 98.532L232.599 98.8212Z" fill="#FBCA63"/>
<path fill-rule="evenodd" clip-rule="evenodd" d="M225.98 106.871C226.798 107.074 229.888 107.673 230.192 107.741C230.496 107.809 231.046 108.316 231.235 108.355C232.202 108.557 233.598 108.309 233.946 108.28C234.295 108.252 239.477 108.908 239.53 108.811C239.581 108.715 239.623 108.078 239.179 107.803C238.955 107.664 237.964 107.17 236.804 106.526C235.661 105.891 234.449 105.147 233.9 104.766C233.557 104.529 233.382 104.245 233.092 104.02L233.091 104.019C232.874 103.824 231.895 102.628 231.726 102.63C231.558 102.631 230.702 102.935 230.68 103.076C230.657 103.217 230.554 103.523 230.522 104.101C229.908 104.429 229.359 104.463 228.963 104.398C227.525 104.164 227.627 102.299 227.389 102.283C227.055 102.262 226.265 103.355 225.98 106.871Z" fill="#2C3442"/>
<path fill-rule="evenodd" clip-rule="evenodd" d="M226.03 106.918L226.002 106.938C225.927 107.068 225.657 107.619 225.688 107.752C225.719 107.884 227.757 108.669 231.633 109.106C235.509 109.543 238.762 109.864 239.528 108.833C239.352 108.909 234.303 108.278 233.959 108.306C233.612 108.334 232.218 108.579 231.253 108.38C231.064 108.341 230.515 107.842 230.211 107.773C229.911 107.706 226.879 107.125 226.03 106.918Z" fill="#EDEAFD"/>
<path fill-rule="evenodd" clip-rule="evenodd" d="M216.592 78.2572C220.925 79.3254 224.311 79.4431 227.503 79.5809C228.027 87.2381 226.663 100.957 226.663 100.957L234.045 101.08C234.045 101.08 235.416 94.7827 236.646 87.0864C237.521 81.6077 238.272 75.9132 237.276 73.8957C234.97 69.233 212.949 66.1993 212.949 66.1993C212.853 66.3574 206.306 66.8145 202.984 67.158C206.866 70.1349 212.933 74.1274 216.061 77.7436C216.242 77.9177 216.419 78.0889 216.592 78.2572Z" fill="#1A578D"/>
<path fill-rule="evenodd" clip-rule="evenodd" d="M166.69 104.708C166.333 106.545 165.804 107.741 165.543 110.66C164.174 111.572 161.762 110.802 161.569 109.854C161.377 108.906 162.201 104.381 162.201 104.381L166.69 104.708Z" fill="#FDDBCA"/>
<path fill-rule="evenodd" clip-rule="evenodd" d="M160.401 112.168C161.835 112.543 172.588 114.992 173.06 114.142C173.11 114.052 173.156 113.456 172.744 113.194C172.536 113.062 171.614 112.588 170.536 111.971C169.474 111.363 168.348 110.653 167.839 110.291C167.521 110.064 167.361 109.796 167.092 109.582L167.091 109.581C166.889 109.397 165.987 108.264 165.83 108.264C165.672 108.264 164.868 108.538 164.845 108.67C164.822 108.801 164.723 109.087 164.685 109.627C164.107 109.928 163.592 109.953 163.222 109.887C161.879 109.65 161.997 107.906 161.774 107.888C161.461 107.864 160.709 108.878 160.401 112.168Z" fill="#A1CC3A"/>
<path fill-rule="evenodd" clip-rule="evenodd" d="M160.448 112.211L160.423 112.229C160.351 112.349 160.091 112.863 160.119 112.987C160.146 113.111 162.043 113.87 165.666 114.323C169.288 114.776 172.328 115.116 173.058 114.158C171.471 114.824 162.614 112.765 160.448 112.211Z" fill="white"/>
<path fill-rule="evenodd" clip-rule="evenodd" d="M169.155 80.9538L159.67 105.835L166.465 107.979C166.465 107.979 179.047 84.5404 179.266 84.1981C183.321 79.7478 180.997 76.2913 180.325 75.4697C179.653 74.648 164.943 67.9896 164.943 67.9896C164.943 67.9896 162.922 67.0262 155.779 68.1243L169.155 80.9538Z" fill="#74991C"/>
<path d="M208.328 82.5411C208.234 82.5463 208.138 82.5371 208.043 82.5123L191.296 78.1218C189.81 78.2434 188.65 76.8284 187.318 75.1974C185.621 73.1211 183.697 70.7708 180.946 71.0579C180.441 71.1103 179.992 70.7513 179.946 70.2534C179.898 69.7556 180.268 69.3093 180.774 69.2569C184.515 68.8639 186.965 71.8616 188.754 74.0497C189.568 75.0453 190.681 76.405 191.205 76.3101C191.341 76.2841 191.481 76.2888 191.614 76.3239L208.536 80.7607C209.024 80.8891 209.31 81.3852 209.175 81.8682C209.064 82.2569 208.715 82.5199 208.328 82.5411Z" fill="#2C3442"/>
<path d="M192.024 77.9588C191.519 77.9865 191.087 77.6095 191.057 77.1104C190.871 74.0495 189.925 71.3912 188.08 68.7475C187.791 68.3336 187.901 67.7622 188.324 67.473C188.748 67.1828 189.327 67.2836 189.615 67.6976C191.629 70.5845 192.706 73.6195 192.91 76.9788C192.94 77.4831 192.551 77.9217 192.039 77.958C192.034 77.9583 192.029 77.9585 192.024 77.9588Z" fill="#2C3442"/>
<path fill-rule="evenodd" clip-rule="evenodd" d="M199.35 77.8314C201.336 78.294 203.061 77.2579 205.689 76.8309C208.317 76.4038 213.249 77.218 213.695 76.1107C214 75.3546 213.598 74.2875 210.695 73.8009C209.869 73.6628 207.276 73.4966 204.713 73.0183C200.507 72.2334 195.833 71.1954 195.121 72.4231C193.864 74.5834 197.702 77.4471 199.35 77.8314Z" fill="#2C3442"/>
<path d="M200.665 77.9627C200.229 77.9864 199.792 77.9578 199.344 77.8536C198.119 77.5686 195.786 75.9577 195.072 74.3181C194.765 73.6128 194.774 72.9716 195.1 72.4108C195.752 71.2882 199.68 72.0368 203.478 72.7605C203.893 72.8398 204.307 72.918 204.717 72.9954C206.429 73.3145 208.121 73.4918 209.356 73.6209C209.953 73.683 210.424 73.7324 210.699 73.7781C212.275 74.0418 213.299 74.5177 213.659 75.1522C213.875 75.5334 213.81 75.8876 213.716 76.118C213.44 76.8026 211.505 76.7692 209.458 76.7327C208.115 76.7092 206.726 76.6841 205.692 76.8525C204.764 77.0039 203.965 77.2254 203.194 77.4402C202.298 77.6906 201.481 77.9182 200.665 77.9627ZM199.355 77.8098C200.633 78.1073 201.814 77.7787 203.181 77.3977C203.955 77.1827 204.754 76.9602 205.685 76.8087C206.723 76.64 208.114 76.664 209.459 76.6884C211.489 76.7237 213.409 76.758 213.674 76.1028C213.764 75.8819 213.826 75.5412 213.618 75.175C213.172 74.3879 211.779 74.0051 210.691 73.8227C210.417 73.777 209.946 73.7275 209.35 73.6654C208.114 73.5363 206.421 73.3602 204.707 73.0401C204.297 72.9637 203.883 72.8845 203.469 72.8053C199.686 72.0848 195.775 71.3393 195.14 72.4333C194.822 72.9813 194.813 73.6092 195.114 74.3004C195.823 75.9279 198.14 77.5264 199.355 77.8098Z" fill="#231F20"/>
<path d="M158.957 84.9587C158.863 84.9639 158.767 84.9547 158.671 84.9299L141.923 80.538C141.902 80.5402 141.881 80.5413 141.859 80.5425C140.375 80.6238 139.341 79.1341 138.251 77.5618C136.822 75.5032 135.202 73.1717 132.493 73.4545C131.988 73.509 131.539 73.1478 131.492 72.6498C131.444 72.1519 131.816 71.7054 132.321 71.653C136.116 71.2569 138.228 74.301 139.772 76.5259C140.443 77.4925 141.36 78.8147 141.831 78.7268C141.968 78.7008 142.107 78.7055 142.24 78.7407L159.164 83.1788C159.652 83.3073 159.938 83.8035 159.803 84.2867C159.693 84.6744 159.344 84.9375 158.957 84.9587Z" fill="#2C3442"/>
<path d="M142.653 80.3714C142.148 80.399 141.716 80.0221 141.686 79.523C141.5 76.4611 140.553 73.8038 138.709 71.1601C138.42 70.7461 138.53 70.1747 138.953 69.8856C139.377 69.5964 139.956 69.6962 140.244 70.1102C142.258 72.997 143.335 76.0321 143.539 79.3914C143.569 79.8957 143.18 80.3342 142.666 80.3706C142.663 80.3708 142.658 80.3711 142.653 80.3714Z" fill="#2C3442"/>
<path d="M109.586 87.3663C109.492 87.3715 109.396 87.3622 109.3 87.3375L92.5532 82.947C91.0634 83.0678 89.9074 81.6526 88.5752 80.0226C86.8784 77.9473 84.9577 75.5958 82.2036 75.883C81.6981 75.9366 81.2502 75.5765 81.2033 75.0786C81.1553 74.5808 81.5272 74.1345 82.0316 74.082C85.7737 73.6921 88.223 76.6868 90.0118 78.8749C90.8253 79.8705 91.9412 81.2311 92.4626 81.1353C92.5989 81.1092 92.7387 81.114 92.8713 81.1491L109.794 85.5859C110.283 85.7142 110.568 86.2104 110.433 86.6934C110.322 87.082 109.973 87.3451 109.586 87.3663Z" fill="#2C3442"/>
<path d="M93.2814 82.7842C92.7763 82.8119 92.3446 82.4349 92.3143 81.9358C92.1287 78.8739 91.1822 76.2166 89.338 73.5729C89.0488 73.159 89.1583 72.5876 89.5821 72.2984C90.0059 72.0092 90.5844 72.109 90.8726 72.523C92.8863 75.4099 93.9637 78.445 94.1676 81.8042C94.1981 82.3085 93.8073 82.7471 93.2951 82.7835C93.292 82.7837 93.2867 82.7839 93.2814 82.7842Z" fill="#2C3442"/>
<path fill-rule="evenodd" clip-rule="evenodd" d="M149.979 80.244C151.965 80.7065 153.69 79.6705 156.318 79.2435C158.944 78.8165 163.878 79.6305 164.324 78.5233C164.629 77.7672 164.227 76.7001 161.324 76.2135C160.498 76.0754 157.905 75.9092 155.342 75.4309C151.136 74.646 146.462 73.608 145.75 74.8357C144.493 76.996 148.331 79.8597 149.979 80.244Z" fill="#2C3442"/>
<path d="M151.293 80.3753C150.857 80.399 150.421 80.3704 149.973 80.2662C148.748 79.9812 146.415 78.3703 145.7 76.7307C145.394 76.0265 145.402 75.3842 145.729 74.8234C146.381 73.7008 150.308 74.4494 154.107 75.1731C154.521 75.2524 154.936 75.3306 155.346 75.408C157.058 75.7271 158.75 75.9043 159.985 76.0335C160.582 76.0956 161.052 76.145 161.328 76.1906C162.904 76.4544 163.928 76.9303 164.288 77.5648C164.504 77.9459 164.439 78.3002 164.345 78.5306C164.068 79.2152 162.134 79.1818 160.085 79.1453C158.743 79.1218 157.354 79.0967 156.32 79.2652C155.391 79.4166 154.593 79.638 153.822 79.8528C152.927 80.1032 152.11 80.3308 151.293 80.3753ZM149.984 80.2224C151.262 80.5199 152.442 80.1913 153.81 79.8102C154.584 79.5953 155.383 79.3728 156.313 79.2213C157.352 79.0526 158.743 79.0765 160.088 79.101C162.119 79.1363 164.038 79.1706 164.303 78.5154C164.392 78.2945 164.455 77.9538 164.247 77.5876C163.801 76.8005 162.408 76.4177 161.319 76.2353C161.046 76.1896 160.575 76.1401 159.979 76.078C158.743 75.9489 157.05 75.7728 155.336 75.4527C154.926 75.3763 154.512 75.2971 154.097 75.2179C150.315 74.4974 146.404 73.7519 145.769 74.8459C145.451 75.3939 145.442 76.0218 145.743 76.713C146.451 78.3405 148.768 79.939 149.984 80.2224Z" fill="#231F20"/>
<path fill-rule="evenodd" clip-rule="evenodd" d="M100.608 82.6566C102.594 83.1191 104.319 82.0831 106.946 81.6561C109.573 81.2291 114.506 82.0432 114.953 80.9359C115.258 80.1798 114.856 79.1127 111.952 78.6261C111.127 78.488 108.534 78.3218 105.97 77.8435C101.765 77.0586 97.0907 76.0206 96.3784 77.2483C95.1221 79.4086 98.9599 82.2723 100.608 82.6566Z" fill="#2C3442"/>
<path d="M101.922 82.788C101.486 82.8117 101.05 82.7831 100.602 82.6789C99.377 82.394 97.0436 80.783 96.3293 79.1434C96.0228 78.4392 96.0314 77.7969 96.3579 77.2361C97.0099 76.1135 100.937 76.8621 104.736 77.5858C105.15 77.6651 105.565 77.7433 105.975 77.8207C107.686 78.1398 109.378 78.3171 110.614 78.4462C111.211 78.5083 111.681 78.5577 111.957 78.6034C113.533 78.8671 114.557 79.3431 114.917 79.9776C115.133 80.3587 115.068 80.7129 114.974 80.9433C114.698 81.6279 112.763 81.5945 110.714 81.558C109.372 81.5345 107.984 81.5094 106.949 81.6779C106.02 81.8293 105.222 82.0507 104.45 82.2655C103.556 82.5159 102.739 82.7435 101.922 82.788ZM100.613 82.6351C101.891 82.9327 103.071 82.604 104.439 82.223C105.213 82.008 106.012 81.7855 106.942 81.634C107.981 81.4653 109.372 81.4893 110.717 81.5137C112.748 81.549 114.667 81.5833 114.931 80.9281C115.02 80.7073 115.084 80.3665 114.876 80.0004C114.43 79.2132 113.037 78.8304 111.948 78.6481C111.675 78.6023 111.204 78.5529 110.608 78.4907C109.372 78.3616 107.679 78.1855 105.966 77.8654C105.556 77.789 105.142 77.7098 104.727 77.6305C100.945 76.91 97.0342 76.1656 96.3987 77.2586C96.081 77.8066 96.0719 78.4345 96.3726 79.1257C97.0801 80.7532 99.3972 82.3517 100.613 82.6351Z" fill="#231F20"/>
<path fill-rule="evenodd" clip-rule="evenodd" d="M51.2363 85.0694C53.2228 85.5319 54.9476 84.4959 57.5753 84.0689C60.2019 83.6419 65.1353 84.4559 65.5814 83.3487C65.8868 82.5926 65.4848 81.5254 62.5812 81.0389C61.7556 80.9008 59.1627 80.7346 56.5991 80.2562C52.3933 79.4714 47.7195 78.4334 47.0072 79.6611C45.7509 81.8214 49.5886 84.6851 51.2363 85.0694Z" fill="#2C3442"/>
<path d="M52.5511 85.2006C52.1151 85.2244 51.6788 85.1957 51.2309 85.0915C50.0058 84.8066 47.6724 83.1956 46.9581 81.556C46.6515 80.8508 46.6601 80.2095 46.9867 79.6487C47.6387 78.5261 51.5661 79.2747 55.3647 79.9984C55.779 80.0777 56.1933 80.1559 56.6033 80.2333C58.3152 80.5524 60.0073 80.7297 61.2423 80.8588C61.8393 80.9209 62.31 80.9703 62.5855 81.016C64.1619 81.2797 65.1858 81.7557 65.5458 82.3902C65.7616 82.7713 65.6964 83.1255 65.6038 83.3558C65.3278 84.0404 63.3926 84.007 61.3441 83.9706C60.0015 83.9471 58.6138 83.9219 57.5783 84.0905C56.6501 84.2418 55.8517 84.4633 55.0803 84.6781C54.1836 84.9285 53.3677 85.1561 52.5511 85.2006ZM51.2416 85.0477C52.5197 85.3453 53.7001 85.0166 55.0679 84.6356C55.8414 84.4206 56.6408 84.1981 57.5712 84.0466C58.6098 83.8779 60.0006 83.9019 61.3453 83.9263C63.377 83.9616 65.2954 83.9959 65.5602 83.3407C65.649 83.1199 65.7127 82.7791 65.5049 82.413C65.0585 81.6258 63.6656 81.243 62.576 81.0607C62.3025 81.0149 61.8318 80.9655 61.2359 80.9034C59.9998 80.7743 58.3067 80.5981 56.5938 80.278C56.1838 80.2017 55.7694 80.1224 55.3551 80.0432C51.5724 79.3227 47.6619 78.5773 47.0264 79.6712C46.7088 80.2192 46.6996 80.8471 47.0003 81.5383C47.7088 83.1658 50.026 84.7643 51.2416 85.0477Z" fill="#231F20"/>
<path d="M225.434 121.25C225.338 121.255 225.244 121.259 225.148 121.264L175.727 123.967C175.209 123.995 174.726 123.721 174.494 123.266C174.263 122.811 174.327 122.262 174.657 121.862L208.271 81.2233C208.508 80.9366 208.856 80.7615 209.229 80.7412L258.736 78.0333C259.13 78.0118 259.51 78.1656 259.773 78.4507C260.035 78.737 260.153 79.1251 260.092 79.5096C259.245 84.8685 257.588 90.1788 255.165 95.2943C252.884 100.109 250.039 104.525 246.707 108.424C240.049 116.216 232.315 120.874 225.434 121.25ZM178.56 121.219L225.047 118.676C225.056 118.676 225.063 118.676 225.071 118.675C228.102 118.563 231.493 117.417 234.88 115.36C238.26 113.307 241.658 110.337 244.706 106.769C247.887 103.048 250.605 98.8266 252.786 94.2221C254.866 89.8308 256.355 85.2921 257.223 80.7078L209.929 83.2946L178.56 121.219Z" fill="#59AFC7"/>
<path d="M207.805 75.858L205.363 76.9111L224.018 120.385L226.46 119.331L207.805 75.858Z" fill="#59AFC7"/>
<path d="M175.789 123.676L126.357 126.379C125.839 126.408 125.356 126.134 125.124 125.678C124.893 125.224 124.956 124.674 125.285 124.275L158.9 83.6359C159.137 83.3492 159.485 83.1742 159.858 83.1538L209.365 80.4459C210.09 80.4063 210.703 80.9533 210.735 81.6674C210.766 82.3815 210.203 82.9929 209.478 83.0325L160.556 85.7083L129.188 123.632L175.675 121.089C176.4 121.049 177.013 121.596 177.045 122.311C177.076 123.025 176.514 123.636 175.789 123.676Z" fill="#59AFC7"/>
<path d="M126.418 126.088L76.9858 128.792C76.4679 128.82 75.9849 128.546 75.7532 128.091C75.5215 127.637 75.5845 127.087 75.9143 126.688L109.529 86.0485C109.766 85.7618 110.114 85.5868 110.488 85.5663L159.995 82.8585C160.72 82.8188 161.333 83.3658 161.365 84.0799C161.396 84.7941 160.833 85.4054 160.108 85.4451L111.186 88.1209L79.8175 126.044L126.305 123.502C127.03 123.462 127.643 124.009 127.675 124.723C127.706 125.437 127.143 126.049 126.418 126.088Z" fill="#59AFC7"/>
<path d="M158.435 78.2714L155.993 79.3245L174.648 122.798L177.09 121.745L158.435 78.2714Z" fill="#59AFC7"/>
<path d="M109.064 80.683L106.623 81.7357L125.278 125.209L127.719 124.156L109.064 80.683Z" fill="#59AFC7"/>
<path d="M59.694 83.0943L57.2528 84.147L75.9082 127.62L78.3494 126.568L59.694 83.0943Z" fill="#59AFC7"/>
<path d="M77.1219 128.497L27.6146 131.205C27.2211 131.226 26.841 131.072 26.5779 130.787C26.3157 130.501 26.1981 130.113 26.2589 129.728C27.1062 124.365 28.7426 119.058 31.1231 113.954C33.3703 109.135 36.1712 104.721 39.446 100.833C46.0984 92.9343 53.8879 88.2597 60.8202 87.9962L110.623 85.2722C111.141 85.2439 111.624 85.518 111.855 85.9733C112.087 86.4275 112.024 86.9774 111.694 87.3766L78.0796 128.016C77.8434 128.3 77.4945 128.476 77.1219 128.497ZM29.1278 128.529L76.423 125.942L107.792 88.0187L60.9226 90.5823C60.9142 90.5828 60.9069 90.5832 60.8985 90.5836C57.8281 90.6968 54.5506 91.8099 51.1539 93.8922C47.8154 95.9383 44.4637 98.9055 41.4601 102.471C38.3338 106.182 35.6587 110.402 33.5094 115.012C31.4635 119.397 29.993 123.938 29.1278 128.529Z" fill="#59AFC7"/>
<path d="M257.588 73.3206L261.2 85.5891C264.151 94.3664 268.036 104.311 274.154 115.254C274.791 115.228 275.498 115.646 276.001 116.556C276.503 117.465 276.443 118.637 275.755 118.972C275.067 119.307 273.978 118.616 273.509 117.768C273.041 116.921 273.061 116.336 273.29 115.84C267.453 106.903 262.733 96.7819 258.926 86.2194L258.904 86.1518L255.281 73.8432L257.588 73.3206Z" fill="#59AFC7"/>
<path fill-rule="evenodd" clip-rule="evenodd" d="M230.347 109.634C230.347 109.634 226.919 114.459 223.857 119.419C223.85 119.432 223.841 119.445 223.833 119.457C223.43 120.135 223.655 121.001 224.336 121.391C225.017 121.781 225.896 121.547 226.299 120.869C226.307 120.856 226.315 120.842 226.322 120.83C229.211 115.771 231.799 110.466 231.799 110.466L230.347 109.634Z" fill="#E3E3E3"/>
<path d="M253.622 74.9334C252.192 75.0117 251.291 73.7713 250.419 72.5697C249.219 70.9161 247.976 69.2068 245.261 69.4922C244.755 69.5448 244.307 69.1853 244.26 68.6868C244.212 68.1885 244.583 67.7417 245.089 67.6891C248.859 67.2932 250.628 69.7251 251.917 71.5022C252.688 72.5634 253.189 73.2036 253.644 73.1104L258.477 72.1386C258.879 71.4303 259.214 68.6461 259.163 67.5071L258.051 66.5567C257.67 66.2309 257.632 65.6584 257.967 65.2778C258.302 64.8971 258.883 64.8529 259.264 65.1788L260.648 66.3617C260.806 66.4969 260.911 66.6826 260.947 66.8877C261.055 67.5153 260.981 69.0731 260.779 70.435C260.448 72.6652 259.922 73.694 259.022 73.8747L253.988 74.8865C253.863 74.9119 253.741 74.9269 253.622 74.9334Z" fill="#2C3442"/>
<path d="M258.386 74.4393L255.121 75.1828C254.754 75.2661 254.367 75.0366 254.261 74.6727L253.894 73.4094C253.788 73.0455 254.001 72.6796 254.368 72.5963L257.632 71.8528C258 71.7695 258.386 71.999 258.493 72.3629L258.859 73.6262C258.966 73.9901 258.753 74.356 258.386 74.4393Z" fill="#2C3442"/>
<path d="M259.061 76.3214L255.76 77.3071L259.234 89.1776L262.536 88.192L259.061 76.3214Z" fill="#59AFC7"/>
<path fill-rule="evenodd" clip-rule="evenodd" d="M227.64 117.273C227.147 117.905 226.21 118.362 225.117 118.422C224.026 118.482 223.053 118.13 222.507 117.555C223.162 116.916 224.045 116.5 225.031 116.446C226.018 116.393 226.933 116.709 227.64 117.273ZM226.561 123.808C226.259 123.076 226.339 122.049 226.845 121.084C227.351 120.12 228.156 119.46 228.939 119.274C229.003 119.521 229.041 119.778 229.053 120.043C229.126 121.732 228.078 123.223 226.561 123.808ZM221.39 119.69C222.185 119.788 223.044 120.358 223.631 121.262C224.219 122.166 224.386 123.18 224.15 123.941C222.59 123.526 221.417 122.156 221.344 120.467C221.332 120.202 221.348 119.942 221.39 119.69ZM224.962 114.83C227.995 114.663 230.559 116.958 230.69 119.955C230.82 122.951 228.467 125.516 225.434 125.682C222.402 125.849 219.837 123.554 219.707 120.557C219.576 117.561 221.929 114.996 224.962 114.83Z" fill="#2C3442"/>
<path fill-rule="evenodd" clip-rule="evenodd" d="M218.313 130.059C218.313 130.059 220.903 124.754 223.791 119.696C223.798 119.683 223.805 119.669 223.813 119.656C224.216 118.978 225.094 118.745 225.776 119.134C226.457 119.524 226.682 120.389 226.28 121.068C226.272 121.081 226.264 121.094 226.255 121.107C223.194 126.066 219.766 130.891 219.766 130.891L218.313 130.059Z" fill="#E3E3E3"/>
<path fill-rule="evenodd" clip-rule="evenodd" d="M224.949 119.138C225.578 119.104 226.111 119.581 226.138 120.202C226.165 120.824 225.676 121.357 225.047 121.391C224.418 121.426 223.885 120.949 223.858 120.327C223.831 119.706 224.319 119.173 224.949 119.138Z" fill="#5432C1"/>
<path fill-rule="evenodd" clip-rule="evenodd" d="M165.793 116.189C165.793 116.189 170.146 120.094 174.684 123.655C174.696 123.665 174.708 123.674 174.72 123.684C175.343 124.155 176.24 124.033 176.725 123.412C177.21 122.79 177.098 121.904 176.475 121.432C176.463 121.422 176.45 121.414 176.438 121.405C171.777 118.001 166.828 114.861 166.828 114.861L165.793 116.189Z" fill="#E3E3E3"/>
<path fill-rule="evenodd" clip-rule="evenodd" d="M178.269 119.686C177.776 120.318 176.839 120.774 175.746 120.834C174.655 120.894 173.682 120.542 173.135 119.967C173.79 119.329 174.674 118.913 175.66 118.859C176.647 118.806 177.562 119.122 178.269 119.686ZM177.19 126.22C176.888 125.488 176.967 124.461 177.473 123.497C177.98 122.533 178.785 121.872 179.568 121.687C179.631 121.934 179.67 122.191 179.681 122.456C179.755 124.144 178.707 125.636 177.19 126.22ZM172.019 122.102C172.814 122.201 173.673 122.77 174.26 123.674C174.848 124.579 175.015 125.592 174.779 126.354C173.219 125.938 172.046 124.568 171.973 122.88C171.961 122.615 171.977 122.355 172.019 122.102ZM175.591 117.242C178.624 117.076 181.188 119.371 181.318 122.367C181.449 125.364 179.096 127.928 176.063 128.095C173.03 128.261 170.466 125.967 170.335 122.97C170.205 119.973 172.558 117.409 175.591 117.242Z" fill="#2C3442"/>
<path fill-rule="evenodd" clip-rule="evenodd" d="M128.898 122.098C128.405 122.73 127.467 123.187 126.375 123.247C125.284 123.307 124.311 122.955 123.764 122.38C124.419 121.741 125.303 121.326 126.289 121.272C127.275 121.219 128.191 121.534 128.898 122.098ZM127.819 128.633C127.517 127.901 127.596 126.874 128.102 125.91C128.608 124.945 129.414 124.285 130.197 124.099C130.26 124.347 130.299 124.603 130.31 124.869C130.384 126.557 129.336 128.049 127.819 128.633ZM122.646 124.515C123.442 124.614 124.301 125.183 124.888 126.087C125.475 126.991 125.643 128.005 125.406 128.766C123.846 128.351 122.674 126.981 122.6 125.293C122.589 125.027 122.606 124.768 122.646 124.515ZM126.22 119.655C129.252 119.489 131.817 121.783 131.947 124.78C132.078 127.777 129.725 130.341 126.692 130.507C123.659 130.674 121.095 128.379 120.964 125.383C120.834 122.386 123.187 119.821 126.22 119.655Z" fill="#2C3442"/>
<path fill-rule="evenodd" clip-rule="evenodd" d="M184.544 130.489C184.544 130.489 179.594 127.35 174.933 123.945C174.921 123.936 174.908 123.927 174.896 123.918C174.273 123.446 174.161 122.56 174.646 121.938C175.131 121.317 176.029 121.196 176.651 121.666C176.663 121.676 176.675 121.685 176.687 121.695C181.226 125.256 185.578 129.161 185.578 129.161L184.544 130.489Z" fill="#E3E3E3"/>
<path d="M222.365 114.704L222.355 114.512L223.379 114.454L223.389 114.646L222.365 114.704ZM220.726 114.798L220.716 114.606L221.74 114.547L221.75 114.74L220.726 114.798ZM219.088 114.892L219.078 114.7L220.102 114.642L220.112 114.834L219.088 114.892ZM217.449 114.986L217.439 114.793L218.463 114.735L218.473 114.927L217.449 114.986ZM215.811 115.08L215.801 114.888L216.825 114.829L216.835 115.022L215.811 115.08ZM214.173 115.174L214.163 114.981L215.187 114.923L215.197 115.115L214.173 115.174ZM212.535 115.267L212.525 115.075L213.549 115.016L213.559 115.209L212.535 115.267ZM210.896 115.361L210.886 115.169L211.91 115.111L211.92 115.303L210.896 115.361ZM209.258 115.455L209.248 115.263L210.272 115.204L210.282 115.397L209.258 115.455ZM207.619 115.549L207.609 115.357L208.633 115.299L208.643 115.491L207.619 115.549ZM205.981 115.643L205.971 115.45L206.995 115.392L207.005 115.584L205.981 115.643ZM204.342 115.737L204.332 115.545L205.356 115.486L205.366 115.679L204.342 115.737ZM202.704 115.831L202.694 115.638L203.718 115.58L203.728 115.772L202.704 115.831ZM201.065 115.925L201.055 115.733L202.079 115.674L202.089 115.867L201.065 115.925ZM199.428 116.018L199.418 115.826L200.442 115.768L200.452 115.96L199.428 116.018ZM197.789 116.113L197.78 115.921L198.803 115.862L198.813 116.054L197.789 116.113ZM196.151 116.206L196.141 116.014L197.165 115.956L197.175 116.148L196.151 116.206ZM194.512 116.301L194.503 116.108L195.526 116.05L195.536 116.242L194.512 116.301ZM192.874 116.394L192.864 116.202L193.888 116.143L193.898 116.336L192.874 116.394ZM191.235 116.489L191.226 116.296L192.249 116.238L192.259 116.43L191.235 116.489ZM189.597 116.582L189.587 116.39L190.611 116.331L190.621 116.524L189.597 116.582ZM187.958 116.676L187.949 116.484L188.972 116.426L188.982 116.618L187.958 116.676ZM186.32 116.77L186.31 116.578L187.334 116.519L187.344 116.712L186.32 116.77ZM184.681 116.863L184.671 116.671L185.695 116.613L185.705 116.805L184.681 116.863ZM183.044 116.958L183.034 116.765L184.058 116.707L184.068 116.899L183.044 116.958ZM181.405 117.051L181.396 116.859L182.419 116.8L182.429 116.993L181.405 117.051ZM179.767 117.146L179.757 116.953L180.781 116.895L180.791 117.087L179.767 117.146ZM178.128 117.239L178.119 117.047L179.142 116.988L179.152 117.181L178.128 117.239ZM176.49 117.333L176.48 117.141L177.504 117.083L177.514 117.275L176.49 117.333ZM174.851 117.427L174.842 117.235L175.865 117.176L175.875 117.369L174.851 117.427ZM173.213 117.521L173.203 117.329L174.227 117.271L174.237 117.463L173.213 117.521ZM171.574 117.615L171.565 117.422L172.588 117.364L172.598 117.556L171.574 117.615ZM169.936 117.709L169.926 117.517L170.95 117.459L170.96 117.651L169.936 117.709ZM168.298 117.803L168.289 117.61L169.312 117.552L169.322 117.744L168.298 117.803ZM166.66 117.897L166.65 117.705L167.674 117.646L167.684 117.839L166.66 117.897ZM165.021 117.99L165.012 117.798L166.035 117.74L166.045 117.932L165.021 117.99ZM163.383 118.085L163.373 117.893L164.397 117.834L164.407 118.027L163.383 118.085ZM161.744 118.178L161.735 117.986L162.758 117.928L162.768 118.12L161.744 118.178ZM160.106 118.273L160.096 118.08L161.12 118.022L161.13 118.214L160.106 118.273ZM158.467 118.366L158.458 118.174L159.481 118.116L159.491 118.308L158.467 118.366ZM156.829 118.461L156.819 118.268L157.843 118.21L157.853 118.402L156.829 118.461ZM155.191 118.554L155.181 118.362L156.204 118.303L156.214 118.496L155.191 118.554ZM153.553 118.648L153.543 118.456L154.567 118.398L154.577 118.59L153.553 118.648ZM151.915 118.742L151.905 118.55L152.929 118.491L152.938 118.684L151.915 118.742ZM150.276 118.836L150.266 118.644L151.29 118.586L151.3 118.778L150.276 118.836ZM148.638 118.93L148.628 118.737L149.652 118.679L149.661 118.871L148.638 118.93ZM146.999 119.023L146.989 118.831L148.013 118.773L148.023 118.965L146.999 119.023ZM145.361 119.118L145.351 118.925L146.375 118.867L146.384 119.059L145.361 119.118ZM143.722 119.211L143.712 119.019L144.736 118.96L144.746 119.153L143.722 119.211ZM142.084 119.306L142.074 119.113L143.098 119.055L143.107 119.247L142.084 119.306ZM140.445 119.399L140.435 119.207L141.459 119.148L141.469 119.341L140.445 119.399ZM138.807 119.493L138.797 119.301L139.821 119.243L139.83 119.435L138.807 119.493ZM137.169 119.587L137.159 119.394L138.183 119.336L138.193 119.528L137.169 119.587ZM135.531 119.681L135.521 119.489L136.545 119.431L136.554 119.623L135.531 119.681ZM133.892 119.775L133.882 119.582L134.906 119.524L134.916 119.716L133.892 119.775ZM132.254 119.869L132.244 119.677L133.268 119.618L133.277 119.811L132.254 119.869ZM130.615 119.963L130.605 119.77L131.629 119.712L131.639 119.904L130.615 119.963ZM128.977 120.057L128.967 119.865L129.991 119.806L130 119.999L128.977 120.057ZM127.338 120.15L127.328 119.958L128.352 119.9L128.362 120.092L127.338 120.15ZM125.7 120.245L125.69 120.052L126.714 119.994L126.723 120.186L125.7 120.245ZM124.061 120.338L124.051 120.146L125.075 120.088L125.085 120.28L124.061 120.338ZM122.423 120.433L122.413 120.24L123.437 120.182L123.446 120.374L122.423 120.433ZM120.784 120.526L120.774 120.334L121.798 120.275L121.808 120.468L120.784 120.526ZM119.146 120.621L119.136 120.428L120.16 120.37L120.169 120.562L119.146 120.621ZM117.507 120.714L117.497 120.522L118.521 120.463L118.531 120.656L117.507 120.714ZM115.869 120.808L115.859 120.616L116.883 120.558L116.893 120.75L115.869 120.808ZM114.23 120.902L114.22 120.71L115.244 120.651L115.254 120.844L114.23 120.902ZM112.592 120.996L112.582 120.804L113.606 120.746L113.616 120.938L112.592 120.996ZM110.953 121.09L110.943 120.897L111.967 120.839L111.977 121.031L110.953 121.09ZM109.315 121.184L109.305 120.992L110.329 120.933L110.339 121.126L109.315 121.184ZM107.677 121.278L107.667 121.085L108.691 121.027L108.701 121.219L107.677 121.278ZM106.039 121.372L106.029 121.18L107.053 121.121L107.063 121.314L106.039 121.372ZM104.4 121.465L104.39 121.273L105.414 121.215L105.424 121.407L104.4 121.465ZM102.762 121.56L102.752 121.368L103.776 121.309L103.786 121.501L102.762 121.56ZM101.123 121.653L101.113 121.461L102.137 121.403L102.147 121.595L101.123 121.653ZM99.4848 121.748L99.4749 121.555L100.499 121.497L100.509 121.689L99.4848 121.748ZM97.8463 121.841L97.8364 121.649L98.8602 121.59L98.8701 121.783L97.8463 121.841ZM96.2078 121.936L96.198 121.743L97.2218 121.685L97.2316 121.877L96.2078 121.936ZM94.5693 122.029L94.5594 121.837L95.5832 121.778L95.5931 121.971L94.5693 122.029ZM92.9308 122.123L92.921 121.931L93.9448 121.873L93.9546 122.065L92.9308 122.123ZM91.2923 122.217L91.2824 122.025L92.3062 121.966L92.3161 122.159L91.2923 122.217ZM89.6538 122.311L89.644 122.119L90.6678 122.061L90.6776 122.253L89.6538 122.311ZM88.0153 122.405L88.0054 122.212L89.0293 122.154L89.0391 122.346L88.0153 122.405ZM86.3768 122.499L86.367 122.307L87.3908 122.249L87.4006 122.441L86.3768 122.499ZM84.7383 122.593L84.7285 122.4L85.7523 122.342L85.7621 122.534L84.7383 122.593ZM83.0998 122.687L83.09 122.495L84.1138 122.436L84.1236 122.629L83.0998 122.687ZM81.4613 122.781L81.4515 122.588L82.4753 122.53L82.4851 122.722L81.4613 122.781ZM79.8239 122.875L79.814 122.683L80.8378 122.624L80.8477 122.817L79.8239 122.875ZM78.1854 122.968L78.1755 122.776L79.1993 122.718L79.2092 122.91L78.1854 122.968ZM76.5469 123.063L76.537 122.87L77.5608 122.812L77.5707 123.004L76.5469 123.063ZM74.9084 123.156L74.8985 122.964L75.9223 122.906L75.9322 123.098L74.9084 123.156ZM73.2699 123.251L73.2601 123.058L74.2839 123L74.2937 123.192L73.2699 123.251ZM71.6314 123.344L71.6215 123.152L72.6453 123.093L72.6552 123.286L71.6314 123.344ZM69.9929 123.439L69.9831 123.246L71.0069 123.188L71.0167 123.38L69.9929 123.439ZM68.3544 123.532L68.3445 123.34L69.3683 123.281L69.3782 123.474L68.3544 123.532ZM66.7159 123.626L66.7061 123.434L67.7299 123.376L67.7397 123.568L66.7159 123.626ZM65.0774 123.72L65.0675 123.528L66.0914 123.469L66.1012 123.661L65.0774 123.72ZM63.4389 123.814L63.4291 123.622L64.4529 123.564L64.4627 123.756L63.4389 123.814ZM61.8004 123.908L61.7906 123.715L62.8144 123.657L62.8242 123.849L61.8004 123.908ZM60.1619 124.002L60.1521 123.81L61.1759 123.751L61.1857 123.944L60.1619 124.002ZM58.5234 124.096L58.5136 123.903L59.5374 123.845L59.5472 124.037L58.5234 124.096ZM56.8849 124.19L56.8751 123.998L57.8989 123.939L57.9087 124.132L56.8849 124.19ZM55.2464 124.283L55.2366 124.091L56.2604 124.033L56.2702 124.225L55.2464 124.283ZM53.6079 124.378L53.5981 124.186L54.6219 124.127L54.6318 124.319L53.6079 124.378ZM51.9695 124.472L51.9596 124.28L52.9834 124.222L52.9933 124.414L51.9695 124.472ZM50.3309 124.566L50.3211 124.373L51.3449 124.315L51.3548 124.507L50.3309 124.566ZM48.6935 124.66L48.6837 124.468L49.7075 124.409L49.7173 124.602L48.6935 124.66ZM47.055 124.754L47.0452 124.561L48.069 124.503L48.0788 124.695L47.055 124.754ZM45.4165 124.848L45.4067 124.656L46.4305 124.597L46.4403 124.79L45.4165 124.848ZM43.778 124.941L43.7682 124.749L44.792 124.691L44.8018 124.883L43.778 124.941ZM42.1395 125.036L42.1297 124.844L43.1535 124.785L43.1633 124.977L42.1395 125.036ZM40.501 125.129L40.4912 124.937L41.515 124.879L41.5248 125.071L40.501 125.129ZM38.8625 125.224L38.8527 125.031L39.8765 124.973L39.8864 125.165L38.8625 125.224ZM37.224 125.317L37.2142 125.125L38.238 125.066L38.2478 125.259L37.224 125.317ZM35.5856 125.412L35.5757 125.219L36.5995 125.161L36.6094 125.353L35.5856 125.412ZM33.947 125.505L33.9372 125.313L34.961 125.254L34.9708 125.447L33.947 125.505ZM32.3086 125.599L32.2987 125.407L33.3225 125.349L33.3324 125.541L32.3086 125.599ZM30.6701 125.694L30.6602 125.502L31.6841 125.443L31.6939 125.636L30.6701 125.694ZM29.0316 125.787L29.0217 125.595L30.0455 125.537L30.0554 125.729L29.0316 125.787ZM27.4234 125.996C27.7549 125.923 28.0864 125.872 28.4237 125.835L28.4034 125.643C28.0608 125.679 27.7149 125.734 27.3793 125.809L27.4234 125.996ZM25.8993 126.509C26.2045 126.364 26.5131 126.248 26.8371 126.149L26.7764 125.965C26.4431 126.067 26.1232 126.187 25.8098 126.336L25.8993 126.509ZM24.5941 127.393C24.8296 127.166 25.0936 126.967 25.3745 126.794L25.2635 126.633C24.9705 126.813 24.6933 127.022 24.4488 127.258L24.5941 127.393ZM23.7193 128.652C23.845 128.357 24.0042 128.084 24.2038 127.826L24.0395 127.713C23.8301 127.984 23.6632 128.271 23.5299 128.581L23.7193 128.652ZM23.4143 130.127C23.4179 129.817 23.4628 129.493 23.5389 129.19L23.3392 129.148C23.2605 129.463 23.2132 129.802 23.2091 130.125L23.4143 130.127ZM23.6227 131.618C23.5242 131.318 23.4629 131.008 23.434 130.695L23.2298 130.714C23.2594 131.041 23.3233 131.364 23.4266 131.678L23.6227 131.618ZM24.3884 132.916C24.1705 132.683 23.9849 132.422 23.8412 132.141L23.6557 132.226C23.8074 132.523 24.002 132.796 24.232 133.044L24.3884 132.916ZM25.6484 133.814C25.3512 133.675 25.0692 133.505 24.8142 133.305L24.6819 133.454C24.9498 133.662 25.2436 133.84 25.5548 133.986L25.6484 133.814ZM27.1705 134.286C26.8424 134.227 26.5153 134.144 26.2017 134.037L26.1283 134.218C26.4515 134.329 26.7902 134.413 27.1279 134.475L27.1705 134.286ZM28.7799 134.426C28.4451 134.426 28.1021 134.408 27.7688 134.372L27.743 134.563C28.0827 134.601 28.4351 134.619 28.7772 134.618L28.7799 134.426ZM30.4135 134.363L30.4213 134.555L29.397 134.603L29.3892 134.411L30.4135 134.363ZM32.0528 134.286L32.0606 134.479L31.0363 134.526L31.0285 134.334L32.0528 134.286ZM33.6921 134.21L33.6999 134.403L32.6756 134.45L32.6678 134.258L33.6921 134.21ZM35.3314 134.134L35.3392 134.326L34.3149 134.374L34.3071 134.181L35.3314 134.134ZM36.9708 134.058L36.9785 134.25L35.9542 134.298L35.9464 134.105L36.9708 134.058ZM38.61 133.981L38.6178 134.174L37.5935 134.221L37.5857 134.029L38.61 133.981ZM40.2494 133.905L40.2571 134.098L39.2328 134.145L39.2251 133.953L40.2494 133.905ZM41.8886 133.829L41.8964 134.021L40.8721 134.069L40.8643 133.876L41.8886 133.829ZM43.5269 133.753L43.5347 133.945L42.5104 133.993L42.5026 133.8L43.5269 133.753ZM45.1662 133.676L45.174 133.869L44.1497 133.916L44.1419 133.724L45.1662 133.676ZM46.8055 133.6L46.8133 133.793L45.789 133.84L45.7812 133.648L46.8055 133.6ZM48.4448 133.524L48.4526 133.716L47.4283 133.764L47.4205 133.571L48.4448 133.524ZM50.0841 133.448L50.0919 133.64L49.0676 133.688L49.0598 133.495L50.0841 133.448ZM51.7235 133.372L51.7312 133.564L50.7069 133.612L50.6992 133.42L51.7235 133.372ZM53.3628 133.295L53.3705 133.488L52.3462 133.535L52.3384 133.343L53.3628 133.295ZM55.0021 133.219L55.0098 133.412L53.9855 133.46L53.9778 133.267L55.0021 133.219ZM56.6414 133.143L56.6491 133.335L55.6248 133.383L55.6171 133.19L56.6414 133.143ZM58.2807 133.067L58.2884 133.259L57.2641 133.307L57.2564 133.115L58.2807 133.067ZM59.9189 132.99L59.9267 133.183L58.9024 133.23L58.8946 133.038L59.9189 132.99ZM61.5582 132.914L61.566 133.107L60.5417 133.155L60.5339 132.962L61.5582 132.914ZM63.1975 132.838L63.2053 133.03L62.181 133.078L62.1732 132.885L63.1975 132.838ZM64.8369 132.762L64.8446 132.954L63.8203 133.002L63.8126 132.81L64.8369 132.762ZM66.4761 132.685L66.4839 132.878L65.4596 132.925L65.4518 132.733L66.4761 132.685ZM68.1155 132.609L68.1232 132.802L67.0989 132.849L67.0912 132.657L68.1155 132.609ZM69.7547 132.533L69.7625 132.725L68.7382 132.773L68.7304 132.58L69.7547 132.533ZM71.3941 132.457L71.4018 132.649L70.3775 132.697L70.3698 132.504L71.3941 132.457ZM73.0334 132.38L73.0411 132.573L72.0168 132.62L72.009 132.428L73.0334 132.38ZM74.6716 132.304L74.6794 132.497L73.6551 132.544L73.6473 132.352L74.6716 132.304ZM76.3109 132.228L76.3187 132.42L75.2944 132.468L75.2866 132.275L76.3109 132.228ZM77.9502 132.152L77.958 132.344L76.9337 132.392L76.9259 132.199L77.9502 132.152ZM79.5895 132.075L79.5973 132.268L78.573 132.315L78.5652 132.123L79.5895 132.075ZM81.2288 131.999L81.2366 132.192L80.2123 132.239L80.2045 132.047L81.2288 131.999ZM82.8682 131.924L82.8759 132.116L81.8516 132.164L81.8439 131.971L82.8682 131.924ZM84.5075 131.847L84.5152 132.039L83.4909 132.087L83.4831 131.894L84.5075 131.847ZM86.1468 131.771L86.1545 131.963L85.1302 132.011L85.1225 131.819L86.1468 131.771ZM87.7861 131.694L87.7938 131.887L86.7695 131.934L86.7618 131.742L87.7861 131.694ZM89.4243 131.619L89.4321 131.811L88.4078 131.859L88.4 131.666L89.4243 131.619ZM91.0636 131.542L91.0714 131.734L90.0471 131.782L90.0393 131.589L91.0636 131.542ZM92.703 131.466L92.7107 131.658L91.6864 131.706L91.6786 131.514L92.703 131.466ZM94.3422 131.389L94.35 131.582L93.3257 131.629L93.3179 131.437L94.3422 131.389ZM95.9816 131.313L95.9893 131.506L94.965 131.554L94.9572 131.361L95.9816 131.313ZM97.6208 131.237L97.6286 131.429L96.6043 131.477L96.5965 131.284L97.6208 131.237ZM99.2602 131.161L99.2679 131.353L98.2436 131.401L98.2359 131.209L99.2602 131.161ZM100.899 131.084L100.907 131.277L99.8829 131.324L99.8751 131.132L100.899 131.084ZM102.539 131.008L102.547 131.201L101.522 131.248L101.514 131.056L102.539 131.008ZM104.178 130.932L104.186 131.124L103.161 131.172L103.154 130.979L104.178 130.932ZM105.816 130.856L105.824 131.048L104.8 131.096L104.792 130.904L105.816 130.856ZM107.456 130.779L107.463 130.972L106.439 131.019L106.431 130.827L107.456 130.779ZM109.095 130.703L109.103 130.896L108.078 130.943L108.071 130.751L109.095 130.703ZM110.734 130.627L110.742 130.819L109.718 130.867L109.71 130.674L110.734 130.627ZM112.374 130.551L112.381 130.743L111.357 130.791L111.349 130.598L112.374 130.551ZM114.013 130.475L114.021 130.668L112.996 130.715L112.989 130.523L114.013 130.475ZM115.652 130.398L115.66 130.591L114.636 130.638L114.628 130.446L115.652 130.398ZM117.291 130.323L117.299 130.515L116.275 130.563L116.267 130.37L117.291 130.323ZM118.931 130.246L118.939 130.438L117.914 130.486L117.906 130.293L118.931 130.246ZM120.569 130.17L120.577 130.363L119.552 130.41L119.545 130.218L120.569 130.17ZM122.208 130.093L122.216 130.286L121.192 130.333L121.184 130.141L122.208 130.093ZM123.848 130.018L123.855 130.21L122.831 130.258L122.823 130.065L123.848 130.018ZM125.487 129.941L125.495 130.133L124.47 130.181L124.463 129.988L125.487 129.941ZM127.126 129.865L127.134 130.057L126.11 130.105L126.102 129.913L127.126 129.865ZM128.766 129.788L128.773 129.981L127.749 130.028L127.741 129.836L128.766 129.788ZM130.405 129.712L130.413 129.905L129.388 129.952L129.381 129.76L130.405 129.712ZM132.044 129.637L132.052 129.829L131.028 129.877L131.02 129.684L132.044 129.637ZM133.683 129.56L133.691 129.752L132.667 129.8L132.659 129.608L133.683 129.56ZM135.322 129.484L135.33 129.677L134.305 129.724L134.297 129.532L135.322 129.484ZM136.961 129.407L136.969 129.6L135.944 129.647L135.937 129.455L136.961 129.407ZM138.6 129.332L138.608 129.524L137.584 129.572L137.576 129.379L138.6 129.332ZM140.24 129.255L140.247 129.447L139.223 129.495L139.215 129.303L140.24 129.255ZM141.879 129.179L141.887 129.372L140.862 129.419L140.855 129.227L141.879 129.179ZM143.518 129.102L143.526 129.295L142.502 129.342L142.494 129.15L143.518 129.102ZM145.158 129.027L145.165 129.219L144.141 129.267L144.133 129.074L145.158 129.027ZM146.797 128.951L146.805 129.143L145.78 129.191L145.773 128.998L146.797 128.951ZM148.436 128.874L148.444 129.067L147.42 129.114L147.412 128.922L148.436 128.874ZM150.076 128.798L150.083 128.991L149.059 129.038L149.051 128.846L150.076 128.798ZM151.715 128.722L151.723 128.914L150.698 128.962L150.69 128.769L151.715 128.722ZM153.354 128.646L153.362 128.838L152.338 128.886L152.33 128.693L153.354 128.646ZM154.993 128.569L155.001 128.761L153.977 128.809L153.969 128.617L154.993 128.569ZM156.633 128.493L156.64 128.686L155.616 128.733L155.608 128.541L156.633 128.493ZM158.272 128.416L158.28 128.609L157.255 128.657L157.248 128.464L158.272 128.416ZM159.911 128.341L159.919 128.533L158.895 128.581L158.887 128.388L159.911 128.341ZM161.55 128.264L161.557 128.456L160.533 128.504L160.525 128.312L161.55 128.264ZM163.189 128.188L163.197 128.381L162.172 128.428L162.165 128.236L163.189 128.188ZM164.828 128.112L164.836 128.305L163.812 128.352L163.804 128.16L164.828 128.112ZM166.468 128.036L166.475 128.228L165.451 128.276L165.443 128.083L166.468 128.036ZM168.107 127.96L168.115 128.152L167.09 128.2L167.083 128.007L168.107 127.96ZM169.746 127.883L169.754 128.076L168.73 128.123L168.722 127.931L169.746 127.883ZM171.385 127.807L171.393 128L170.369 128.047L170.361 127.855L171.385 127.807ZM173.025 127.731L173.032 127.923L172.008 127.971L172 127.778L173.025 127.731ZM174.664 127.655L174.672 127.847L173.647 127.895L173.64 127.702L174.664 127.655ZM176.303 127.578L176.311 127.771L175.287 127.818L175.279 127.626L176.303 127.578ZM177.943 127.502L177.95 127.695L176.926 127.742L176.918 127.55L177.943 127.502ZM179.582 127.427L179.59 127.619L178.565 127.667L178.558 127.474L179.582 127.427ZM181.221 127.35L181.229 127.542L180.205 127.59L180.197 127.397L181.221 127.35ZM182.861 127.274L182.868 127.466L181.844 127.514L181.836 127.322L182.861 127.274ZM184.5 127.197L184.508 127.39L183.483 127.437L183.476 127.245L184.5 127.197ZM186.139 127.121L186.147 127.314L185.123 127.361L185.115 127.169L186.139 127.121ZM187.778 127.045L187.786 127.237L186.762 127.285L186.754 127.092L187.778 127.045ZM189.418 126.969L189.426 127.161L188.401 127.209L188.394 127.017L189.418 126.969ZM191.056 126.892L191.064 127.085L190.039 127.132L190.032 126.94L191.056 126.892ZM192.695 126.816L192.703 127.009L191.679 127.056L191.671 126.864L192.695 126.816ZM194.335 126.74L194.342 126.932L193.318 126.98L193.31 126.787L194.335 126.74ZM195.974 126.664L195.982 126.856L194.957 126.904L194.95 126.712L195.974 126.664ZM197.613 126.588L197.621 126.781L196.597 126.828L196.589 126.636L197.613 126.588ZM199.253 126.511L199.26 126.704L198.236 126.751L198.228 126.559L199.253 126.511ZM200.892 126.436L200.9 126.628L199.875 126.676L199.868 126.483L200.892 126.436ZM202.531 126.359L202.539 126.551L201.515 126.599L201.507 126.406L202.531 126.359ZM204.171 126.283L204.178 126.476L203.154 126.523L203.146 126.331L204.171 126.283ZM205.81 126.206L205.818 126.399L204.793 126.446L204.786 126.254L205.81 126.206ZM207.449 126.131L207.457 126.323L206.433 126.371L206.425 126.178L207.449 126.131ZM209.088 126.055L209.096 126.247L208.072 126.295L208.064 126.102L209.088 126.055ZM210.728 125.978L210.735 126.17L209.711 126.218L209.703 126.026L210.728 125.978ZM212.367 125.902L212.375 126.095L211.351 126.142L211.343 125.95L212.367 125.902ZM214.006 125.825L214.014 126.018L212.99 126.066L212.982 125.873L214.006 125.825ZM215.646 125.75L215.653 125.942L214.629 125.99L214.621 125.797L215.646 125.75ZM217.285 125.674L217.293 125.866L216.268 125.914L216.261 125.722L217.285 125.674ZM218.924 125.597L218.932 125.79L217.908 125.837L217.9 125.645L218.924 125.597ZM220.563 125.521L220.57 125.714L219.546 125.761L219.538 125.569L220.563 125.521ZM222.202 125.445L222.21 125.637L221.185 125.685L221.178 125.492L222.202 125.445ZM223.841 125.369L223.849 125.561L222.825 125.609L222.817 125.416L223.841 125.369ZM225.48 125.293L225.488 125.486L224.464 125.533L224.456 125.341L225.48 125.293ZM227.063 125.013C226.744 125.115 226.418 125.191 226.084 125.238L226.111 125.428C226.459 125.379 226.793 125.301 227.126 125.195L227.063 125.013ZM228.501 124.324C228.224 124.507 227.932 124.665 227.626 124.8L227.71 124.975C228.027 124.835 228.331 124.671 228.617 124.482L228.501 124.324ZM229.683 123.286C229.472 123.531 229.233 123.764 228.98 123.97L229.113 124.116C229.375 123.901 229.624 123.661 229.842 123.406L229.683 123.286ZM230.52 121.986C230.386 122.278 230.227 122.558 230.042 122.823L230.213 122.929C230.405 122.653 230.57 122.363 230.709 122.06L230.52 121.986ZM230.943 120.524C230.901 120.84 230.829 121.147 230.729 121.451L230.925 121.507C231.028 121.192 231.102 120.874 231.146 120.547L230.943 120.524ZM230.917 119.013C230.969 119.327 230.993 119.638 230.986 119.957L231.191 119.959C231.197 119.63 231.173 119.307 231.12 118.982L230.917 119.013ZM230.444 117.575C230.588 117.859 230.703 118.154 230.791 118.459L230.99 118.407C230.901 118.094 230.778 117.784 230.63 117.491L230.444 117.575ZM229.562 116.322C229.783 116.553 229.984 116.812 230.158 117.077L230.333 116.975C230.154 116.7 229.945 116.433 229.716 116.192L229.562 116.322ZM228.345 115.35C228.628 115.519 228.894 115.708 229.141 115.92L229.281 115.777C229.025 115.557 228.75 115.361 228.458 115.187L228.345 115.35ZM226.886 114.739C227.208 114.824 227.52 114.937 227.821 115.076L227.913 114.903C227.602 114.76 227.278 114.643 226.944 114.554L226.886 114.739ZM225.296 114.543C225.631 114.539 225.967 114.562 226.297 114.614L226.334 114.424C225.992 114.369 225.645 114.345 225.296 114.35L225.296 114.543ZM224.003 114.61L223.993 114.418L225.017 114.359L225.027 114.552L224.003 114.61Z" fill="#2C3442"/>
<path fill-rule="evenodd" clip-rule="evenodd" d="M175.577 121.551C176.206 121.517 176.739 121.993 176.766 122.615C176.793 123.237 176.304 123.769 175.675 123.804C175.046 123.838 174.513 123.362 174.486 122.74C174.459 122.118 174.948 121.586 175.577 121.551Z" fill="#5432C1"/>
<path fill-rule="evenodd" clip-rule="evenodd" d="M66.7516 121.489C66.7516 121.489 71.2872 125.182 75.9926 128.524C76.0045 128.533 76.0175 128.541 76.0295 128.55C76.6739 128.991 77.5654 128.828 78.0198 128.186C78.4742 127.543 78.3203 126.664 77.6758 126.223C77.6628 126.214 77.6509 126.205 77.6379 126.198C72.8178 123.019 67.7228 120.118 67.7228 120.118L66.7516 121.489Z" fill="#E3E3E3"/>
<path fill-rule="evenodd" clip-rule="evenodd" d="M74.1673 124.75C74.7583 125.279 75.1322 126.233 75.0919 127.313C75.0516 128.394 74.6063 129.328 73.9759 129.828C73.3926 129.138 73.0558 128.24 73.0922 127.265C73.1287 126.29 73.5322 125.41 74.1673 124.75ZM80.6557 126.256C79.8902 126.503 78.8624 126.356 77.9364 125.793C77.0114 125.229 76.4195 124.389 76.3054 123.606C76.5601 123.561 76.8232 123.54 77.0917 123.546C78.7987 123.587 80.206 124.721 80.6557 126.256ZM76.0245 131.075C76.1979 130.297 76.8507 129.489 77.817 128.971C78.7832 128.454 79.8194 128.357 80.566 128.642C80.0026 130.151 78.5131 131.215 76.8051 131.172C76.5355 131.166 76.2753 131.133 76.0245 131.075ZM71.4548 127.225C71.5672 124.224 74.118 121.853 77.1517 121.926C80.1855 122 82.5523 124.493 82.4399 127.493C82.3275 130.494 79.7767 132.866 76.743 132.792C73.7093 132.718 71.3424 130.226 71.4548 127.225Z" fill="#2C3442"/>
<path fill-rule="evenodd" clip-rule="evenodd" d="M86.1636 134.884C86.1636 134.884 81.0687 131.983 76.2485 128.804C76.2356 128.795 76.2226 128.787 76.2107 128.779C75.5662 128.338 75.4123 127.459 75.8667 126.816C76.3211 126.173 77.2125 126.01 77.857 126.451C77.87 126.46 77.8819 126.469 77.8939 126.477C82.5982 129.819 87.1349 133.512 87.1349 133.512L86.1636 134.884Z" fill="#E3E3E3"/>
<path fill-rule="evenodd" clip-rule="evenodd" d="M75.801 127.531C75.8244 126.908 76.3537 126.415 76.9841 126.431C77.6134 126.447 78.1047 126.964 78.0814 127.587C78.058 128.21 77.5286 128.702 76.8983 128.687C76.269 128.671 75.7766 128.153 75.801 127.531Z" fill="#2C3442"/>
<path fill-rule="evenodd" clip-rule="evenodd" d="M112.196 45.6809L118.994 38.9813C118.994 38.9813 119.592 38.9151 119.695 35.1509C119.798 31.3867 120.351 25.6847 120.351 25.6847L116.586 25.3413L113.097 36.9969L110.486 37.2442C102.715 37.9809 109.726 48.1149 112.196 45.6809Z" fill="#7DA322"/>
<path fill-rule="evenodd" clip-rule="evenodd" d="M101.539 37.663C101.539 37.663 91.8946 43.3376 91.5081 63.6131C91.5081 63.6131 91.575 68.2281 92.3443 72.0784C92.2894 72.345 107.972 70.2974 111.538 69.3111C111.726 69.0372 111.091 63.6615 111.533 60.0094C111.976 56.3562 113.957 48.1334 112.027 40.6522C112.089 40.5154 110.644 31.8855 101.539 37.663Z" fill="#A1CC3A"/>
<path fill-rule="evenodd" clip-rule="evenodd" d="M120.055 104.256C119.906 106.116 119.513 107.36 119.581 110.283C118.323 111.338 115.838 110.838 115.539 109.919C115.241 109.001 115.553 104.424 115.553 104.424L120.055 104.256Z" fill="#FBCA63"/>
<path fill-rule="evenodd" clip-rule="evenodd" d="M114.633 112.335C115.413 112.449 118.346 112.724 118.636 112.759C118.925 112.795 119.485 113.214 119.664 113.234C120.583 113.333 121.86 112.976 122.181 112.917C122.503 112.86 127.389 112.996 127.428 112.902C127.467 112.808 127.447 112.215 127.008 112C126.787 111.893 125.818 111.523 124.678 111.032C123.554 110.547 122.356 109.967 121.809 109.664C121.468 109.475 121.279 109.227 120.987 109.046L120.986 109.045C120.765 108.884 119.742 107.863 119.586 107.88C119.429 107.898 118.66 108.256 118.654 108.389C118.646 108.522 118.579 108.816 118.603 109.354C118.061 109.714 117.554 109.795 117.179 109.771C115.818 109.683 115.739 107.945 115.516 107.952C115.203 107.964 114.57 109.049 114.633 112.335Z" fill="#2C3442"/>
<path fill-rule="evenodd" clip-rule="evenodd" d="M114.681 112.384L114.658 112.404C114.601 112.531 114.4 113.063 114.442 113.182C114.484 113.301 116.454 113.842 120.104 113.898C123.754 113.954 126.812 113.96 127.429 112.942C127.272 113.027 122.511 112.897 122.194 112.954C121.873 113.01 120.599 113.361 119.682 113.264C119.502 113.245 118.943 112.834 118.655 112.798C118.369 112.762 115.491 112.497 114.681 112.384Z" fill="#EDEAFD"/>
<path fill-rule="evenodd" clip-rule="evenodd" d="M102.905 81.7333C107.874 82.5054 114.074 82.8866 119.289 83.5475L113.634 106.295L120.733 107.156L129.816 82.6309C130.785 80.2 129.453 76.2197 127.041 74.9465C123.085 72.8598 111.66 69.5425 111.66 69.5425C108.126 70.5224 92.6471 72.5477 92.5273 72.3089C92.5553 72.5174 93.6406 80.2934 102.905 81.7333Z" fill="#2372BA"/>
<path fill-rule="evenodd" clip-rule="evenodd" d="M105.177 31.7314L105.742 28.698L107.15 28.603C107.15 28.603 107.534 26.3211 107.568 26.2839C110.252 27.089 112.313 26.7962 113.351 26.5305C113.351 26.6801 113.348 27.0998 113.319 27.6861C113.319 27.6861 114.134 27.4212 115.587 25.6861C116.505 24.5878 116.266 23.4221 115.595 22.9584C114.404 22.1347 113.844 23.0576 113.4 22.8919C112.99 22.7389 113.091 20.5503 109.292 20.8584C107.355 21.0156 106.127 22.4788 105.161 23.1321C104.449 23.6125 103.331 21.7661 101.754 24.9444C100.176 28.1217 101.586 30.9408 101.622 30.9565C99.4107 32.5494 102.287 35.3172 104.359 34.7268C104.347 33.9818 104.338 33.3685 104.338 33.3685C101.42 30.5584 103.831 27.3073 105.177 31.7314Z" fill="#212836"/>
<path fill-rule="evenodd" clip-rule="evenodd" d="M112.492 26.7227C113.496 26.5706 114.063 26.3146 114.063 26.3146C114.063 26.3146 113.75 27.1152 112.341 27.3326L112.492 26.7227Z" fill="#103A81"/>
<path fill-rule="evenodd" clip-rule="evenodd" d="M105.768 28.7241L105.202 31.7644C103.854 27.3303 101.437 30.5887 104.36 33.4043C104.369 33.9669 103.907 37.039 103.87 37.1201C105.993 39.2238 109.006 40.2306 109.357 39.847C109.437 38.5425 110.047 36.0858 110.047 36.0858C110.473 36.0448 110.722 35.9385 110.758 35.9115C112.787 34.4762 113.255 29.9142 113.363 27.7089C113.391 27.1213 113.395 26.7006 113.394 26.5507C112.354 26.818 110.288 27.1115 107.598 26.3035C107.564 26.3408 107.18 28.6279 107.18 28.6279L105.768 28.7241Z" fill="#FDDBCA"/>
<path fill-rule="evenodd" clip-rule="evenodd" d="M109.785 37.2352C109.919 36.5893 110.06 36.0955 110.06 36.0955L110.072 36.0938C109.276 36.1727 107.851 36.0228 106.033 34.6651C106.033 34.6661 106.585 36.143 109.785 37.2352Z" fill="#E3BCA9"/>
<path fill-rule="evenodd" clip-rule="evenodd" d="M188.883 66.5628C188.458 66.554 187.583 66.3099 187.132 65.9054C186.919 65.9276 186.113 66.6868 186.422 67.0554C186.986 67.4339 188.191 68.1993 188.161 68.3641C188.131 68.5299 187.971 68.4992 187.719 68.5037C188.089 68.9948 188.398 69.3977 188.556 69.6259C189.428 69.7537 189.902 69.3588 190.231 68.5051L189.687 67.7222L188.883 66.5628Z" fill="#2C3442"/>
<path fill-rule="evenodd" clip-rule="evenodd" d="M186.765 67.1038C186.457 66.7357 186.888 65.9845 187.13 65.8612C187.581 66.2651 188.454 66.5088 188.879 66.5177L189.683 67.6754C189.974 67.2215 189.956 66.6247 189.891 66.3999C189.88 66.3601 189.788 66.2862 189.732 66.2281C189.714 66.0121 189.717 65.4972 189.318 65.2492C188.902 64.6006 188.312 63.893 187.99 63.7155C187.465 63.4267 184.283 63.0409 184.283 63.0409C183.485 62.5532 181.573 60.7122 181.573 60.7122L179.515 63.0492C179.515 63.0492 181.897 64.7161 182.881 65.3751C183.121 66.0116 184.892 67.7224 185.458 68.0203C185.865 68.2356 187.061 68.469 187.717 68.4568C187.97 68.4523 188.129 68.483 188.158 68.3174C188.187 68.1519 187.329 67.4818 186.765 67.1038Z" fill="#FDDBCA"/>
<path fill-rule="evenodd" clip-rule="evenodd" d="M186.995 65.7593C187.197 66.0132 187.575 66.2152 187.956 66.3521C188.302 66.4754 188.649 66.5451 188.873 66.5494C188.945 66.5506 189.085 66.5295 189.162 66.4872C188.865 66.5343 187.94 66.3457 186.995 65.7593Z" fill="#E3BCA9"/>
<path fill-rule="evenodd" clip-rule="evenodd" d="M188.164 68.3565C188.206 68.1195 187.46 67.605 186.897 67.2269C186.664 67.0704 186.462 66.9372 186.36 66.8566C186.557 67.2538 188.133 68.1121 188.164 68.3565Z" fill="#E3BCA9"/>
<path fill-rule="evenodd" clip-rule="evenodd" d="M187.142 64.2965C188.303 64.7782 189.473 65.3592 189.591 65.601C189.699 65.8226 189.712 66.4837 189.583 66.8378L189.661 66.8751C189.854 66.266 189.751 65.798 189.686 65.5729C189.543 65.0821 187.621 64.4697 187.142 64.2965Z" fill="#E3BCA9"/>
<path fill-rule="evenodd" clip-rule="evenodd" d="M187.442 65.0101C188.603 65.4922 189.757 66.3334 189.77 66.5115C189.8 66.9154 189.775 67.3523 189.623 67.6394L189.677 67.7175C189.968 67.2627 189.951 66.6648 189.885 66.4397C189.742 65.9475 187.92 65.1835 187.442 65.0101Z" fill="#E3BCA9"/>
<path fill-rule="evenodd" clip-rule="evenodd" d="M219.278 119.65C219.185 121.644 218.809 122.986 218.985 126.107C217.676 127.279 214.999 126.831 214.648 125.859C214.297 124.887 214.467 119.985 214.467 119.985L219.278 119.65Z" fill="#FDDBCA"/>
<path fill-rule="evenodd" clip-rule="evenodd" d="M213.764 128.472C214.602 128.567 217.749 128.759 218.059 128.787C218.37 128.816 218.983 129.244 219.177 129.258C220.164 129.332 221.516 128.908 221.857 128.834C222.199 128.761 227.43 128.738 227.468 128.637C227.507 128.535 227.464 127.902 226.986 127.688C226.746 127.58 225.696 127.22 224.46 126.734C223.241 126.255 221.94 125.677 221.343 125.373C220.971 125.183 220.761 124.925 220.442 124.741L220.441 124.74C220.199 124.576 219.069 123.52 218.902 123.544C218.735 123.568 217.926 123.978 217.923 124.119C217.919 124.261 217.858 124.577 217.903 125.151C217.337 125.554 216.798 125.658 216.394 125.645C214.936 125.599 214.79 123.745 214.551 123.76C214.218 123.783 213.58 124.964 213.764 128.472Z" fill="#2C3442"/>
<path fill-rule="evenodd" clip-rule="evenodd" d="M213.816 128.524L213.792 128.547C213.735 128.683 213.541 129.256 213.589 129.381C213.638 129.507 215.765 130.016 219.67 129.952C223.575 129.888 226.846 129.791 227.469 128.686C227.304 128.783 222.208 128.806 221.871 128.876C221.53 128.948 220.18 129.363 219.195 129.291C219.003 129.277 218.39 128.858 218.08 128.83C217.773 128.802 214.686 128.618 213.816 128.524Z" fill="#EDEAFD"/>
<path fill-rule="evenodd" clip-rule="evenodd" d="M192.131 68.5984C196.761 79.0594 204.8 83.946 211.618 87.5152C211.394 95.6474 211.961 114.681 212.163 121.385L219.313 121.981C219.313 121.981 223.208 90.9168 222.382 86.7254C221.639 82.5336 209.216 70.0289 205.967 66.8178C200.443 67.2632 195.36 67.2216 192.131 68.5984Z" fill="#2372BA"/>
<path fill-rule="evenodd" clip-rule="evenodd" d="M184.424 119.202C184.447 121.069 184.17 122.344 184.508 125.25C183.348 126.414 180.819 126.141 180.437 125.252C180.054 124.364 179.943 119.776 179.943 119.776L184.424 119.202Z" fill="#FDDBCA"/>
<path fill-rule="evenodd" clip-rule="evenodd" d="M179.75 127.737C181.233 127.819 192.284 128.075 192.573 127.154C192.603 127.058 192.528 126.468 192.07 126.294C191.838 126.207 190.837 125.927 189.654 125.54C188.488 125.158 187.239 124.689 186.665 124.437C186.307 124.279 186.096 124.05 185.788 123.895L185.787 123.895C185.551 123.755 184.436 122.831 184.281 122.862C184.128 122.893 183.393 123.319 183.398 123.451C183.403 123.584 183.362 123.882 183.437 124.415C182.931 124.822 182.432 124.948 182.055 124.958C180.688 124.993 180.449 123.27 180.227 123.298C179.913 123.338 179.382 124.474 179.75 127.737Z" fill="#A1CC3A"/>
<path fill-rule="evenodd" clip-rule="evenodd" d="M179.799 127.787L179.778 127.809C179.733 127.939 179.583 128.48 179.637 128.593C179.69 128.707 181.706 129.068 185.355 128.805C189.003 128.541 192.055 128.28 192.575 127.222C191.154 128.164 182.038 127.9 179.799 127.787Z" fill="white"/>
<path fill-rule="evenodd" clip-rule="evenodd" d="M180.082 85.7453C179.08 84.028 161.605 71.3253 156.945 67.9563C155.449 68.1488 153.688 68.4401 151.625 68.8698L144.544 69.6706C144.544 69.6623 144.467 78.1736 151.627 81.9417L170.753 92.0069L178.758 120.285L185.73 120.76C185.366 109.319 183.634 91.8417 180.082 85.7453Z" fill="#A1CC3A"/>
<path fill-rule="evenodd" clip-rule="evenodd" d="M131.859 19.1986C131.338 16.5467 130.284 13.8499 129.813 13.958C129.46 14.043 130.325 17.376 130.55 18.9646C130.03 16.8519 128.701 13.9156 128.183 14.044C127.567 14.1738 129.299 17.9829 129.403 19.284C129.047 18.0415 127.879 15.2476 127.364 15.4489C126.972 15.6425 128.129 18.0323 128.229 19.8989C128.074 19.1972 126.711 17.6906 126.21 17.8807C125.71 18.0708 127.321 20.0706 127.521 20.9035C127.728 21.5774 127.968 24.35 129.046 24.7844C129.252 25.5533 130.007 28.5961 130.176 29.6204C130.807 29.8633 133.363 29.3042 133.717 28.8666C133.555 28.5646 132.499 24.4338 132.371 23.9923C133.846 21.1279 132.545 16.0718 132.218 16.1449C131.891 16.2181 131.744 16.9729 131.764 17.6894C131.782 18.26 131.892 18.7995 131.859 19.1986Z" fill="#FDDBCA"/>
<path fill-rule="evenodd" clip-rule="evenodd" d="M129.394 19.2666C129.275 18.8553 129.065 18.2734 128.821 17.6871L129.394 19.2666ZM128.162 14.019L128.161 14.019C127.537 14.149 129.289 17.9636 129.395 19.2666C129.317 17.9746 127.783 14.238 128.162 14.019Z" fill="#E3BCA9"/>
<path fill-rule="evenodd" clip-rule="evenodd" d="M127.392 15.4123C127.38 15.414 127.369 15.4166 127.358 15.4204C126.962 15.6131 128.121 17.9787 128.235 19.8437L128.246 19.8818C128.276 18.1824 127.251 15.8827 127.392 15.4123Z" fill="#E3BCA9"/>
<path fill-rule="evenodd" clip-rule="evenodd" d="M126.245 17.8609C126.24 17.8622 126.236 17.8635 126.23 17.8659C125.729 18.056 127.342 20.0563 127.542 20.8893C127.748 21.5592 127.987 24.3012 129.049 24.7626C129.19 24.7737 129.314 24.7659 129.405 24.762C128.186 24.4437 127.873 21.2874 127.697 20.7431C127.522 20.1987 126.276 18.4184 126.208 18.1237C126.18 17.9949 126.194 17.9096 126.245 17.8609Z" fill="#E3BCA9"/>
<path fill-rule="evenodd" clip-rule="evenodd" d="M132.992 29.2688C133.346 29.1482 133.617 29.0165 133.717 28.8952C133.554 28.5927 132.485 24.4556 132.356 24.0134C133.291 22.2152 133.123 19.5544 132.787 17.8376C132.889 18.4609 133.244 23.4963 131.079 24.4828C131.325 24.4558 131.915 24.2599 132.11 24.1553C132.235 24.5183 132.818 27.8189 132.992 29.2688Z" fill="#E3BCA9"/>
<path fill-rule="evenodd" clip-rule="evenodd" d="M131.808 19.37C131.616 20.2282 129.99 21.1197 130.551 23.36C130.437 22.3294 130.857 21.2813 131.297 20.7509C131.738 20.2205 131.992 19.4508 131.987 19.1441C131.982 18.8374 131.586 16.3898 132.226 16.1525C132.215 16.1468 132.205 16.1442 132.195 16.1468C131.866 16.22 131.719 16.9756 131.738 17.6929C131.755 18.2641 131.865 18.8031 131.832 19.2037C131.827 19.2614 131.82 19.3171 131.808 19.37Z" fill="#E3BCA9"/>
<path fill-rule="evenodd" clip-rule="evenodd" d="M127.977 20.0853C128.751 19.4553 130.129 18.8992 131.272 18.7844C130.492 19.0284 128.899 19.4133 127.977 20.0853Z" fill="#E3BCA9"/>
<path fill-rule="evenodd" clip-rule="evenodd" d="M161.634 49.1994C169.141 56.1463 172.774 59.4708 180.269 64.6122L183.351 60.3844C177.091 54.525 165.058 41.3426 158.769 38.0004C160.637 38.9945 161.974 40.7481 162.28 43.6445C162.606 46.7208 161.592 47.7378 161.634 49.1994Z" fill="#DF9700"/>
<path fill-rule="evenodd" clip-rule="evenodd" d="M144.147 44.4595C143.963 39.423 145.569 37.743 149.252 37.0505C143.269 38.1114 142.006 38.7407 137.694 36.3174L133.365 26.0503L128.472 27.0305C129.322 30.5031 131.153 39.9171 132.997 41.867C134.668 43.204 138.628 43.8501 144.147 44.4595Z" fill="#FFBE36"/>
<path fill-rule="evenodd" clip-rule="evenodd" d="M162.738 43.5074C164.061 52.0448 157.808 51.0459 164.457 67.7867C161.756 66.4983 150.207 70.4475 143.55 69.7562C144.882 64.3766 145.625 60.0427 145.433 56.3509C145.153 50.9607 143.432 46.91 143.208 42.7272C143.951 38.3497 147.316 37.0734 152.17 36.7874C157.058 36.4975 161.843 37.7383 162.738 43.5074Z" fill="#FFAD00"/>
<path fill-rule="evenodd" clip-rule="evenodd" d="M156.193 34.9373C156.41 35.8976 156.432 37.2771 156.423 38.0363C156.433 38.2014 156.205 40.47 154.843 40.5238C153.482 40.5776 151.7 38.7183 150.827 37.3156C151.137 35.8241 150.695 34.2466 150.557 31.3073L152.662 31.3534L156.193 34.9373Z" fill="#FDDBCA"/>
<path fill-rule="evenodd" clip-rule="evenodd" d="M156.209 35.2135C157.093 35.0048 157.786 34.5548 158.158 34.0965C159.068 32.9752 158.309 28.5816 158.923 26.0182C158.77 26.1483 158.545 26.6287 158.529 26.8137C157.861 26.5924 156.764 26.4831 155.586 26.5071C155.528 26.2493 155.473 25.9444 155.464 25.8544C155.455 26.015 155.41 26.289 155.422 26.5109C153.992 26.5551 152.468 26.7948 151.454 27.2665C150.929 28.4135 151.336 30.4132 151.242 31.109C150.939 30.2821 150.027 29.2743 149.375 29.775C148.842 30.2255 149.617 32.5057 150.486 32.5391C150.532 32.5408 150.682 32.4992 150.728 32.4884C150.681 33.0683 151.052 37.5706 151.996 38.3592C151.525 38.4433 151.004 38.5052 150.469 38.5491C148.829 38.6838 147.056 38.649 146.179 38.537C144.058 25.7439 148.842 21.6702 150.046 21.5313C151.562 20.0335 157.119 20.0978 158.655 23.0851C160.192 26.0724 159.272 33.8793 162.079 36.8843C161.595 37.5069 158.215 38.8958 156.297 38.6162C156.481 37.5368 156.335 36.3237 156.209 35.2135Z" fill="#212836"/>
<path fill-rule="evenodd" clip-rule="evenodd" d="M150.726 32.4934C151.317 33.5487 151.941 34.2446 152.733 34.6712C155.264 36.036 157.378 35.0579 158.156 34.1011C159.066 32.98 158.307 28.5871 158.921 26.0242C158.768 26.1543 158.543 26.6346 158.527 26.8196C157.859 26.5983 156.762 26.489 155.585 26.5131C155.526 26.2552 155.472 25.9504 155.463 25.8604C155.454 26.021 155.409 26.2949 155.421 26.5169C154.98 26.5306 154.53 26.5626 154.089 26.6149C153.993 26.1709 153.818 25.5191 153.728 25.2911C153.777 25.5879 153.766 26.2718 153.751 26.6584L153.687 26.6682C153.449 25.583 153.109 24.8206 153.012 24.6949C152.845 25.1783 152.773 26.1786 152.874 26.8157C152.345 26.9322 151.858 27.0837 151.452 27.2723C150.927 28.4191 151.334 30.4185 151.24 31.1142C150.937 30.2874 150.026 29.2797 149.374 29.7804C148.793 30.273 149.77 32.9462 150.726 32.4934Z" fill="#FDDBCA"/>
<path fill-rule="evenodd" clip-rule="evenodd" d="M53.9093 33.1068C53.1865 31.8333 54.0326 28.0183 53.533 26.8356C53.0323 25.653 51.9123 24.5804 50.7367 24.9678C50.2259 23.8649 47.835 22.736 45.7532 23.9592C43.6714 25.1825 43.9303 26.9146 43.1652 27.9177C42.4003 28.9219 41.0575 29.8047 40.7489 31.0952C40.4413 32.3856 42.462 36.5402 42.1015 38.0428C41.949 38.852 39.4513 40.2584 42.9465 44.5205C49.441 43.6905 59.7264 43.3574 53.9093 33.1068Z" fill="#202836"/>
<path fill-rule="evenodd" clip-rule="evenodd" d="M150.76 32.5169C151.35 33.5678 151.972 34.2607 152.762 34.6855C154.079 35.3941 155.282 35.4691 156.242 35.2425C155.041 35.882 152.166 35.5238 151.053 33.9444C151.038 34.0385 150.984 34.3718 150.929 34.7186C150.793 33.6739 150.74 32.7572 150.76 32.5169Z" fill="#E3BCA9"/>
<path fill-rule="evenodd" clip-rule="evenodd" d="M119.716 115.28C119.716 115.28 122.197 120.578 124.982 125.629C124.989 125.642 124.997 125.655 125.004 125.668C125.393 126.345 126.268 126.576 126.958 126.183C127.648 125.79 127.892 124.923 127.503 124.247C127.495 124.234 127.487 124.22 127.479 124.207C124.519 119.256 121.189 114.442 121.189 114.442L119.716 115.28Z" fill="#E3E3E3"/>
<path fill-rule="evenodd" clip-rule="evenodd" d="M125.275 124.63C125.566 124.074 126.256 123.852 126.814 124.133C127.373 124.414 127.59 125.092 127.299 125.648C127.008 126.205 126.318 126.427 125.759 126.146C125.2 125.865 124.984 125.187 125.275 124.63Z" fill="#5432C1"/>
<path fill-rule="evenodd" clip-rule="evenodd" d="M135.259 74.5726C135.022 74.3243 134.827 73.6828 134.735 73.2876C134.418 73.3921 133.653 73.5304 132.825 73.3301L132.228 73.5734C132.396 73.5051 132.585 73.4791 132.777 73.5059C133.35 73.5875 133.742 74.1125 133.653 74.6793C133.594 75.0538 133.339 75.3529 133.007 75.4893L134.063 75.0591L135.259 74.5726Z" fill="#2C3442"/>
<path fill-rule="evenodd" clip-rule="evenodd" d="M133.657 74.6744C133.747 74.1065 133.354 73.5807 132.781 73.4989C132.588 73.4721 132.4 73.498 132.231 73.5665L132.229 73.5676C131.896 73.7033 131.639 74.0041 131.58 74.3802C131.49 74.9481 131.883 75.4739 132.456 75.5557C132.65 75.5835 132.838 75.5566 133.007 75.487L133.01 75.4858C133.344 75.3491 133.598 75.0495 133.657 74.6744Z" fill="#2C3442"/>
<path fill-rule="evenodd" clip-rule="evenodd" d="M136.371 70.5603C134.551 69.9102 131.79 69.1094 131.79 69.1094L127.281 67.0777L125.54 69.9604L130.255 71.6675C130.823 72.7193 131.641 73.1921 132.405 73.3763C133.232 73.5757 133.997 73.4383 134.315 73.3338C134.408 73.7291 134.603 74.3698 134.838 74.6193L133.643 75.107C133.696 75.5471 134.219 75.9271 134.467 76.0784C134.585 76.1497 135.058 75.9267 135.425 75.6587C135.47 75.678 135.514 75.6921 135.557 75.696C135.977 75.7269 136.331 75.4772 136.503 75.2655C136.656 75.3079 136.913 75.3395 136.964 75.2994C137.004 75.2681 137.233 75.0502 137.427 74.8342C137.461 74.8395 137.498 74.8406 137.54 74.8363C137.731 74.8144 138.348 74.2878 138.411 74.0925C138.493 73.8338 138.504 73.4951 138.47 73.1401C138.408 72.4745 138.191 71.754 138.011 71.4071C137.974 71.3365 137.939 71.2814 137.906 71.2458C137.772 71.0965 137.16 70.8427 136.371 70.5603ZM134.838 74.6203L134.844 74.618C134.843 74.6201 134.842 74.6212 134.841 74.6233C134.84 74.6223 134.839 74.6213 134.838 74.6203Z" fill="#FDDBCA"/>
<path fill-rule="evenodd" clip-rule="evenodd" d="M130.262 71.68C130.7 72.32 132.273 73.5732 133.941 73.4312C133.554 73.4968 132.998 73.5252 132.411 73.3836C131.647 73.2 130.83 72.7286 130.262 71.68Z" fill="#EF9D9B"/>
<path fill-rule="evenodd" clip-rule="evenodd" d="M136.949 75.363C137.02 75.3079 137.679 74.6821 137.701 74.4907C137.685 74.1438 137.469 72.6002 137.277 72.0152C137.231 71.8788 136.991 71.7779 136.885 71.745C137.031 71.8029 137.186 71.9731 137.212 72.0354C137.24 72.0977 137.644 74.1659 137.532 74.5302C137.441 74.8715 136.949 75.363 136.949 75.363Z" fill="#FFCFCE"/>
<path fill-rule="evenodd" clip-rule="evenodd" d="M138.145 74.4674C138.193 74.3854 138.306 74.1756 138.315 73.9401C138.348 73.0903 138.325 71.6105 137.567 71.0867C137.726 71.1637 137.838 71.2317 137.886 71.2845C137.919 71.3203 137.956 71.3758 137.993 71.4468C138.177 71.7961 138.397 72.5215 138.461 73.1917C138.495 73.5481 138.484 73.8892 138.4 74.1507C138.377 74.224 138.274 74.3445 138.145 74.4674Z" fill="#FFCFCE"/>
<path fill-rule="evenodd" clip-rule="evenodd" d="M136.348 70.5943C137.136 70.875 137.746 71.1273 137.879 71.2746C137.911 71.31 137.947 71.3648 137.984 71.4349C138.129 71.4084 138.327 71.3553 138.444 71.252C138.514 71.1905 138.554 71.1109 138.537 71.0077C138.48 70.6758 137.139 70.6748 136.348 70.5943Z" fill="#EF9D9B"/>
<path fill-rule="evenodd" clip-rule="evenodd" d="M135.472 72.8688C135.635 73.5251 135.808 74.6235 135.733 75.2103C135.707 75.41 135.223 75.828 134.966 75.9965C135.117 75.9194 135.281 75.8206 135.427 75.7146C135.68 75.5316 135.883 75.3264 135.888 75.1799C135.922 74.374 135.722 73.6206 135.591 72.8519C135.588 72.8322 135.555 72.6168 135.204 72.4177C135.281 72.4877 135.419 72.6555 135.472 72.8688Z" fill="#FFCFCE"/>
<path fill-rule="evenodd" clip-rule="evenodd" d="M136.22 75.5698C136.433 75.4329 136.577 75.2517 136.611 75.1413C136.76 74.4687 136.772 72.8329 136.392 72.237C136.339 72.1541 136.198 72.0291 135.993 71.9941C136.678 72.3072 136.729 74.0974 136.476 75.1276C136.433 75.3055 136.301 75.4589 136.22 75.5698Z" fill="#FFCFCE"/>
<path fill-rule="evenodd" clip-rule="evenodd" d="M134.436 75.365C134.455 75.3005 134.736 74.8649 134.851 74.6662C134.85 74.6653 134.849 74.6643 134.849 74.6632C134.596 74.7665 134.483 74.832 134.436 75.365Z" fill="#DF8B8A"/>
<path fill-rule="evenodd" clip-rule="evenodd" d="M134.227 73.3912C134.26 73.3821 134.29 73.3731 134.316 73.3644C134.315 73.3603 134.314 73.3562 134.313 73.352C134.294 73.2674 134.275 73.1243 134.272 72.973C134.241 73.053 134.221 73.2149 134.227 73.3912Z" fill="#DF8B8A"/>
<path fill-rule="evenodd" clip-rule="evenodd" d="M108.412 44.8872C109.255 46.2897 113.221 54.7575 115.585 56.8545C117.948 58.9526 130.672 67.6938 130.672 67.6938L128.428 71.9022C128.428 71.9022 117.109 66.2384 109.929 62.4182C106.333 60.5042 102.9 52.7695 101.012 48.7743C99.9373 46.5005 99.7971 42.6236 102.25 41.0828C103.519 40.2841 106.739 42.1032 108.412 44.8872Z" fill="#BBE25B"/>
<path fill-rule="evenodd" clip-rule="evenodd" d="M87.192 123.643C86.8623 125.485 86.6828 127.049 86.1708 129.616C84.821 130.556 82.3917 129.836 82.179 128.893C81.9661 127.949 82.6936 123.41 82.6936 123.41L87.192 123.643Z" fill="#FDDBCA"/>
<path fill-rule="evenodd" clip-rule="evenodd" d="M81.0602 131.229C81.8268 131.412 84.725 131.947 85.0099 132.009C85.2949 132.071 85.8148 132.54 85.9915 132.575C86.8986 132.756 88.2037 132.513 88.5287 132.484C88.8537 132.455 93.7113 133.026 93.7588 132.936C93.8063 132.845 93.8412 132.25 93.423 131.996C93.2128 131.867 92.2801 131.413 91.1893 130.819C90.1135 130.234 88.9735 129.547 88.4566 129.196C88.1334 128.977 87.9676 128.713 87.6941 128.505L87.693 128.504C87.4879 128.323 86.5622 127.211 86.404 127.214C86.2467 127.218 85.4473 127.508 85.4279 127.64C85.4085 127.772 85.314 128.06 85.2882 128.6C84.7164 128.912 84.2028 128.948 83.8309 128.89C82.4831 128.681 82.5632 126.935 82.3402 126.923C82.0279 126.907 81.2985 127.935 81.0602 131.229Z" fill="#2C3442"/>
<path fill-rule="evenodd" clip-rule="evenodd" d="M81.1075 131.274L81.0821 131.292C81.0131 131.415 80.7646 131.932 80.7942 132.056C80.8248 132.18 82.7376 132.898 86.37 133.276C90.0023 133.654 93.0488 133.93 93.7581 132.96C93.5948 133.032 88.8623 132.481 88.541 132.51C88.2165 132.539 86.9136 132.779 86.0081 132.6C85.8306 132.565 85.3127 132.101 85.0282 132.04C84.7459 131.98 81.9033 131.459 81.1075 131.274Z" fill="#EDEAFD"/>
<path fill-rule="evenodd" clip-rule="evenodd" d="M86.1987 88.225C84.0291 80.3736 69.0955 74.5323 64.5443 72.0218C63.0486 72.2183 55.7114 72.9999 53.6495 73.4347L46.5711 74.2551C46.5708 74.2468 47.9424 82.1472 55.1121 85.8937L76.5351 90.0743L80.4698 125.086L87.4242 125.147C87.3116 117.061 87.5312 93.0486 86.1987 88.225Z" fill="#A1CC3A"/>
<path fill-rule="evenodd" clip-rule="evenodd" d="M81.7101 24.7075C78.4495 31.4229 72.7441 38.9332 65.9917 42.4996L63.1402 35.9115C67.7353 33.4074 72.4651 32.2799 79.1189 23.1815C78.4058 21.2683 77.9934 19.6352 78.3187 19.2667C78.6439 18.8971 79.1704 19.9598 79.6451 20.7018C79.9297 19.6892 81.6422 15.6199 82.2895 15.5844C82.7823 15.5573 81.511 19.2361 81.511 19.2361C81.511 19.2361 83.6098 20.0732 83.5654 21.4493C83.522 22.8243 83.1188 24.4283 81.7101 24.7075Z" fill="#FDDBCA"/>
<path fill-rule="evenodd" clip-rule="evenodd" d="M48.3098 39.615C50.3975 38.8756 63.9047 35.4573 64.3907 35.3333C64.6877 36.1264 67.1241 41.6087 67.369 41.9517C66.0728 42.6861 60.6685 44.7824 59.2708 48.0561L48.3098 39.615Z" fill="#DF9700"/>
<path fill-rule="evenodd" clip-rule="evenodd" d="M66.1175 72.6318C64.4065 68.0485 61.6504 64.5488 61.1121 60.8161C60.3865 55.7881 62.0896 50.7405 60.715 45.8846C59.2968 40.8738 55.9573 37.6467 49.7062 38.9814C46.9498 39.5701 43.7235 41.0504 41.5743 43.5875C39.0378 46.5824 43.3771 54.3004 45.8194 63.5831C47.294 69.1858 44.911 72.1202 45.7748 78.0929C48.9936 74.7438 62.7392 72.5378 66.1175 72.6318Z" fill="#FFAD00"/>
<path fill-rule="evenodd" clip-rule="evenodd" d="M35.7915 55.0013C35.067 57.3821 32.0994 65.3362 34.8995 66.5347C37.6996 67.7332 40.518 61.7015 42.3724 56.1339L39.0464 55.5617L35.7915 55.0013Z" fill="#FDDBCA"/>
<path fill-rule="evenodd" clip-rule="evenodd" d="M42.121 57.6319C42.9482 55.709 43.8169 53.261 44.3177 51.0332C45.094 47.5771 47.5406 41.2199 45.3343 40.5505C38.4979 44.1568 36.3567 50.1912 34.8918 55.3866L36.3282 55.8326L42.121 57.6319Z" fill="#FFBE36"/>
<path fill-rule="evenodd" clip-rule="evenodd" d="M52.0171 37.1093C50.5651 38.7201 52.7562 42.407 51.9127 43.1917C51.0694 43.9775 47.2584 42.5981 46.32 40.7403C46.3187 39.5238 46.1453 35.8325 45.7849 35.0159C45.7849 35.0159 49.6936 34.5234 49.926 34.2388L52.0171 37.1093Z" fill="#FDDBCA"/>
<path fill-rule="evenodd" clip-rule="evenodd" d="M51.993 37.1012C51.5587 37.5831 51.4521 38.2507 51.4908 38.9705C49.3897 38.7908 47.4643 36.4896 46.5448 35.3154L46.7551 34.8821C47.9255 34.716 49.7519 34.4309 49.9076 34.2396L51.993 37.1012Z" fill="#E3BCA9"/>
<path fill-rule="evenodd" clip-rule="evenodd" d="M53.128 32.6828C53.0024 30.9326 52.6021 29.2173 52.4384 28.6267C51.9243 28.5321 50.4248 26.9083 50.2171 25.8402C49.809 29.4392 46.8044 28.7235 46.0179 31.014C45.6102 32.2012 45.7505 33.5613 46.2837 34.4824C45.7917 33.9494 44.9682 32.1708 44.311 33.1437C43.6547 34.1166 45.6614 35.4835 46.5168 35.2857C50.1907 38.8627 53.5267 38.2362 53.128 32.6828Z" fill="#FDDBCA"/>
<path fill-rule="evenodd" clip-rule="evenodd" d="M43.4325 77.7649L43.8422 78.7485C44.6798 78.6547 48.8915 80.5583 48.7494 81.3491C48.6332 81.7631 47.8662 81.631 47.5104 81.5212C46.922 81.3386 46.0396 80.5497 45.5428 80.9648C44.9154 81.4892 47.5673 85.5175 47.9491 86.2244C48.086 86.4775 48.1513 86.7388 47.9925 86.8809C47.4271 86.7159 46.8379 86.2977 46.3635 85.6512C45.8892 85.0047 45.1611 83.8007 45.0385 83.8262C45.0019 83.8616 45.149 84.7846 45.5301 85.7897C46.0259 87.0981 46.7609 88.5811 46.4039 88.7841C46.0469 88.9872 45.2868 88.1885 44.6251 86.4471C44.2156 85.4206 43.8372 84.4529 43.698 84.4856C43.603 84.5127 44.7199 88.402 44.1669 88.572C43.6139 88.7409 42.7046 84.6662 42.4491 84.7219C42.1841 84.7562 42.5895 87.6752 42.0549 87.7326C41.5213 87.79 40.3891 81.0041 40.6576 79.8863L40.5104 79.543C35.0557 72.2422 33.1183 64.6184 33.9223 62.5913C36.3441 60.1305 38.5629 61.477 39.9852 64.7563C41.3263 67.8461 42.1361 74.2222 43.4325 77.7649Z" fill="#FDDBCA"/>
<path fill-rule="evenodd" clip-rule="evenodd" d="M245.481 69.9976C245.214 69.7157 244.993 68.9917 244.889 68.5443C244.529 68.6635 243.664 68.8188 242.728 68.5933L242.052 68.8689C242.243 68.791 242.456 68.7617 242.673 68.7923C243.321 68.8843 243.764 69.478 243.664 70.1191C243.597 70.5426 243.309 70.881 242.934 71.0353L244.128 70.5488L245.481 69.9976Z" fill="#2C3442"/>
<path fill-rule="evenodd" clip-rule="evenodd" d="M243.67 70.112C243.771 69.4697 243.328 68.874 242.679 68.7829C242.461 68.7523 242.248 68.7816 242.057 68.8596L242.055 68.8608C241.678 69.0144 241.388 69.3544 241.321 69.7798C241.22 70.4221 241.663 71.0178 242.312 71.1089C242.531 71.1395 242.744 71.1101 242.935 71.0321L242.939 71.0309C243.315 70.8752 243.603 70.5364 243.67 70.112Z" fill="#2C3442"/>
<path fill-rule="evenodd" clip-rule="evenodd" d="M246.74 65.4593C244.681 64.7236 241.558 63.8172 241.558 63.8172L236.456 61.5183L234.486 64.7797L239.82 66.7111C240.462 67.902 241.388 68.4363 242.252 68.6451C243.188 68.8707 244.053 68.7154 244.413 68.5961C244.517 69.0436 244.738 69.768 245.006 70.05L243.653 70.6013C243.713 71.0991 244.304 71.5293 244.585 71.7006C244.717 71.7815 245.253 71.5291 245.668 71.2252C245.719 71.2463 245.77 71.2632 245.819 71.2667C246.293 71.3019 246.693 71.0197 246.888 70.7797C247.062 70.8272 247.351 70.8632 247.41 70.8175C247.456 70.7818 247.716 70.5351 247.933 70.2909C247.972 70.297 248.014 70.2978 248.061 70.2932C248.278 70.2689 248.976 69.6725 249.046 69.4519C249.139 69.1594 249.151 68.776 249.112 68.3746C249.042 67.6213 248.796 66.8059 248.591 66.4137C248.55 66.334 248.509 66.2719 248.473 66.2304C248.326 66.0662 247.633 65.7785 246.74 65.4593ZM245.007 70.051L245.013 70.0486C245.012 70.0507 245.011 70.0528 245.01 70.0539C245.009 70.0529 245.008 70.052 245.007 70.051Z" fill="#FDDBCA"/>
<path fill-rule="evenodd" clip-rule="evenodd" d="M239.83 66.725C240.324 67.4488 242.104 68.8665 243.99 68.7063C243.554 68.7809 242.925 68.8133 242.26 68.6532C241.396 68.445 240.471 67.9123 239.83 66.725Z" fill="#E3BCA9"/>
<path fill-rule="evenodd" clip-rule="evenodd" d="M247.394 70.8912C247.475 70.8294 248.22 70.1216 248.247 69.9049C248.229 69.5122 247.985 67.7665 247.766 67.1046C247.715 66.9497 247.444 66.8359 247.322 66.7987C247.488 66.8638 247.662 67.056 247.693 67.1274C247.724 67.1978 248.182 69.5377 248.055 69.9498C247.951 70.3356 247.394 70.8912 247.394 70.8912Z" fill="#E3BCA9"/>
<path fill-rule="evenodd" clip-rule="evenodd" d="M248.748 69.8791C248.801 69.7864 248.93 69.5496 248.94 69.2827C248.977 68.321 248.951 66.6473 248.093 66.0547C248.274 66.142 248.399 66.2187 248.454 66.2784C248.492 66.3192 248.532 66.3818 248.575 66.463C248.784 66.8579 249.032 67.6788 249.105 68.4362C249.143 68.8394 249.132 69.2253 249.038 69.5208C249.009 69.6038 248.893 69.7396 248.748 69.8791Z" fill="#FFCFCE"/>
<path fill-rule="evenodd" clip-rule="evenodd" d="M246.714 65.4978C247.605 65.8152 248.296 66.1011 248.446 66.2672C248.483 66.3075 248.522 66.3693 248.564 66.4494C248.728 66.4198 248.953 66.3591 249.084 66.2426C249.163 66.1723 249.209 66.0822 249.19 65.9667C249.126 65.5897 247.61 65.5881 246.714 65.4978Z" fill="#E3BCA9"/>
<path fill-rule="evenodd" clip-rule="evenodd" d="M245.725 68.0691C245.91 68.8107 246.105 70.0541 246.019 70.7176C245.99 70.9437 245.442 71.4162 245.152 71.6063C245.323 71.5198 245.508 71.4074 245.674 71.2866C245.96 71.0789 246.19 70.8482 246.197 70.6818C246.236 69.7713 246.008 68.9181 245.86 68.0491C245.856 68.0274 245.82 67.783 245.423 67.5582C245.508 67.6392 245.664 67.8291 245.725 68.0691Z" fill="#E3BCA9"/>
<path fill-rule="evenodd" clip-rule="evenodd" d="M246.569 71.1259C246.811 70.9707 246.974 70.7666 247.011 70.6413C247.181 69.8809 247.194 68.0309 246.764 67.3552C246.704 67.2613 246.543 67.1205 246.313 67.0807C247.088 67.4349 247.146 69.4607 246.859 70.6254C246.811 70.8266 246.662 71.0007 246.569 71.1259Z" fill="#E3BCA9"/>
<path fill-rule="evenodd" clip-rule="evenodd" d="M244.551 70.8939C244.574 70.8219 244.891 70.3282 245.022 70.1037C245.021 70.1027 245.02 70.1017 245.018 70.1007C244.733 70.2173 244.605 70.2919 244.551 70.8939Z" fill="#E3BCA9"/>
<path fill-rule="evenodd" clip-rule="evenodd" d="M244.316 68.6609C244.353 68.6505 244.387 68.6404 244.416 68.6304C244.415 68.6252 244.414 68.6211 244.413 68.616C244.39 68.5211 244.369 68.3583 244.366 68.1871C244.33 68.2779 244.308 68.4608 244.316 68.6609Z" fill="#DF8B8A"/>
<path fill-rule="evenodd" clip-rule="evenodd" d="M215.446 37.0706C219.595 35.136 224.452 35.6101 227.892 31.2669L231.742 15.6968L238.632 16.7281L235.247 33.964C235.247 33.964 235.18 34.9017 232.122 37.958C229.612 40.4662 222.545 44.5695 220.048 46.2928C216.513 48.7314 208.298 41.8149 215.446 37.0706Z" fill="#8A94A6"/>
<path fill-rule="evenodd" clip-rule="evenodd" d="M217.994 38.383C217.994 38.383 220.863 41.0405 220.113 46.4671C219.363 51.8938 216.164 53.8787 212.849 65.9245C212.707 66.4148 197.171 66.6966 191.637 69.0613C191.637 69.0613 194.34 48.3454 202.539 40.2887C204.496 38.3637 212.215 33.4988 217.994 38.383Z" fill="#D1D6DE"/>
<path fill-rule="evenodd" clip-rule="evenodd" d="M213.149 42.4865L221.621 55.0623L240.733 62.0158C240.733 62.0158 239.523 65.7703 238.748 67.2006C238.465 67.2971 219.338 63.0401 216.631 61.2392C213.721 59.3031 206.682 49.7814 205.296 46.5888C204.333 44.3714 205.236 41.8193 207.374 40.8363C208.705 40.2245 211.642 40.5077 213.149 42.4865Z" fill="#EFEFFF"/>
<path fill-rule="evenodd" clip-rule="evenodd" d="M220.005 28.6117C220.325 27.5698 220.564 26.0143 220.538 25.0413C221.956 24.2199 224.089 20.8653 224.567 18.8309C223.916 20.1021 221.64 21.1693 220.719 21.4122C221.679 20.8271 223.323 18.2824 222.804 16.2476C222.68 16.7816 220.985 18.9474 219.333 19.5466C220.529 18.8279 221.791 16.6224 220.494 14.9402C219.796 16.6716 218.28 17.6451 216.591 18.3243C213.863 19.4225 212.217 19.5523 210.806 20.3557C204.556 23.9154 207.914 33.6485 211.768 34.5903L220.005 28.6117Z" fill="#2C3442"/>
<path fill-rule="evenodd" clip-rule="evenodd" d="M217.451 36.0789C217.159 37.2527 216.965 38.5003 216.789 39.3738C216.765 39.5658 216.266 42.4693 214.69 42.2441C213.113 42.019 211.468 39.4946 210.769 37.6905C211.448 36.0339 211.842 34.395 212.32 30.9716L214.169 31.1944L217.451 36.0789Z" fill="#FDDBCA"/>
<path fill-rule="evenodd" clip-rule="evenodd" d="M218.022 33.0038C217.929 32.9468 217.558 33.1079 217.264 33.0877C216.97 33.0676 215.834 32.5701 215.46 32.8192C215.086 33.0684 216.083 34.3704 216.855 34.3777C217.629 34.385 218.357 33.0568 218.022 33.0038Z" fill="#F18684"/>
<path fill-rule="evenodd" clip-rule="evenodd" d="M218.017 33.0009C217.925 32.9443 217.554 33.1042 217.261 33.0842C216.967 33.0642 215.834 32.5703 215.46 32.8177C215.362 32.8826 215.359 33.0173 215.419 33.1825C216.379 33.5276 217.314 33.5579 217.98 33.4939C218.116 33.2389 218.149 33.0214 218.017 33.0009Z" fill="white"/>
<path fill-rule="evenodd" clip-rule="evenodd" d="M213.575 34.8748C214.133 35.52 214.99 36.0095 216.263 36.2349C216.674 36.308 217.05 36.305 217.394 36.2424C217.213 37.001 217.069 37.7825 216.944 38.4651C213.888 37.6711 213.144 35.5233 212.884 33.9271C212.884 33.9271 213.062 34.172 213.248 34.4259C213.343 34.5829 213.452 34.7329 213.575 34.8748Z" fill="#E3BCA9"/>
<path fill-rule="evenodd" clip-rule="evenodd" d="M211.549 32.4889C210.954 32.7555 210.078 31.8395 209.576 30.9041C209.157 30.1222 209.067 29.4251 209.677 28.9892C210.461 28.5447 211.482 29.5754 211.88 30.866C212.042 29.995 212.114 27.8185 211.917 26.9745C213.096 26.3472 213.607 24.1081 213.44 23.3757C215.812 26.0203 217.587 23.847 218.625 24.205C219.7 24.5766 220.084 26.2101 220.167 28.012L211.549 32.4889ZM220.167 28.012C220.401 27.034 220.56 25.8408 220.538 25.0402C221.956 24.2188 224.089 20.8642 224.567 18.8298C223.916 20.101 221.64 21.1682 220.719 21.4111C221.678 20.826 223.323 18.2814 222.804 16.2465C222.68 16.7806 220.985 18.9463 219.333 19.5456C220.528 18.8268 221.791 16.6214 220.494 14.9392C219.796 16.6706 218.279 17.644 216.591 18.3232C213.863 19.4214 212.217 19.5513 210.805 20.3547C204.622 23.8763 207.843 33.439 211.645 34.5553L220.167 28.012Z" fill="#202836"/>
<path fill-rule="evenodd" clip-rule="evenodd" d="M216.501 36.4409C219.502 36.3657 219.965 32.8181 220.061 31.8566C220.314 29.3288 220.534 24.8685 218.665 24.223C217.627 23.8637 215.85 26.0391 213.477 23.3933C213.644 24.127 213.133 26.3672 211.953 26.9939C212.15 27.8373 212.078 30.0149 211.916 30.8874C211.518 29.5962 210.497 28.5648 209.712 29.0106C209.101 29.4479 209.19 30.1443 209.611 30.9265C210.233 32.0859 211.428 33.2138 211.952 32.1049C212.175 34.3423 213.157 36.5245 216.501 36.4409Z" fill="#FDDBCA"/>
<path fill-rule="evenodd" clip-rule="evenodd" d="M216.08 129.991L222.957 129.956C223.507 129.953 223.951 130.392 223.943 130.93C223.935 131.468 223.478 131.91 222.928 131.914L216.051 131.949C215.501 131.952 215.058 131.514 215.066 130.975C215.073 130.437 215.53 129.995 216.08 129.991Z" fill="#2C3442"/>
<path fill-rule="evenodd" clip-rule="evenodd" d="M227.774 108.606L234.577 109.542C235.121 109.617 235.496 110.116 235.409 110.652C235.322 111.187 234.805 111.565 234.261 111.489L227.457 110.553C226.913 110.478 226.539 109.979 226.626 109.443C226.713 108.908 227.229 108.532 227.774 108.606Z" fill="#2C3442"/>
<path fill-rule="evenodd" clip-rule="evenodd" d="M163.068 114.023L169.872 114.96C170.416 115.035 170.79 115.534 170.704 116.07C170.617 116.605 170.1 116.983 169.556 116.907L162.752 115.97C162.208 115.895 161.834 115.396 161.92 114.86C162.008 114.324 162.524 113.948 163.068 114.023Z" fill="#2C3442"/>
<path fill-rule="evenodd" clip-rule="evenodd" d="M181.603 129.043L188.477 128.776C189.027 128.755 189.486 129.177 189.497 129.714C189.508 130.251 189.066 130.707 188.516 130.729L181.642 130.995C181.092 131.017 180.634 130.595 180.623 130.058C180.611 129.521 181.053 129.064 181.603 129.043Z" fill="#2C3442"/>
<path fill-rule="evenodd" clip-rule="evenodd" d="M117.062 113.737L123.934 113.942C124.484 113.959 124.912 114.414 124.884 114.952C124.856 115.491 124.384 115.918 123.834 115.901L116.962 115.695C116.412 115.679 115.985 115.224 116.012 114.686C116.04 114.147 116.513 113.719 117.062 113.737Z" fill="#2C3442"/>
<path fill-rule="evenodd" clip-rule="evenodd" d="M128.605 135.314L135.258 133.498C135.791 133.353 136.338 133.662 136.475 134.185C136.612 134.709 136.289 135.255 135.757 135.401L129.103 137.216C128.571 137.362 128.023 137.052 127.886 136.529C127.749 136.006 128.072 135.459 128.605 135.314Z" fill="#2C3442"/>
<path fill-rule="evenodd" clip-rule="evenodd" d="M83.401 132.826L90.207 133.746C90.7512 133.82 91.1273 134.318 91.0407 134.854C90.9551 135.39 90.4391 135.768 89.895 135.694L83.089 134.774C82.5449 134.701 82.1687 134.202 82.2553 133.666C82.3409 133.13 82.8558 132.752 83.401 132.826Z" fill="#2C3442"/>
<path fill-rule="evenodd" clip-rule="evenodd" d="M64.5936 118.388L70.7812 121.311C71.2765 121.545 71.4797 122.137 71.2323 122.627C70.9859 123.117 70.3787 123.327 69.8834 123.093L63.6958 120.17C63.2006 119.936 62.9973 119.344 63.2448 118.854C63.4922 118.364 64.0984 118.154 64.5936 118.388Z" fill="#2C3442"/>
</svg>
