<svg width="605" height="168" viewBox="0 0 605 168" fill="none" xmlns="http://www.w3.org/2000/svg">
<path fill-rule="evenodd" clip-rule="evenodd" d="M470.985 22.1005C470.323 22.3399 469.847 22.617 469.52 22.9283L463.521 28.6257C462.066 30.0078 463.56 32.0398 464.625 34.1915L459.135 39.4066C461.345 39.6973 463.632 40.438 464.766 39.3604L470.765 33.663C471.198 33.2507 471.463 32.5734 471.49 31.5027C471.557 28.884 468.672 26.0823 468.933 24.0521L470.985 22.1005Z" fill="#9F9F9F"/>
<path fill-rule="evenodd" clip-rule="evenodd" d="M279.082 14.1726C277.652 14.0991 276.983 12.4143 277.62 11.2717L279.686 7.5584C280.239 6.56635 281.775 5.98309 284.653 7.21973C285.173 7.4438 285.73 7.51564 286.228 7.42156L287.793 4.60962C287.901 5.41694 287.788 6.04125 287.534 6.49622L285.468 10.2096C284.91 11.2119 283.67 11.4 282.586 10.9331C281.789 10.5893 281.094 10.3874 280.494 10.2934C280.69 10.3874 280.909 10.4456 281.15 10.4576L279.082 14.1726Z" fill="#2489A9"/>
<path fill-rule="evenodd" clip-rule="evenodd" d="M341.631 37.1453C342.172 37.6619 342.66 37.9817 343.11 38.1442L351.357 41.1409C353.357 41.8678 354.583 39.4903 356.123 37.4652L363.67 40.2087C362.901 37.9749 362.525 35.4571 360.967 34.891L352.72 31.8943C352.124 31.6771 351.354 31.7472 350.325 32.2261C347.805 33.4012 346.505 37.4583 344.453 38.1699L341.631 37.1453Z" fill="#DAD538"/>
<path fill-rule="evenodd" clip-rule="evenodd" d="M367.974 72.4657C367.416 72.2245 366.356 68.7849 367.46 67.6816L370.469 64.6764C371.182 63.9632 372.8 64.2266 376.045 66.9633C376.654 67.4764 377.012 67.7295 377.551 68.3196L374.543 71.3249C374.004 70.7365 373.644 70.4833 373.037 69.9685C371.919 69.026 370.994 68.3761 370.234 67.9604C370.448 68.7404 370.756 69.3647 370.982 69.4622L367.974 72.4657Z" fill="#A1CC3A"/>
<path fill-rule="evenodd" clip-rule="evenodd" d="M504.528 11.2854C506.164 10.5978 507.821 12.1184 507.729 13.7364L507.426 18.9994C507.346 20.4054 505.943 21.8849 502.061 22.0559C501.359 22.0867 500.698 22.3057 500.193 22.6803L499.963 26.6638C499.407 25.8206 499.196 25.0629 499.232 24.418L499.535 19.1551C499.617 17.7354 500.9 16.8562 502.364 16.793C503.44 16.7451 504.327 16.598 505.046 16.3773C504.778 16.3773 504.5 16.4303 504.225 16.5467L504.528 11.2854Z" fill="#2489A9"/>
<path fill-rule="evenodd" clip-rule="evenodd" d="M555.598 54.4343C557.697 54.1812 559.097 56.4612 558.462 58.2845L556.397 64.2094C555.846 65.7933 553.757 67.0299 549.258 65.9592C548.445 65.7659 547.616 65.8001 546.914 66.0653L545.349 70.5517C544.988 69.404 544.993 68.4684 545.248 67.7415L547.313 61.8166C547.87 60.219 549.626 59.6306 551.323 60.0343C552.571 60.3319 553.634 60.4499 554.529 60.4345C554.221 60.3473 553.887 60.3182 553.533 60.361L555.598 54.4343Z" fill="#FFAD00"/>
<path fill-rule="evenodd" clip-rule="evenodd" d="M505.942 119.265L509.588 123.134C509.838 123.399 509.999 123.705 509.989 124.056L508.33 122.296C508.25 122.258 508.171 122.222 508.095 122.188C506.709 121.576 502.891 122.66 501.376 123.322L497.729 119.453C499.244 118.793 503.064 117.708 504.449 118.319C504.938 118.534 505.548 118.847 505.942 119.265Z" fill="#DDB12C"/>
<path fill-rule="evenodd" clip-rule="evenodd" d="M333.451 68.1725L330.356 68.2666C330.145 68.2734 329.948 68.2255 329.799 68.0853L331.206 68.0425C331.254 68.022 331.301 68.0015 331.343 67.9809C332.145 67.6132 333.146 65.5333 333.442 64.6182L336.538 64.5242C336.242 65.4392 335.24 67.5191 334.439 67.8869C334.156 68.0169 333.785 68.1623 333.451 68.1725Z" fill="#2489A9"/>
<path fill-rule="evenodd" clip-rule="evenodd" d="M410.904 46.1313L410.031 41.8227C409.971 41.5285 409.992 41.2429 410.151 41L410.548 42.9602C410.587 43.0217 410.627 43.0816 410.666 43.138C411.373 44.1711 414.528 45.0742 415.883 45.2692L416.756 49.5778C415.402 49.3811 412.246 48.4797 411.539 47.4466C411.291 47.0806 410.998 46.5948 410.904 46.1313Z" fill="#2489A9"/>
<path fill-rule="evenodd" clip-rule="evenodd" d="M405.94 19.2321L395.99 12.6897C394.761 11.8823 393.61 10.5191 392.496 8.38452L400.474 13.6304C402.357 13.4286 404.451 12.7119 406.842 11.9559L416.793 18.4983C412.326 19.9094 408.905 21.1819 405.94 19.2321Z" fill="#DAD538"/>
<path fill-rule="evenodd" clip-rule="evenodd" d="M362.571 10.827L359.476 10.9211C359.263 10.9279 359.068 10.88 358.919 10.7398L360.326 10.697C360.374 10.6765 360.421 10.656 360.463 10.6354C361.265 10.2677 362.266 8.1878 362.562 7.27272L365.658 7.17865C365.362 8.09373 364.36 10.1736 363.559 10.5414C363.276 10.6713 362.905 10.8167 362.571 10.827Z" fill="#2489A9"/>
<path fill-rule="evenodd" clip-rule="evenodd" d="M202.837 4.31368C202.588 4.54972 202.364 4.69681 202.159 4.77207L198.375 6.14726C197.457 6.48079 196.896 5.39125 196.189 4.46077L192.727 5.71965C193.08 4.6951 193.253 3.54056 193.967 3.28058L197.75 1.90539C198.024 1.80619 198.377 1.83698 198.849 2.05762C200.005 2.59641 200.601 4.45906 201.542 4.78404L202.837 4.31368Z" fill="#DAD538"/>
<path fill-rule="evenodd" clip-rule="evenodd" d="M236 10.5815C236.2 11.0947 236.426 11.4624 236.676 11.7104L241.256 16.2858C242.367 17.3959 243.928 16.1883 245.593 15.3126L249.784 19.4997C249.967 17.7671 250.503 15.9643 249.636 15.1005L245.057 10.5251C244.726 10.195 244.189 10 243.35 10C241.297 10 239.162 12.3091 237.567 12.1449L236 10.5815Z" fill="#FFD701"/>
<path fill-rule="evenodd" clip-rule="evenodd" d="M446.01 4.05543L442.838 7.22485C442.446 7.61654 441.855 7.93639 440.982 8.1844L443.526 5.64441C443.595 4.93459 443.49 4.10845 443.393 3.16942L446.565 0C446.746 1.75319 446.955 3.11127 446.01 4.05543Z" fill="#76BEBE"/>
<path fill-rule="evenodd" clip-rule="evenodd" d="M557.572 116.121C557.238 115.437 559.042 111.304 560.994 111.157L566.308 110.755C567.57 110.66 568.892 112.232 569.736 117.476C569.895 118.461 570.028 118.993 570.059 119.993L564.745 120.395C564.714 119.396 564.581 118.863 564.421 117.878C564.13 116.071 563.783 114.7 563.401 113.684C562.966 114.599 562.751 115.444 562.886 115.721L557.572 116.121Z" fill="#A1CC3A"/>
<path fill-rule="evenodd" clip-rule="evenodd" d="M502.057 73.403L498.962 73.4971C498.75 73.504 498.554 73.4561 498.405 73.3158L499.813 73.2731C499.861 73.2525 499.907 73.232 499.95 73.2115C500.751 72.8437 501.752 70.7639 502.049 69.8488L505.144 69.7547C504.848 70.6698 503.846 72.7497 503.045 73.1174C502.763 73.2491 502.391 73.3928 502.057 73.403Z" fill="#2489A9"/>
<path fill-rule="evenodd" clip-rule="evenodd" d="M577.097 14.8551L585.2 7.8714C586.202 7.00935 587.662 6.35083 589.783 5.91296L583.286 11.5129C582.999 13.1891 583.103 15.1715 583.17 17.4224L575.067 24.4061C574.944 20.2019 574.683 16.935 577.097 14.8551Z" fill="#AFFBFB"/>
<path fill-rule="evenodd" clip-rule="evenodd" d="M543.656 22.4579L546.142 26.6143C546.449 27.1274 546.63 27.8304 546.659 28.8088L544.666 25.4768C543.94 25.2186 543.047 25.1091 542.037 24.9637L539.551 20.8074C541.437 21.081 542.917 21.2196 543.656 22.4579Z" fill="#FFAD00"/>
<path fill-rule="evenodd" clip-rule="evenodd" d="M598.508 53.4355L598.121 48.1349C598.095 47.7723 598.162 47.4319 598.392 47.1668L598.568 49.5785C598.606 49.6589 598.645 49.7359 598.683 49.8094C599.373 51.1572 603.019 52.7223 604.613 53.1653L605 58.4659C603.406 58.0229 599.759 56.4596 599.069 55.11C598.825 54.6328 598.549 54.0068 598.508 53.4355Z" fill="#FFDE69"/>
<path fill-rule="evenodd" clip-rule="evenodd" d="M589.941 87.5774C589.869 87.2643 589.77 87.0334 589.646 86.8675L587.395 83.8349C586.849 83.0995 585.844 83.6639 584.808 84.0248L582.749 81.2505C582.494 82.2357 582.031 83.2295 582.456 83.8024L584.707 86.835C584.87 87.054 585.163 87.2113 585.647 87.2832C586.832 87.4593 588.263 86.3082 589.169 86.5391L589.941 87.5774Z" fill="#4E5D78"/>
<path fill-rule="evenodd" clip-rule="evenodd" d="M559.508 162.669L563.658 158.487C564.17 157.97 564.943 157.546 566.091 157.214L562.764 160.568C562.678 161.5 562.821 162.585 562.954 163.818L558.804 168C558.554 165.698 558.272 163.915 559.508 162.669Z" fill="#AFFBFB"/>
</svg>
