<svg version="1.1" id="Layer_1" xmlns="http://www.w3.org/2000/svg" xmlns:xlink="http://www.w3.org/1999/xlink" x="0px" y="0px"
	 viewBox="0 0 512 512" style="enable-background:new 0 0 512 512;" xml:space="preserve">
<path d="M120,24.98h56.27c9.35,0,16.88,7.53,16.88,16.88v198.16h61.68c12.52,0,18.78,15.12,9.92,23.98L157.77,371.06
	c-5.28,5.28-13.93,5.28-19.2,0L31.45,264.01c-8.86-8.86-2.6-23.98,9.92-23.98h61.75V41.86C103.12,32.51,110.64,24.98,120,24.98z"/>
<path d="M396.1,375.02h-56.27c-9.35,0-16.88-7.53-16.88-16.88V186.97h-61.68c-12.52,0-18.78-15.12-9.92-23.98L358.33,55.94
	c5.28-5.28,13.93-5.28,19.2,0l107.12,107.05c8.86,8.86,2.6,23.98-9.92,23.98h-61.75v171.16
	C412.98,367.49,405.45,375.02,396.1,375.02z"/>
<path d="M488,352h-56.12v29.58c0,9.35-7.53,16.88-16.88,16.88h-96.27c-9.35,0-16.88-7.53-16.88-16.88V352H224.3l-49,49
	c-20.1,20.1-32.5,20.1-52.6,0l-49-49H24c-13.3,0-24,10.7-24,24v112c0,13.3,10.7,24,24,24h464c13.3,0,24-10.7,24-24V376
	C512,362.7,501.3,352,488,352z M368,484c-11,0-20-9-20-20s9-20,20-20s20,9,20,20S379,484,368,484z M432,484c-11,0-20-9-20-20
	s9-20,20-20s20,9,20,20S443,484,432,484z"/>
</svg>
